<?xml version="1.0" encoding="UTF-8"?> <svg xmlns="http://www.w3.org/2000/svg" width="150" height="150" viewBox="0 0 150 150" fill="none"> <rect width="150" height="150" fill="#242277"></rect> <path d="M140.776 74.4605H129.277V54.9457C129.277 53.7102 128.281 52.7101 127.054 52.7101H91.0391V33.2355C91.0391 32 90.0432 31 88.8161 31H9.22302C7.99443 31 7 32 7 33.2355V106.539C7 107.773 7.99443 108.775 9.22302 108.775H27.8045C28.5752 114.538 33.4836 119 39.4205 119C45.3575 119 50.2659 114.538 51.0366 108.775H88.8161H103.171C103.942 114.538 108.853 119 114.796 119C120.739 119 125.65 114.538 126.422 108.775H140.777C142.004 108.775 143 107.773 143 106.539V76.696C142.999 75.4605 142.003 74.4605 140.776 74.4605ZM39.4205 114.529C35.4028 114.529 32.1335 111.24 32.1335 107.196C32.1335 103.153 35.4028 99.8637 39.4205 99.8637C43.4383 99.8637 46.7076 103.153 46.7076 107.196C46.7076 111.24 43.4398 114.529 39.4205 114.529ZM39.4205 95.3926C33.9445 95.3926 29.3473 99.1916 28.0594 104.304H11.446V35.4711H86.5931V54.9457V76.696V104.302H50.7831C49.4953 99.1916 44.8966 95.3926 39.4205 95.3926ZM114.796 114.529C110.772 114.529 107.5 111.24 107.5 107.196C107.5 103.153 110.772 99.8637 114.796 99.8637C118.819 99.8637 122.093 103.153 122.093 107.196C122.093 111.24 118.818 114.529 114.796 114.529ZM138.552 104.302H126.167C124.878 99.1901 120.276 95.3912 114.796 95.3912C109.315 95.3912 104.714 99.1901 103.426 104.302H91.0406V76.696V57.1812H124.832V76.696C124.832 77.9301 125.828 78.9316 127.055 78.9316H138.554V104.302H138.552Z" fill="white"></path> </svg> 