<?xml version="1.0" encoding="UTF-8"?> <svg xmlns="http://www.w3.org/2000/svg" width="150" height="150" viewBox="0 0 150 150" fill="none"> <rect width="150" height="150" fill="#242277"></rect> <path d="M125.744 8.22461H23.4506C22.2035 8.22461 21.1941 9.23551 21.1941 10.4811V140.378C21.1941 141.624 22.2035 142.635 23.4506 142.635H125.744C126.991 142.635 128 141.624 128 140.378V10.4811C128 9.23551 126.991 8.22461 125.744 8.22461ZM123.487 138.12H25.707V12.736H123.487V138.12Z" fill="white"></path> <path d="M44.0996 91.7079L55.5474 89.1551L57.6384 100.021C57.8204 100.962 58.5756 101.686 59.5233 101.826C59.6346 101.844 59.7444 101.851 59.8543 101.851C60.6831 101.851 61.4564 101.394 61.8505 100.645L74.5965 76.4076L87.3425 100.645C87.7367 101.394 88.5099 101.851 89.3387 101.851C89.4486 101.851 89.5584 101.844 89.6697 101.826C90.6174 101.686 91.3741 100.962 91.5546 100.021L93.6456 89.1551L105.093 91.7079C106 91.911 106.938 91.5379 107.457 90.7662C107.976 89.9945 107.97 88.9851 107.44 88.2224L92.5926 66.7649C92.4722 66.5904 92.3263 66.4475 92.1714 66.3182C94.2985 62.9801 95.547 59.0223 95.547 54.7696C95.547 42.9412 86.0127 33.3181 74.2926 33.3181C62.5741 33.3181 53.0397 42.9397 53.0397 54.7696C53.0397 59.1847 54.3711 63.29 56.6486 66.7048C56.632 66.7258 56.6125 66.7424 56.5974 66.7649L41.7499 88.2224C41.2204 88.9866 41.2144 89.996 41.7333 90.7662C42.2538 91.5379 43.1925 91.911 44.0996 91.7079ZM100.451 86.0472L92.3624 84.2435C91.7637 84.1081 91.1424 84.2224 90.6339 84.5594C90.124 84.8934 89.7705 85.4199 89.6561 86.0201L88.3429 92.8452L79.2704 75.5922C83.1259 74.655 86.5843 72.6754 89.3041 69.936L100.451 86.0472ZM74.2941 37.831C83.5261 37.831 91.0356 45.4293 91.0356 54.7696C91.0356 63.4344 84.5475 70.5874 76.2347 71.5697C75.982 71.5923 75.8285 71.6163 75.6104 71.6314C75.3968 71.6464 75.2012 71.663 74.9696 71.6795C74.7499 71.6885 74.5318 71.6946 74.3107 71.6946C74.0309 71.7021 73.8082 71.6931 73.5615 71.675C73.2772 71.6539 73.0215 71.6389 72.7447 71.6163C64.2393 70.8221 57.5542 63.5743 57.5542 54.7696C57.5542 45.4293 65.0652 37.831 74.2941 37.831ZM59.6572 70.2745C62.4477 72.9567 65.9482 74.8882 69.8534 75.7306L60.8531 92.8452L59.5399 86.0201C59.424 85.4214 59.0705 84.8934 58.5621 84.5594C58.0521 84.2224 57.4263 84.1081 56.8336 84.2435L48.7449 86.0472L59.6572 70.2745Z" fill="white"></path> <path d="M86.2888 118.933H62.9073C61.6603 118.933 60.6509 119.944 60.6509 121.189C60.6509 122.435 61.6603 123.446 62.9073 123.446H86.2888C87.5359 123.446 88.5453 122.435 88.5453 121.189C88.5453 119.944 87.5359 118.933 86.2888 118.933Z" fill="white"></path> </svg> 