<?xml version="1.0" encoding="UTF-8"?> <svg xmlns="http://www.w3.org/2000/svg" width="150" height="150" viewBox="0 0 150 150" fill="none"> <rect width="150" height="150" fill="#242277"></rect> <path d="M54.2179 37.3426H130.79C132.011 37.3426 133 36.3523 133 35.132C133 33.9103 132.011 32.9214 130.79 32.9214H54.2179C52.9962 32.9214 52.0073 33.9103 52.0073 35.132C52.0073 36.3523 52.9977 37.3426 54.2179 37.3426Z" fill="white"></path> <path d="M130.79 72.8938H54.2179C52.9962 72.8938 52.0073 73.8842 52.0073 75.1044C52.0073 76.3262 52.9962 77.3151 54.2179 77.3151H130.79C132.011 77.3151 133 76.3262 133 75.1044C133 73.8842 132.01 72.8938 130.79 72.8938Z" fill="white"></path> <path d="M130.79 112.015H54.2179C52.9962 112.015 52.0073 113.005 52.0073 114.225C52.0073 115.447 52.9962 116.436 54.2179 116.436H130.79C132.011 116.436 133 115.447 133 114.225C133 113.005 132.01 112.015 130.79 112.015Z" fill="white"></path> <path d="M27.8719 24.2615C21.8766 24.2615 17 29.1366 17 35.1289C17 41.1256 21.8781 46.0037 27.8719 46.0037C33.8656 46.0037 38.7437 41.1241 38.7437 35.1289C38.7452 29.1366 33.8671 24.2615 27.8719 24.2615ZM27.8719 41.5825C24.3142 41.5825 21.4213 38.6865 21.4213 35.1289C21.4213 31.5742 24.3157 28.6827 27.8719 28.6827C31.428 28.6827 34.3225 31.5742 34.3225 35.1289C34.3239 38.6865 31.4295 41.5825 27.8719 41.5825Z" fill="white"></path> <path d="M27.8719 64.2314C21.8766 64.2314 17 69.1081 17 75.1018C17 81.0985 21.8781 85.9766 27.8719 85.9766C33.8656 85.9766 38.7437 81.0985 38.7437 75.1018C38.7452 69.1081 33.8671 64.2314 27.8719 64.2314ZM27.8719 81.5554C24.3142 81.5554 21.4213 78.6609 21.4213 75.1018C21.4213 71.5457 24.3157 68.6527 27.8719 68.6527C31.428 68.6527 34.3225 71.5457 34.3225 75.1018C34.3239 78.6609 31.4295 81.5554 27.8719 81.5554Z" fill="white"></path> <path d="M27.8719 103.352C21.8766 103.352 17 108.23 17 114.224C17 120.219 21.8781 125.097 27.8719 125.097C33.8656 125.097 38.7437 120.219 38.7437 114.224C38.7452 108.23 33.8671 103.352 27.8719 103.352ZM27.8719 120.677C24.3142 120.677 21.4213 117.783 21.4213 114.225C21.4213 110.668 24.3157 107.775 27.8719 107.775C31.428 107.775 34.3225 110.669 34.3225 114.225C34.3239 117.783 31.4295 120.677 27.8719 120.677Z" fill="white"></path> </svg> 