<?xml version="1.0" encoding="UTF-8"?> <svg xmlns="http://www.w3.org/2000/svg" width="150" height="150" viewBox="0 0 150 150" fill="none"> <g clip-path="url(#clip0)"> <rect width="150" height="150" fill="#242277"></rect> <path d="M41.3989 106.455C41.3989 113.997 47.5348 120.134 55.078 120.134C62.6212 120.134 68.757 113.997 68.757 106.455C68.757 98.9137 62.6212 92.7764 55.078 92.7764C47.5348 92.7764 41.3989 98.9122 41.3989 106.455ZM64.2608 106.455C64.2608 111.518 60.1407 115.638 55.078 115.638C50.0152 115.638 45.8952 111.518 45.8952 106.455C45.8952 101.393 50.0152 97.2726 55.078 97.2726C60.1407 97.2726 64.2608 101.393 64.2608 106.455Z" fill="white"></path> <path d="M149.307 55.3722C148.381 54.5464 146.962 54.6258 146.133 55.552L113.48 92.1259L96.6698 75.316C95.7915 74.4377 94.3692 74.4377 93.491 75.316C92.6127 76.1943 92.6127 77.6166 93.491 78.4948L111.984 96.9864C112.407 97.409 112.978 97.6443 113.574 97.6443C113.595 97.6443 113.616 97.6443 113.637 97.6428C114.255 97.6248 114.839 97.3551 115.251 96.8934L149.489 58.545C150.314 57.6203 150.233 56.198 149.307 55.3722Z" fill="white"></path> <path d="M114.349 103.266C113.106 103.266 112.101 104.273 112.101 105.514V127.886H32.4962V22.974H112.101V70.0751C112.101 71.3161 113.106 72.3232 114.349 72.3232C115.591 72.3232 116.597 71.3161 116.597 70.0751V20.7259C116.597 19.4849 115.591 18.4778 114.349 18.4778H30.2481C29.0057 18.4778 28 19.4849 28 20.7259V130.134C28 131.375 29.0057 132.382 30.2481 132.382H114.349C115.591 132.382 116.597 131.375 116.597 130.134V105.514C116.597 104.273 115.591 103.266 114.349 103.266Z" fill="white"></path> <path d="M88.0703 48.7899C89.3128 48.7899 90.3185 47.7828 90.3185 46.5418C90.3185 45.3009 89.3128 44.2937 88.0703 44.2937H42.9041C41.6617 44.2937 40.656 45.3009 40.656 46.5418C40.656 47.7828 41.6617 48.7899 42.9041 48.7899H88.0703Z" fill="white"></path> <path d="M90.8704 66.5408C90.8704 65.2999 89.8648 64.2927 88.6223 64.2927H43.4681C42.2256 64.2927 41.22 65.2999 41.22 66.5408C41.22 67.7818 42.2256 68.789 43.4681 68.789H88.6223C89.8648 68.789 90.8704 67.7818 90.8704 66.5408Z" fill="white"></path> </g> <defs> <clipPath id="clip0"> <rect width="150" height="150" fill="white"></rect> </clipPath> </defs> </svg> 