<?xml version="1.0" encoding="UTF-8"?> <svg xmlns="http://www.w3.org/2000/svg" width="150" height="150" viewBox="0 0 150 150" fill="none"> <rect width="150" height="150" fill="#242277"></rect> <path d="M133.272 75.4535C136.643 73.2988 138.859 69.7306 138.859 65.6946C138.859 59.1487 133.013 53.8249 125.828 53.8249H91.1075C92.7489 50.7697 94.4109 45.7631 94.0311 38.308C93.2847 23.025 83.9459 15.0963 78.5449 12.8203C75.3593 11.4784 71.8926 11.797 69.2738 13.6725C66.6447 15.5553 63.677 19.8793 64.4704 29.7902C65.2919 40.0899 52.0889 51.2624 45.6559 56.0629V52.1424C45.6559 50.9305 44.6682 49.9497 43.4478 49.9497H14.2081C12.9878 49.9497 12 50.9305 12 52.1424V131.345C12 132.555 12.9878 133.538 14.2081 133.538H43.4478C44.6682 133.538 45.6559 132.555 45.6559 131.345V127.344C53.979 130.316 77.3834 138.324 88.9495 138.699L112.174 138.86C119.351 138.86 125.189 133.298 125.189 126.463C125.189 123.315 123.946 120.447 121.916 118.256C128.111 117.299 132.86 112.193 132.86 106.037C132.86 102.758 131.504 99.7806 129.311 97.5616C134.809 96.1056 138.86 91.3081 138.86 85.6158C138.859 81.4117 136.645 77.6959 133.272 75.4535ZM16.4162 129.151V54.3336H41.2397V60.21C41.2368 60.2684 41.2382 60.3269 41.2397 60.3854V124.169C41.2382 124.229 41.2353 124.289 41.2397 124.349V129.152H16.4162V129.151ZM125.828 93.6381H114.509C114.505 93.6381 114.5 93.6396 114.494 93.6396H112.174C110.955 93.6396 109.966 94.6219 109.966 95.8323C109.966 97.0426 110.955 98.025 112.174 98.025H119.822C124.575 98.025 128.442 101.619 128.442 106.036C128.442 110.452 124.575 114.045 119.822 114.045H112.204C112.193 114.045 112.185 114.043 112.174 114.043H104.057C102.838 114.043 101.849 115.026 101.849 116.236C101.849 117.446 102.838 118.429 104.057 118.429H112.16C112.164 118.429 112.168 118.43 112.174 118.43H112.204C116.931 118.446 120.771 122.041 120.771 126.461C120.771 130.879 116.914 134.473 112.189 134.473L89.0363 134.314C77.5218 133.938 51.9858 124.963 45.6559 122.677V61.4817C50.4387 58.2146 70.0275 43.9037 68.8719 29.4437C68.3803 23.2969 69.4401 18.9598 71.8558 17.2305C73.8652 15.7936 76.1631 16.5844 76.8211 16.8592C81.2726 18.7361 88.9804 25.4107 89.6208 38.5273C90.2022 49.9263 85.5534 54.1903 85.3753 54.3482C84.6702 54.9446 84.414 55.9123 84.732 56.7762C85.0529 57.6387 85.8787 58.2117 86.8047 58.2117H125.826C130.577 58.2117 134.441 61.5694 134.441 65.6961C134.441 69.8432 130.577 73.2184 125.826 73.2184H116.386C115.167 73.2184 114.178 74.1993 114.178 75.4111C114.178 76.6229 115.167 77.6038 116.386 77.6038H125.826C130.577 77.6038 134.441 81.1969 134.441 85.6158C134.442 90.0378 130.578 93.6381 125.828 93.6381Z" fill="white"></path> </svg> 