<?xml version="1.0" encoding="UTF-8"?> <svg xmlns="http://www.w3.org/2000/svg" width="150" height="150" viewBox="0 0 150 150" fill="none"> <rect width="150" height="150" fill="#242277"></rect> <path d="M125.761 81.6661L92.9404 76.8975L78.2641 47.16C77.9008 46.4219 77.1498 45.9548 76.3252 45.9548C75.5007 45.9548 74.7496 46.4219 74.3863 47.16L59.7115 76.8975L26.8904 81.6661C26.0774 81.7843 25.3999 82.3552 25.1447 83.1379C24.8896 83.9207 25.1029 84.7813 25.6925 85.355L49.439 108.502L43.8343 141.187C43.6945 141.999 44.0289 142.819 44.6949 143.304C45.3624 143.786 46.2446 143.85 46.9726 143.468L76.3238 128.035L105.679 143.468C105.996 143.634 106.341 143.716 106.686 143.716C107.134 143.716 107.579 143.576 107.957 143.304C108.623 142.819 108.956 141.999 108.818 141.187L103.207 108.502L126.956 85.355C127.546 84.7813 127.758 83.9207 127.504 83.1379C127.252 82.3552 126.574 81.7843 125.761 81.6661ZM99.3784 106.198C98.868 106.696 98.6359 107.411 98.7556 108.113L103.817 137.599L77.3329 123.677C76.7015 123.347 75.9504 123.347 75.3205 123.677L48.8408 137.599L53.8963 108.113C54.0159 107.411 53.7838 106.696 53.2735 106.198L31.8522 85.3176L61.4615 81.016C62.165 80.9136 62.7747 80.4711 63.089 79.8339L76.3281 53.0069L89.5687 79.8339C89.8829 80.4711 90.4927 80.9136 91.1962 81.016L120.805 85.3176L99.3784 106.198Z" fill="white"></path> <path d="M39.6151 58.1435C40.4281 58.1435 41.208 57.6822 41.5756 56.8966C42.0816 55.8154 41.613 54.5281 40.5305 54.0222L17.8017 43.4023C16.722 42.8992 15.4332 43.3663 14.9272 44.4474C14.4213 45.5286 14.8898 46.8159 15.9724 47.3219L38.7011 57.9417C38.9967 58.0786 39.308 58.1435 39.6151 58.1435Z" fill="white"></path> <path d="M134.796 44.4455C134.289 43.3643 133 42.8973 131.922 43.4004L109.193 54.0202C108.11 54.5276 107.643 55.8135 108.148 56.8946C108.515 57.6803 109.295 58.1416 110.108 58.1416C110.415 58.1416 110.727 58.0767 111.022 57.9383L133.751 47.3185C134.835 46.8139 135.302 45.5266 134.796 44.4455Z" fill="white"></path> <path d="M76.3267 36.4837C77.5203 36.4837 78.4891 35.515 78.4891 34.3214V9.30635C78.4891 8.11132 77.5203 7.14404 76.3267 7.14404C75.1331 7.14404 74.1644 8.11132 74.1644 9.30635V34.3214C74.1644 35.515 75.1331 36.4837 76.3267 36.4837Z" fill="white"></path> </svg> 