<?xml version="1.0" encoding="UTF-8"?> <svg xmlns="http://www.w3.org/2000/svg" width="142" height="57" viewBox="0 0 142 57" fill="none"> <path d="M20.7441 51.6481V6.01706H36.1556L20.7441 51.6481Z" fill="#D6D6EA"></path> <path d="M1.88829 23.6356C2.49824 23.0211 3.22763 22.538 4.03148 22.2162C4.83533 21.8944 5.69659 21.7407 6.56213 21.7646C7.42987 21.7413 8.29325 21.8952 9.09949 22.2169C9.90573 22.5386 10.6379 23.0214 11.2512 23.6356C11.8689 24.2396 12.3558 24.9641 12.6816 25.7642C13.0075 26.5643 13.1652 27.4229 13.1452 28.2866C13.1652 29.1502 13.0075 30.0088 12.6816 30.8089C12.3558 31.609 11.8689 32.3335 11.2512 32.9375C10.6379 33.5518 9.90573 34.0345 9.09949 34.3562C8.29325 34.6779 7.42987 34.8318 6.56213 34.8086C5.69659 34.8324 4.83533 34.6787 4.03148 34.3569C3.22763 34.0351 2.49824 33.5521 1.88829 32.9375C1.27161 32.3331 0.785903 31.6084 0.461382 30.8082C0.136862 30.0081 -0.0195268 29.1497 0.00194651 28.2866C-0.0195268 27.4234 0.136862 26.565 0.461382 25.7649C0.785903 24.9648 1.27161 24.24 1.88829 23.6356ZM9.40309 25.3692C9.03494 24.9911 8.59242 24.6934 8.10344 24.495C7.61446 24.2965 7.08965 24.2015 6.56213 24.216C6.03461 24.2015 5.5098 24.2965 5.02082 24.495C4.53184 24.6934 4.08932 24.9911 3.72117 25.3692C2.99882 26.1692 2.59895 27.2087 2.59895 28.2866C2.59895 29.3644 2.99882 30.4039 3.72117 31.2039C4.08932 31.582 4.53184 31.8797 5.02082 32.0782C5.5098 32.2766 6.03461 32.3716 6.56213 32.3571C7.0891 32.3726 7.61357 32.2788 8.10252 32.0817C8.59146 31.8845 9.03428 31.5882 9.40309 31.2115C10.1254 30.4116 10.5253 29.372 10.5253 28.2942C10.5253 27.2164 10.1254 26.1768 9.40309 25.3769V25.3692Z" fill="#242277"></path> <path d="M20.6219 21.9784C21.82 21.9195 22.9944 22.3274 23.8981 23.1163C24.3096 23.5169 24.6309 24.0007 24.8403 24.5354C25.0497 25.0701 25.1425 25.6434 25.1124 26.2169C25.1402 26.7984 25.0451 27.3791 24.8332 27.9213C24.6214 28.4635 24.2975 28.9548 23.8829 29.3634C22.9894 30.1618 21.8188 30.5785 20.6219 30.5242H17.9031V34.5947H15.3218V21.9784H20.6219ZM20.5149 28.088C21.0513 28.1242 21.5804 27.9487 21.9889 27.5992C22.164 27.4254 22.3002 27.2164 22.3884 26.986C22.4766 26.7556 22.5148 26.5091 22.5006 26.2627C22.5163 26.0163 22.4788 25.7693 22.3905 25.5387C22.3022 25.3081 22.1652 25.0992 21.9889 24.9263C21.5793 24.5795 21.0502 24.4068 20.5149 24.4451H17.9031V28.088H20.5149Z" fill="#242277"></path> <path d="M35.766 24.4299H29.8702V26.973H35.2772V29.4245H29.8702V32.1432H35.766V34.5947H27.2889V21.9784H35.766V24.4299Z" fill="#242277"></path> <path d="M45.9462 21.9784H48.5275V34.5947H45.549L40.0733 25.7663L40.3024 29.3176V34.5947H37.7288V21.9784H40.6843L46.1829 30.8068L45.9462 27.2632V21.9784Z" fill="#242277"></path> <path d="M61.8616 21.9784C63.058 21.9158 64.2314 22.3243 65.1303 23.1163C65.5418 23.5169 65.863 24.0007 66.0724 24.5354C66.2818 25.0702 66.3746 25.6434 66.3446 26.2169C66.3734 26.7978 66.2794 27.3782 66.0689 27.9204C65.8584 28.4625 65.5359 28.9542 65.1226 29.3634C64.2292 30.1618 63.0586 30.5785 61.8616 30.5242H59.1581V34.5947H56.5845V21.9784H61.8616ZM61.7547 28.088C62.2909 28.1226 62.8194 27.9473 63.2287 27.5992C63.4012 27.4239 63.5352 27.2144 63.622 26.9843C63.7088 26.7541 63.7465 26.5084 63.7327 26.2628C63.748 26.017 63.7109 25.7708 63.624 25.5405C63.5371 25.3101 63.4024 25.1008 63.2287 24.9263C62.8187 24.5803 62.2899 24.4077 61.7547 24.4451H59.1581V28.088H61.7547Z" fill="#242277"></path> <path d="M71.1253 32.1432H76.5399V34.5947H68.5516V21.9784H71.1253V32.1432Z" fill="#242277"></path> <path d="M87.5144 34.5947L86.4528 31.6239H81.3513L80.2669 34.5947H77.5481L82.2678 21.9784H85.5364L90.2637 34.5947H87.5144ZM82.2296 29.1724H85.5364L83.8792 24.5902L82.2296 29.1724Z" fill="#242277"></path> <path d="M95.8081 26.8966C96.5624 27.0456 97.307 27.2394 98.0381 27.477C98.575 27.672 99.0875 27.9283 99.5655 28.2407C99.9991 28.4985 100.347 28.8784 100.566 29.3328C100.777 29.8297 100.879 30.3663 100.864 30.906C100.878 31.5475 100.725 32.1817 100.421 32.7466C100.157 33.2418 99.7638 33.6562 99.283 33.9456C98.8057 34.2304 98.2919 34.4488 97.7556 34.5947C97.2177 34.7389 96.6629 34.8109 96.106 34.8086C94.6941 34.9087 93.296 34.4754 92.1882 33.5943C91.3033 32.8062 90.7427 31.7175 90.615 30.5395H93.1734C93.3091 31.1151 93.6447 31.6239 94.1204 31.9752C94.7139 32.3135 95.3937 32.4702 96.0754 32.4258C96.6506 32.4599 97.2234 32.3273 97.725 32.044C97.9049 31.933 98.0521 31.7763 98.1514 31.5897C98.2507 31.4032 98.2986 31.1936 98.2902 30.9824C98.2959 30.8502 98.2705 30.7184 98.2161 30.5978C98.1618 30.4771 98.0799 30.3708 97.9771 30.2874C97.7535 30.1042 97.493 29.9713 97.2134 29.898C96.9079 29.814 96.3733 29.6918 95.6096 29.5237H95.4721H95.3423L95.1896 29.4856C94.6356 29.3772 94.0896 29.2318 93.5552 29.0503C93.0907 28.8869 92.6472 28.669 92.234 28.4011C91.8185 28.1418 91.4808 27.775 91.2565 27.3396C91.0262 26.8639 90.9111 26.3406 90.9205 25.8122C90.8805 25.2337 90.9886 24.6547 91.2344 24.1295C91.4803 23.6044 91.8558 23.1506 92.3257 22.8108C93.2965 22.1003 94.4757 21.7323 95.6783 21.7646C96.9722 21.6721 98.2549 22.058 99.283 22.849C100.105 23.5777 100.63 24.5836 100.757 25.6747H98.1451C97.8345 24.6564 97.0173 24.1473 95.6936 24.1473C95.117 24.1026 94.5414 24.2445 94.0516 24.5521C93.8818 24.6698 93.7434 24.8275 93.6489 25.0113C93.5543 25.1951 93.5064 25.3993 93.5094 25.606C93.4963 25.7652 93.5335 25.9245 93.6157 26.0615C93.6979 26.1985 93.821 26.3063 93.9676 26.3697C94.5602 26.6115 95.1774 26.7882 95.8081 26.8966Z" fill="#242277"></path> <path d="M111.831 21.9784V24.4299H108.188V34.5947H105.614V24.4299H101.986V21.9784H111.831Z" fill="#242277"></path> <path d="M71.4155 48.0817C72.172 48.2287 72.9191 48.42 73.6532 48.6544C74.1907 48.8478 74.7034 49.1042 75.1806 49.4181C75.6156 49.6741 75.9641 50.0545 76.181 50.5102C76.3869 50.9927 76.4884 51.5132 76.4789 52.0376C76.4893 52.6812 76.337 53.3169 76.0359 53.8858C75.7622 54.3964 75.3559 54.8238 74.8598 55.123C74.3818 55.4062 73.8681 55.6245 73.3324 55.7721C72.7938 55.9127 72.2395 55.9845 71.6828 55.9859C70.2674 56.0859 68.8661 55.6497 67.7574 54.764C66.8726 53.9759 66.3119 52.8873 66.1842 51.7092H68.7808C68.9066 52.2811 69.2347 52.7883 69.7049 53.1373C70.2987 53.4748 70.9783 53.6314 71.6599 53.5879C72.2353 53.6243 72.8087 53.4915 73.3095 53.2061C73.4903 53.0955 73.6385 52.939 73.7391 52.7526C73.8397 52.5661 73.8891 52.3563 73.8823 52.1445C73.8865 52.0117 73.8597 51.8798 73.804 51.7592C73.7483 51.6385 73.6653 51.5325 73.5615 51.4496C73.3375 51.2686 73.077 51.1383 72.7978 51.0677C72.5 50.9761 71.9654 50.8539 71.1941 50.6859H71.0566H70.9344H70.7817C70.2245 50.5811 69.6757 50.4356 69.1397 50.2506C68.6824 50.0667 68.2491 49.8283 67.8491 49.5403C67.4307 49.2788 67.0904 48.9095 66.8639 48.4711C66.6328 47.9957 66.5176 47.4723 66.5279 46.9437C66.5029 46.3698 66.6219 45.7988 66.874 45.2826C67.1261 44.7664 67.5033 44.3214 67.9713 43.9882C68.9465 43.2807 70.1271 42.9132 71.3315 42.942C72.6284 42.8547 73.9125 43.243 74.9438 44.034C75.7536 44.7632 76.2627 45.7679 76.372 46.8521H73.7601C73.4495 45.8338 72.6324 45.3247 71.3086 45.3247C70.7324 45.2838 70.1579 45.4254 69.6667 45.7295C69.4968 45.8472 69.3585 46.0049 69.2639 46.1887C69.1694 46.3725 69.1215 46.5767 69.1244 46.7834C69.1113 46.9426 69.1485 47.1019 69.2307 47.2389C69.3129 47.3759 69.436 47.4837 69.5827 47.5471C70.1713 47.7943 70.7863 47.9737 71.4155 48.0817Z" fill="#242277"></path> <path d="M87.0103 45.6073H81.1145V48.1504H86.5215V50.6019H81.1145V53.3588H87.0103V55.8103H78.5332V43.1558H87.0103V45.6073Z" fill="#242277"></path> <path d="M96.4725 55.7797L93.2115 51.1975H91.7834V55.7797H89.2097V43.1558H94.632C95.2065 43.1234 95.7818 43.2053 96.3245 43.3967C96.8672 43.5881 97.3666 43.8852 97.7937 44.2708C98.183 44.6622 98.486 45.1308 98.6833 45.6464C98.8806 46.162 98.9678 46.7132 98.9393 47.2645C98.9731 48.1521 98.7038 49.0248 98.1756 49.7389C97.6497 50.3976 96.9138 50.8559 96.0907 51.0372L99.6189 55.7797H96.4725ZM91.7834 45.6073V48.9828H94.3418C94.8884 49.0316 95.4335 48.8735 95.8692 48.5399C96.1907 48.2067 96.3704 47.7618 96.3704 47.2989C96.3704 46.8359 96.1907 46.391 95.8692 46.0578C95.4473 45.7311 94.92 45.5707 94.3876 45.6073H91.7834Z" fill="#242277"></path> <path d="M108.852 43.1558H111.579L107.409 55.7798H104.171L100.047 43.1558H102.773L105.828 52.7326L108.852 43.1558Z" fill="#242277"></path> <path d="M113.45 55.7798V43.1558H116.031V55.7798H113.45Z" fill="#242277"></path> <path d="M124.806 55.9936C123.93 56.0236 123.057 55.8769 122.239 55.5625C121.421 55.248 120.675 54.7721 120.045 54.1632C119.415 53.5543 118.914 52.8247 118.572 52.018C118.229 51.2114 118.053 50.3441 118.053 49.4678C118.053 48.5915 118.229 47.7242 118.572 46.9175C118.914 46.1108 119.415 45.3813 120.045 44.7723C120.675 44.1634 121.421 43.6875 122.239 43.3731C123.057 43.0586 123.93 42.912 124.806 42.942C126.205 42.9133 127.574 43.3543 128.693 44.1944C129.78 45.0105 130.558 46.1708 130.9 47.486H128.143C127.863 46.8557 127.4 46.3238 126.814 45.9586C126.052 45.5135 125.165 45.3307 124.289 45.4383C123.413 45.5459 122.597 45.9379 121.965 46.5543C121.265 47.3697 120.881 48.4086 120.881 49.483C120.881 50.5575 121.265 51.5964 121.965 52.4118C122.597 53.0282 123.413 53.4202 124.289 53.5278C125.165 53.6354 126.052 53.4526 126.814 53.0075C127.4 52.6423 127.863 52.1104 128.143 51.4801H130.9C130.556 52.7943 129.778 53.9539 128.693 54.7717C127.57 55.6009 126.202 56.031 124.806 55.9936Z" fill="#242277"></path> <path d="M141.424 45.6073H135.528V48.1504H140.943V50.6019H135.528V53.3588H141.424V55.8103H132.954V43.1558H141.424V45.6073Z" fill="#242277"></path> <path d="M57.7987 16.3423V2H16.6735V16.3423" stroke="#242277" stroke-width="3.5" stroke-miterlimit="10"></path> <path d="M16.6735 40.3148V54.6571H57.7987V40.3148" stroke="#242277" stroke-width="3.5" stroke-miterlimit="10"></path> </svg> 