<?xml version="1.0" encoding="UTF-8"?> <svg xmlns="http://www.w3.org/2000/svg" width="150" height="150" viewBox="0 0 150 150" fill="none"> <rect width="150" height="150" fill="#F6F9FF"></rect> <path d="M27.8845 110.871C26.8765 110.871 26.0605 111.687 26.0605 112.695C26.0605 113.703 26.8765 114.519 27.8845 114.519H121.726C122.734 114.519 123.55 113.703 123.55 112.695C123.55 111.687 122.734 110.871 121.726 110.871H111.546V57.0332H121.726C122.734 57.0332 123.55 56.2173 123.55 55.2093C123.55 54.2013 122.734 53.3853 121.726 53.3853H38.335C38.1718 53.3376 38.0036 53.3037 37.8254 53.3037C37.6471 53.3037 37.4776 53.3376 37.3157 53.3853H27.8845C26.8765 53.3853 26.0605 54.2013 26.0605 55.2093C26.0605 56.2173 26.8765 57.0332 27.8845 57.0332H36.0089V110.871H27.8845ZM64.3514 110.871V57.0332H84.5067V110.871H64.3514ZM107.898 110.871H88.1547V57.0332H107.898V110.871ZM39.6418 57.0332H60.7035V110.871H39.6418V57.0332Z" fill="#242277"></path> <path d="M132.786 125.727H16.824C15.816 125.727 15 126.543 15 127.551C15 128.559 15.816 129.375 16.824 129.375H132.786C133.794 129.375 134.61 128.559 134.61 127.551C134.61 126.543 133.794 125.727 132.786 125.727Z" fill="#242277"></path> <path d="M134.36 53.3702L76.3786 20.2399C75.82 19.9211 75.1321 19.9198 74.5734 20.2374L16.2114 53.3677C15.3351 53.8648 15.0289 54.9782 15.526 55.8545C15.8624 56.447 16.4787 56.7784 17.1139 56.7784C17.419 56.7784 17.7278 56.7018 18.0127 56.5411L75.471 23.923L132.551 56.5373C133.423 57.0345 134.537 56.7344 135.039 55.8582C135.539 54.9845 135.235 53.8711 134.36 53.3702Z" fill="#242277"></path> </svg> 