<?xml version="1.0" encoding="UTF-8"?> <svg xmlns="http://www.w3.org/2000/svg" width="150" height="150" viewBox="0 0 150 150" fill="none"> <rect width="150" height="150" fill="#F6F9FF"></rect> <path d="M127.848 33.8608H103.788L101.538 25.5958C101.379 25.0044 100.975 24.5098 100.432 24.2337C99.8896 23.9575 99.2549 23.9242 98.6892 24.144L73.0558 34.0517C72.7873 33.9302 72.4915 33.8608 72.1785 33.8608H41.3702C40.7858 33.8608 40.2258 34.1009 39.8195 34.5245L20.8342 54.3515C20.4236 54.6768 20.1465 55.1337 20.0503 55.6413C20.0388 55.6933 20.0359 55.7483 20.0287 55.8018C20.0215 55.8712 20.0101 55.9377 20.0086 56.0085C20.0072 56.036 20 56.0635 20 56.091C20 56.0924 20 56.0938 20 56.0967V123.831C20 125.028 20.9635 126 22.1538 126H118.239C119.428 126 120.393 125.028 120.393 123.831V116.329H127.846C129.035 116.329 130 115.358 130 114.161V36.0298C130.001 34.8311 129.037 33.8608 127.848 33.8608ZM104.787 53.9292H33.6538L98.0129 29.0501L104.787 53.9292ZM42.2849 38.1987H62.3283L30.5078 50.4994L42.2849 38.1987ZM116.085 121.662H24.3076V58.2671H116.085V121.662ZM125.694 111.992H120.393V56.0982C120.393 54.8995 119.428 53.9292 118.239 53.9292H109.252L104.968 38.1987H125.692V111.992H125.694Z" fill="#242277"></path> </svg> 