<svg width="16" height="18" viewBox="0 0 16 18" fill="none" xmlns="http://www.w3.org/2000/svg">
<path d="M15.5 13.9998H3C2.77899 13.9998 2.56702 14.0876 2.41074 14.2439C2.25446 14.4002 2.16667 14.6122 2.16667 14.8332C2.16667 15.0542 2.25446 15.2661 2.41074 15.4224C2.56702 15.5787 2.77899 15.6665 3 15.6665H15.5V17.3332H3C2.33696 17.3332 1.70107 17.0698 1.23223 16.6009C0.763392 16.1321 0.5 15.4962 0.5 14.8332V2.33317C0.5 1.89114 0.675595 1.46722 0.988155 1.15466C1.30072 0.842099 1.72464 0.666504 2.16667 0.666504H15.5V13.9998ZM2.16667 12.3748C2.30167 12.3473 2.44083 12.3332 2.58333 12.3332H13.8333V2.33317H2.16667V12.3748ZM11.3333 6.49984H4.66667V4.83317H11.3333V6.49984Z" fill="#7E809F"/>
</svg>
