<svg width="31" height="31" viewBox="0 0 31 31" fill="none" xmlns="http://www.w3.org/2000/svg">
<path d="M15.0032 30.0065C23.2893 30.0065 30.0065 23.2893 30.0065 15.0032C30.0065 6.71718 23.2893 0 15.0032 0C6.76961 0 0.0850757 6.63245 0.000809694 14.8461L0 14.8453V30.0065H14.6874L14.6842 30.0031C14.7902 30.0054 14.8966 30.0065 15.0032 30.0065Z" fill="url(#paint0_linear)"/>
<path fill-rule="evenodd" clip-rule="evenodd" d="M22.5838 14.8452C22.5838 19.0319 19.1898 22.4258 15.0032 22.4258C10.8166 22.4258 7.42261 19.0319 7.42261 14.8452C7.42261 10.6586 10.8166 7.26465 15.0032 7.26465C19.1898 7.26465 22.5838 10.6586 22.5838 14.8452ZM12.6272 19.3315C13.8356 18.0301 15.8987 18.0182 17.1149 19.3123C17.4922 19.7138 17.6301 20.3111 17.1741 20.6204C16.7696 20.8946 16.0701 21.1491 14.8665 21.1491C13.6449 21.1491 12.95 20.887 12.5564 20.608C12.1219 20.3001 12.2648 19.7217 12.6272 19.3315ZM20.4709 14.754C20.9798 15.0875 21.2003 15.721 20.7253 16.9214C20.2504 18.1218 20.1316 18.4219 19.6227 18.5886C18.6049 18.672 18.0112 18.0051 17.4175 16.8381C16.9934 15.671 18.0112 14.9208 18.6897 14.754C18.6897 14.754 19.8772 14.4206 20.4709 14.754ZM9.28107 16.9214C8.8061 15.721 9.02662 15.0875 9.53552 14.754C10.1292 14.4206 11.3167 14.754 11.3167 14.754C11.9952 14.9208 13.013 15.671 12.5889 16.8381C11.9952 18.0051 11.4015 18.672 10.3837 18.5886C9.8748 18.4219 9.75605 18.1218 9.28107 16.9214ZM18.713 12.9101C19.6551 13.1555 20.2499 13.3104 20.3281 12.9499C20.6168 11.619 17.9443 9.02015 15.0038 9.02015C12.0633 9.02015 9.38258 11.6205 9.67948 12.9634C9.75722 13.315 10.3452 13.1608 11.2774 12.9163C12.2231 12.6683 13.523 12.3274 15.0038 12.3274C16.4756 12.3274 17.7688 12.6642 18.713 12.9101Z" fill="white"/>
<defs>
<linearGradient id="paint0_linear" x1="25.7424" y1="4.26408" x2="-7.67183e-07" y2="30.0065" gradientUnits="userSpaceOnUse">
<stop stop-color="#FF6900"/>
<stop offset="0.0001" stop-color="#F77D22"/>
<stop offset="1" stop-color="#E40046"/>
</linearGradient>
</defs>
</svg>
