<svg width="20" height="20" viewBox="0 0 20 20" fill="none" xmlns="http://www.w3.org/2000/svg">
<path fill-rule="evenodd" clip-rule="evenodd" d="M19 11C19 15.6944 15.1944 19.5 10.5 19.5C5.80558 19.5 2 15.6944 2 11C2 6.30558 5.80558 2.5 10.5 2.5C15.1944 2.5 19 6.30558 19 11ZM7.8354 16.0304C9.1904 14.5713 11.5037 14.5579 12.8674 16.0089C13.2905 16.4591 13.4451 17.1289 12.9338 17.4757C12.4803 17.7832 11.6959 18.0685 10.3464 18.0685C8.9766 18.0685 8.19741 17.7746 7.75604 17.4618C7.26881 17.1166 7.42905 16.468 7.8354 16.0304ZM16.6309 10.8978C17.2015 11.2717 17.4488 11.982 16.9162 13.328C16.3836 14.674 16.2505 15.0105 15.6798 15.1975C14.5386 15.2909 13.8729 14.5432 13.2071 13.2346C12.7316 11.926 13.8728 11.0848 14.6337 10.8978C14.6337 10.8978 15.9652 10.5239 16.6309 10.8978ZM4.08381 13.328C3.55123 11.982 3.7985 11.2717 4.36912 10.8978C5.03484 10.5239 6.36632 10.8978 6.36632 10.8978C7.12716 11.0848 8.2684 11.926 7.79288 13.2346C7.12715 14.5432 6.46143 15.2909 5.32018 15.1975C4.74955 15.0105 4.61639 14.674 4.08381 13.328ZM14.6601 8.83015C15.7166 9.1053 16.3835 9.27899 16.4711 8.87476C16.7949 7.38243 13.7983 4.4684 10.5011 4.4684C7.2039 4.4684 4.19809 7.38415 4.531 8.88989C4.61817 9.28414 5.27746 9.11124 6.32272 8.83711C7.38308 8.55901 8.84065 8.17675 10.5011 8.17675C12.1514 8.17675 13.6014 8.5544 14.6601 8.83015Z" fill="white"/>
</svg>
