<svg width="20" height="20" viewBox="0 0 20 20" fill="none" xmlns="http://www.w3.org/2000/svg">
<path fill-rule="evenodd" clip-rule="evenodd" d="M0.833374 9.99967C0.833374 15.0623 4.93743 19.1663 10 19.1663C15.0626 19.1663 19.1667 15.0623 19.1667 9.99967C19.1667 4.93706 15.0626 0.833008 10 0.833008C4.93743 0.833008 0.833374 4.93706 0.833374 9.99967ZM17.5 9.99967C17.5 14.1418 14.1422 17.4997 10 17.4997C5.8579 17.4997 2.50004 14.1418 2.50004 9.99967C2.50004 5.85754 5.8579 2.49967 10 2.49967C14.1422 2.49967 17.5 5.85754 17.5 9.99967ZM6.31812 14.9485L7.0213 10.8486L4.04257 7.94507L8.15908 7.34691L10 3.61672L11.841 7.34691L15.9575 7.94507L12.9788 10.8486L13.682 14.9485L10 13.0128L6.31812 14.9485ZM11.4684 11.9018L10 11.1298L8.53168 11.9018L8.81211 10.2668L7.62418 9.10882L9.26586 8.87027L10 7.38265L10.7342 8.87027L12.3759 9.10882L11.188 10.2668L11.4684 11.9018Z" fill="#7E809F"/>
</svg>
