<svg width="349" height="192" viewBox="0 0 349 192" fill="none" xmlns="http://www.w3.org/2000/svg">
<mask id="mask0" mask-type="alpha" maskUnits="userSpaceOnUse" x="6" y="2" width="343" height="180">
<rect x="6" y="2" width="343" height="180" rx="8" fill="#5E49E2"/>
</mask>
<g mask="url(#mask0)">
<circle cx="57" cy="91" r="109" transform="rotate(90 57 91)" fill="white" fill-opacity="0.22"/>
<circle cx="57" cy="91" r="81" transform="rotate(90 57 91)" fill="white" fill-opacity="0.22"/>
<circle cx="57" cy="91" r="53" transform="rotate(90 57 91)" fill="white" fill-opacity="0.4"/>
<path d="M93.2572 30.4188L23.6086 46.3321C22.4413 46.5987 21.7113 47.7612 21.978 48.9284L42.0746 136.887C42.3413 138.054 43.5037 138.784 44.671 138.517L114.32 122.604C115.487 122.337 116.217 121.175 115.95 120.008L95.8535 32.0493C95.5868 30.8821 94.4244 30.1521 93.2572 30.4188Z" fill="#949DA6"/>
<path d="M95.0622 32.0166L115.248 120.384C115.305 120.636 115.313 120.896 115.269 121.15C115.226 121.404 115.133 121.647 114.995 121.865C114.858 122.083 114.678 122.271 114.468 122.42C114.257 122.568 114.019 122.674 113.767 122.73L43.7157 138.734C43.4645 138.792 43.2044 138.799 42.9505 138.755C42.6965 138.712 42.4536 138.618 42.2357 138.481C42.0178 138.343 41.8292 138.164 41.6807 137.954C41.5322 137.743 41.4266 137.505 41.3702 137.254L21.1865 48.8924C21.1293 48.6412 21.1223 48.3813 21.1658 48.1275C21.2094 47.8737 21.3026 47.6309 21.4401 47.4132C21.5777 47.1955 21.7569 47.007 21.9674 46.8587C22.1779 46.7104 22.4157 46.6051 22.667 46.5489L92.7166 30.5445C92.9678 30.4876 93.2278 30.4808 93.4817 30.5244C93.7356 30.568 93.9783 30.6613 94.1962 30.7987C94.414 30.9362 94.6026 31.1153 94.7512 31.3257C94.8998 31.5361 95.0055 31.7738 95.0622 32.025V32.0166Z" fill="#949DA6"/>
<path d="M92.5116 34.4766L110.174 111.798L104.402 120.985L43.9252 134.801L24.5537 50.0008L92.5116 34.4766Z" fill="white"/>
<path d="M110.174 111.797L104.402 120.985L102.693 113.506L110.174 111.797Z" fill="#E6E6E6"/>
<path d="M34.4924 68.1938L32.2441 58.3505L42.0896 56.1001L44.3379 65.9455L34.4924 68.1938ZM34.2809 59.6216L35.7762 66.1782L42.3328 64.6829L40.8375 58.139L34.2809 59.6216Z" fill="#E6E6E6"/>
<path d="M37.5695 65.2101L35.4629 63.8882L36.0255 62.9915L37.2374 63.7529L40.08 59.2246L40.9768 59.7872L37.5695 65.2101Z" fill="#949DA6"/>
<path d="M63.0923 52.0947L46.0405 55.9907C45.5554 56.1016 45.252 56.5847 45.3628 57.0698C45.4736 57.5549 45.9567 57.8583 46.4418 57.7474L63.4937 53.8515C63.9788 53.7406 64.2822 53.2575 64.1714 52.7724C64.0605 52.2873 63.5774 51.9839 63.0923 52.0947Z" fill="#B8B6BF"/>
<path d="M89.1746 49.5953L46.7924 59.2788C46.3073 59.3896 46.0039 59.8727 46.1148 60.3579C46.2256 60.843 46.7087 61.1464 47.1938 61.0355L89.576 51.3521C90.0611 51.2412 90.3645 50.7581 90.2536 50.273C90.1428 49.7879 89.6597 49.4845 89.1746 49.5953Z" fill="#E6E6E6"/>
<path d="M82.5212 54.504L47.5268 62.4995C47.0417 62.6103 46.7383 63.0935 46.8491 63.5786C46.96 64.0637 47.4431 64.3671 47.9282 64.2562L82.9226 56.2607C83.4077 56.1499 83.7111 55.6668 83.6003 55.1817C83.4894 54.6966 83.0063 54.3932 82.5212 54.504Z" fill="#E6E6E6"/>
<path d="M37.9143 83.1726L35.666 73.3293L45.5093 71.0747L47.7597 80.918L37.9143 83.1726ZM37.7028 74.6026L39.1981 81.1465L45.7441 79.6511L44.2488 73.1072L37.7028 74.6026Z" fill="#E6E6E6"/>
<path d="M40.9923 80.1908L38.8857 78.8668L39.4483 77.9721L40.6581 78.7314L43.5028 74.2031L44.3996 74.7657L40.9923 80.1908Z" fill="#949DA6"/>
<path d="M66.5171 67.0732L49.4653 70.9692C48.9802 71.0801 48.6768 71.5632 48.7876 72.0483C48.8984 72.5334 49.3815 72.8368 49.8667 72.726L66.9185 68.83C67.4036 68.7191 67.707 68.236 67.5962 67.7509C67.4853 67.2658 67.0022 66.9624 66.5171 67.0732Z" fill="#B8B6BF"/>
<path d="M92.5974 64.5758L50.2153 74.2593C49.7302 74.3701 49.4268 74.8532 49.5376 75.3383C49.6484 75.8234 50.1315 76.1268 50.6167 76.016L92.9988 66.3325C93.4839 66.2217 93.7873 65.7386 93.6765 65.2535C93.5657 64.7684 93.0825 64.465 92.5974 64.5758Z" fill="#E6E6E6"/>
<path d="M63.1808 74.6854L50.9497 77.48C50.4645 77.5908 50.1611 78.0739 50.272 78.559C50.3828 79.0441 50.8659 79.3475 51.351 79.2367L63.5822 76.4421C64.0673 76.3313 64.3707 75.8482 64.2598 75.3631C64.149 74.878 63.6659 74.5746 63.1808 74.6854Z" fill="#E6E6E6"/>
<path d="M41.3362 98.1474L39.0879 88.3041L48.9312 86.0537L51.1816 95.9055L41.3362 98.1474ZM41.1141 89.5816L42.6094 96.1276L49.1554 94.6322L47.6601 88.0862L41.1141 89.5816Z" fill="#E6E6E6"/>
<path d="M46.2517 89.3393L43.126 94.3145L44.0214 94.877L47.1472 89.9019L46.2517 89.3393Z" fill="#949DA6"/>
<path d="M42.9286 90.0918L42.3662 90.9873L47.3419 94.1122L47.9043 93.2166L42.9286 90.0918Z" fill="#949DA6"/>
<path d="M69.937 82.0537L52.8852 85.9497C52.4001 86.0605 52.0967 86.5436 52.2075 87.0288C52.3184 87.5139 52.8015 87.8173 53.2866 87.7064L70.3384 83.8104C70.8235 83.6996 71.1269 83.2165 71.0161 82.7314C70.9053 82.2463 70.4221 81.9429 69.937 82.0537Z" fill="#B8B6BF"/>
<path d="M96.0183 79.5563L53.6362 89.2397C53.1511 89.3506 52.8477 89.8337 52.9585 90.3188C53.0693 90.8039 53.5524 91.1073 54.0376 90.9965L96.4197 81.313C96.9048 81.2022 97.2082 80.7191 97.0974 80.234C96.9866 79.7489 96.5034 79.4454 96.0183 79.5563Z" fill="#E6E6E6"/>
<path d="M82.373 86.0595L54.3725 92.457C53.8874 92.5679 53.584 93.051 53.6948 93.5361C53.8057 94.0212 54.2888 94.3246 54.7739 94.2138L82.7744 87.8162C83.2595 87.7054 83.5629 87.2223 83.452 86.7372C83.3412 86.2521 82.8581 85.9487 82.373 86.0595Z" fill="#E6E6E6"/>
<path d="M44.758 113.132L42.5098 103.289L52.3531 101.041L54.6035 110.884L44.758 113.132ZM44.536 104.562L46.0419 111.106L52.5857 109.611L51.0904 103.067L44.536 104.562Z" fill="#E6E6E6"/>
<path d="M49.6726 104.319L46.5469 109.294L47.4423 109.857L50.5681 104.881L49.6726 104.319Z" fill="#949DA6"/>
<path d="M46.3505 105.071L45.7881 105.966L50.7637 109.091L51.3262 108.196L46.3505 105.071Z" fill="#949DA6"/>
<path d="M73.3579 97.0317L56.3061 100.928C55.821 101.039 55.5176 101.522 55.6284 102.007C55.7393 102.492 56.2224 102.795 56.7075 102.684L73.7593 98.7885C74.2444 98.6776 74.5478 98.1945 74.437 97.7094C74.3262 97.2243 73.843 96.9209 73.3579 97.0317Z" fill="#B8B6BF"/>
<path d="M99.4412 94.5343L57.059 104.218C56.5739 104.329 56.2705 104.812 56.3814 105.297C56.4922 105.782 56.9753 106.085 57.4604 105.974L99.8426 96.291C100.328 96.1802 100.631 95.6971 100.52 95.212C100.409 94.7269 99.9263 94.4235 99.4412 94.5343Z" fill="#E6E6E6"/>
<path d="M97.3414 98.4003L57.7944 107.436C57.3093 107.547 57.0059 108.03 57.1167 108.515C57.2275 109 57.7107 109.304 58.1958 109.193L97.7428 100.157C98.2279 100.046 98.5313 99.5631 98.4205 99.078C98.3097 98.5929 97.8265 98.2895 97.3414 98.4003Z" fill="#E6E6E6"/>
<path d="M48.1809 128.113L45.9326 118.268L55.7717 116.02L58.0242 125.854L48.1809 128.113ZM47.9588 119.541L49.4541 126.098L55.998 124.585L54.5027 118.046L47.9588 119.541Z" fill="#E6E6E6"/>
<path d="M51.2579 125.129L49.1514 123.805L49.714 122.91L50.9238 123.671L53.7685 119.141L54.6631 119.706L51.2579 125.129Z" fill="#949DA6"/>
<path d="M76.7818 112.014L59.7299 115.91C59.2448 116.021 58.9414 116.504 59.0523 116.989C59.1631 117.474 59.6462 117.778 60.1313 117.667L77.1831 113.771C77.6682 113.66 77.9717 113.177 77.8608 112.692C77.75 112.207 77.2669 111.903 76.7818 112.014Z" fill="#B8B6BF"/>
<path d="M102.862 109.512L60.4799 119.196C59.9948 119.307 59.6914 119.79 59.8023 120.275C59.9131 120.76 60.3962 121.063 60.8813 120.953L103.263 111.269C103.749 111.158 104.052 110.675 103.941 110.19C103.83 109.705 103.347 109.402 102.862 109.512Z" fill="#E6E6E6"/>
<path d="M96.2107 114.42L61.2163 122.415C60.7311 122.526 60.4277 123.009 60.5386 123.494C60.6494 123.979 61.1325 124.283 61.6176 124.172L96.612 116.176C97.0971 116.065 97.4006 115.582 97.2897 115.097C97.1789 114.612 96.6958 114.309 96.2107 114.42Z" fill="#E6E6E6"/>
<path d="M70.6886 32.1902C70.5898 32.0988 70.4701 32.0329 70.34 31.9982C70.2099 31.9636 70.0733 31.9612 69.942 31.9914L63.1486 33.5417C62.9499 33.5852 62.7423 33.5546 62.5646 33.4557C62.387 33.3567 62.2516 33.1963 62.1841 33.0045C61.7138 31.7478 60.8036 30.7044 59.6223 30.0681C58.441 29.4317 57.0689 29.2456 55.7608 29.5443C54.4526 29.843 53.2973 30.6062 52.5093 31.6921C51.7212 32.7781 51.354 34.1132 51.4757 35.4494C51.4945 35.6503 51.4409 35.8513 51.3246 36.0161C51.2082 36.1809 51.0368 36.2988 50.8412 36.3483L44.5512 37.7844C44.4445 37.8084 44.3437 37.8532 44.2544 37.9164C44.1652 37.9795 44.0894 38.0597 44.0314 38.1524C43.9734 38.245 43.9343 38.3482 43.9164 38.4561C43.8985 38.5639 43.9022 38.6742 43.9272 38.7806L45.5114 45.72C45.8113 47.024 46.616 48.1559 47.7491 48.8675C48.8822 49.5792 50.2512 49.8125 51.5561 49.5165L68.7195 45.5952C70.0224 45.2972 71.1539 44.4945 71.8656 43.3632C72.5773 42.232 72.8113 40.8646 72.516 39.561L70.9319 32.6238C70.8968 32.4579 70.8119 32.3066 70.6886 32.1902ZM56.3551 32.1585C56.9077 32.0322 57.4852 32.0726 58.0148 32.2745C58.5444 32.4765 59.0022 32.831 59.3304 33.2931C59.6585 33.7553 59.8423 34.3044 59.8583 34.8709C59.8744 35.4375 59.7221 35.9961 59.4208 36.4762C59.1194 36.9562 58.6824 37.3361 58.1651 37.5678C57.6479 37.7995 57.0735 37.8726 56.5147 37.7778C55.9558 37.6831 55.4377 37.4248 55.0256 37.0356C54.6136 36.6463 54.3263 36.1437 54.1999 35.5911C54.116 35.2242 54.1052 34.8444 54.1681 34.4733C54.231 34.1022 54.3664 33.7472 54.5665 33.4284C54.7666 33.1096 55.0276 32.8334 55.3345 32.6155C55.6414 32.3976 55.9882 32.2423 56.3551 32.1585Z" fill="#949DA6"/>
<path d="M29.0688 132.149L41.6393 75.4727L41.203 68.3306L40.9417 64.0651L35.485 74.1078L22.9135 130.782L29.0688 132.149Z" fill="#B8B6BF"/>
<path d="M39.7109 75.0368L27.1436 131.713L29.0701 132.141L41.6375 75.464L39.7109 75.0368Z" fill="#B8B6BF"/>
<path d="M35.4814 74.1003L22.9141 130.777L24.8406 131.204L37.408 74.5275L35.4814 74.1003Z" fill="#B8B6BF"/>
<path d="M23.5986 127.729L29.7519 129.093L28.86 133.115C28.6921 133.873 28.2302 134.532 27.5759 134.949C26.9216 135.366 26.1285 135.506 25.3711 135.338L24.9292 135.24C24.1718 135.072 23.5122 134.61 23.0954 133.956C22.6786 133.301 22.5388 132.508 22.7067 131.751L23.5986 127.729Z" fill="#949DA6"/>
<path d="M30.1269 126.896L23.9727 125.524L23.4827 127.723L29.637 129.094L30.1269 126.896Z" fill="#B8B6BF"/>
<path d="M30.241 126.893L28.3145 126.466L27.8268 128.665L29.7534 129.093L30.241 126.893Z" fill="#B8B6BF"/>
<path d="M41.6385 75.4723L40.9409 64.0647L35.4842 74.1074L41.6385 75.4723Z" fill="#B8B6BF"/>
<path d="M41.6391 75.4719L41.2028 68.3298L39.7135 75.0435L41.6391 75.4719Z" fill="#B8B6BF"/>
<path d="M41.2026 68.3299L40.9413 64.0644L38.9003 67.819L41.2026 68.3299Z" fill="#949DA6"/>
</g>
</svg>
