<svg width="349" height="169" viewBox="0 0 349 169" fill="none" xmlns="http://www.w3.org/2000/svg">
<mask id="mask0" mask-type="alpha" maskUnits="userSpaceOnUse" x="6" y="2" width="343" height="157">
<rect x="6" y="2" width="343" height="157" rx="8" fill="#051C2C"/>
</mask>
<g mask="url(#mask0)">
<circle opacity="0.1" cx="45" cy="82" r="107" fill="#A1A0A7"/>
<ellipse opacity="0.18" cx="45" cy="82.5" rx="71" ry="71.5" fill="#A1A0A7"/>
<ellipse opacity="0.3" cx="45" cy="82.5" rx="41" ry="41.5" fill="#A1A0A7"/>
<path d="M69.6841 91.3374C67.6758 91.3374 65.7125 90.7416 64.0429 89.6254C62.3733 88.5092 61.0723 86.9228 60.3046 85.0669C59.5368 83.211 59.3369 81.1691 59.7301 79.1996C60.1233 77.23 61.0919 75.4214 62.5134 74.0025C63.9348 72.5837 65.7452 71.6184 67.7154 71.2289C69.6857 70.8394 71.7272 71.0431 73.5816 71.8142C75.436 72.5854 77.02 73.8893 78.1331 75.5611C79.2462 77.2328 79.8383 79.1972 79.8346 81.2056C79.8296 83.8944 78.758 86.4715 76.8549 88.371C74.9519 90.2706 72.3729 91.3375 69.6841 91.3374ZM69.6841 71.6489C67.7939 71.6482 65.9459 72.208 64.3738 73.2577C62.8018 74.3073 61.5763 75.7996 60.8524 77.5458C60.1285 79.292 59.9388 81.2136 60.3071 83.0677C60.6754 84.9217 61.5853 86.6249 62.9216 87.9618C64.2579 89.2987 65.9607 90.2093 67.8146 90.5783C69.6685 90.9474 71.5902 90.7584 73.3366 90.0352C75.083 89.3119 76.5758 88.087 77.626 86.5154C78.6763 84.9437 79.2368 83.0959 79.2368 81.2056C79.2349 78.6723 78.2279 76.2432 76.4369 74.4515C74.646 72.6599 72.2174 71.6519 69.6841 71.6489Z" fill="#E4E4E4"/>
<path d="M72.1392 108.823V127.398C72.1382 127.558 72.074 127.711 71.9606 127.824C71.8472 127.937 71.6938 128 71.534 128H68.0001C67.8412 127.999 67.6892 127.935 67.5772 127.822C67.4652 127.71 67.4023 127.557 67.4023 127.398V108.823H72.1392Z" fill="#E4E4E4"/>
<path d="M70.576 114.124L69.8654 115.609L70.5873 117.466C70.6067 117.516 70.6168 117.57 70.6173 117.624V121.383C70.6158 121.466 70.5924 121.546 70.5497 121.616L69.0459 123.993V128H68.1699V123.865C68.1691 123.782 68.1927 123.701 68.2376 123.632L69.7414 121.256V117.703L68.9895 115.748C68.9653 115.694 68.9528 115.636 68.9528 115.577C68.9528 115.518 68.9653 115.46 68.9895 115.406L69.7414 113.838V108.823C69.7515 108.715 69.8016 108.614 69.8819 108.541C69.9622 108.468 70.0669 108.427 70.1756 108.427C70.2843 108.427 70.389 108.468 70.4693 108.541C70.5496 108.614 70.5997 108.715 70.6098 108.823V113.936C70.6149 114 70.6033 114.065 70.576 114.124Z" fill="#F2F2F2"/>
<path d="M76.0617 91.42C75.873 90.7114 75.4556 90.0848 74.8745 89.6375C74.2933 89.1902 73.5807 88.9473 72.8474 88.9463H66.6932C65.9598 88.9473 65.2473 89.1902 64.6661 89.6375C64.0849 90.0848 63.6676 90.7114 63.4789 91.42C62.7764 91.4776 62.1213 91.7972 61.6436 92.3153C61.1658 92.8335 60.9004 93.5123 60.8999 94.2171V103.191C60.8999 104.687 61.494 106.121 62.5516 107.179C63.6091 108.236 65.0435 108.83 66.539 108.83H73.009C74.5046 108.83 75.939 108.236 76.9965 107.179C78.054 106.121 78.6482 104.687 78.6482 103.191V94.2171C78.6475 93.5111 78.381 92.8313 77.9017 92.3129C77.4224 91.7946 76.7655 91.4758 76.0617 91.42ZM65.3586 91.42C65.5038 91.1985 65.7018 91.0166 65.9347 90.8906C66.1677 90.7646 66.4283 90.6985 66.6932 90.6982H72.8474C73.1122 90.6985 73.3729 90.7646 73.6058 90.8906C73.8388 91.0166 74.0368 91.1985 74.182 91.42H65.3586Z" fill="#5D6A76"/>
<path d="M74.1762 105.304H65.3604C65.0224 105.304 64.6982 105.17 64.4592 104.931C64.2202 104.692 64.0859 104.368 64.0859 104.03V101.368C64.0859 101.03 64.2202 100.706 64.4592 100.467C64.6982 100.228 65.0224 100.094 65.3604 100.094H74.1762C74.5142 100.094 74.8384 100.228 75.0774 100.467C75.3164 100.706 75.4507 101.03 75.4507 101.368V104.03C75.4507 104.368 75.3164 104.692 75.0774 104.931C74.8384 105.17 74.5142 105.304 74.1762 105.304ZM65.3604 100.383C65.231 100.383 65.103 100.409 64.9835 100.458C64.8639 100.508 64.7554 100.58 64.6639 100.672C64.5724 100.763 64.4999 100.872 64.4504 100.991C64.4009 101.111 64.3754 101.239 64.3754 101.368V104.03C64.3754 104.159 64.4009 104.287 64.4504 104.407C64.4999 104.526 64.5724 104.635 64.6639 104.726C64.7554 104.818 64.8639 104.89 64.9835 104.94C65.103 104.989 65.231 105.015 65.3604 105.015H74.1762C74.4375 105.015 74.688 104.911 74.8727 104.726C75.0574 104.542 75.1612 104.291 75.1612 104.03V101.368C75.1612 101.107 75.0574 100.856 74.8727 100.672C74.688 100.487 74.4375 100.383 74.1762 100.383H65.3604Z" fill="#9FAEC3"/>
<path d="M74.1762 99.0821H65.3604C65.022 99.0811 64.6979 98.946 64.459 98.7064C64.2201 98.4668 64.0859 98.1422 64.0859 97.8039V95.1459C64.0859 94.8076 64.2201 94.483 64.459 94.2434C64.6979 94.0038 65.022 93.8687 65.3604 93.8677H74.1762C74.5146 93.8687 74.8387 94.0038 75.0776 94.2434C75.3165 94.483 75.4507 94.8076 75.4507 95.1459V97.8039C75.4507 98.1422 75.3165 98.4668 75.0776 98.7064C74.8387 98.946 74.5146 99.0811 74.1762 99.0821ZM65.3604 94.1572C65.2307 94.1572 65.1023 94.1828 64.9826 94.2325C64.8628 94.2822 64.7541 94.3551 64.6626 94.447C64.5711 94.5389 64.4986 94.6479 64.4493 94.7678C64.4 94.8878 64.3749 95.0162 64.3754 95.1459V97.8039C64.3749 97.9335 64.4 98.062 64.4493 98.182C64.4986 98.3019 64.5711 98.4109 64.6626 98.5028C64.7541 98.5947 64.8628 98.6676 64.9826 98.7173C65.1023 98.767 65.2307 98.7926 65.3604 98.7926H74.1762C74.3059 98.7926 74.4343 98.767 74.554 98.7173C74.6738 98.6676 74.7825 98.5947 74.8741 98.5028C74.9656 98.4109 75.038 98.3019 75.0873 98.182C75.1366 98.062 75.1617 97.9335 75.1612 97.8039V95.1459C75.1617 95.0162 75.1366 94.8878 75.0873 94.7678C75.038 94.6479 74.9656 94.5389 74.8741 94.447C74.7825 94.3551 74.6738 94.2822 74.554 94.2325C74.4343 94.1828 74.3059 94.1572 74.1762 94.1572H65.3604Z" fill="#9FAEC3"/>
<path d="M65.077 97.0188C65.0579 97.0188 65.039 97.015 65.0214 97.0076C65.0039 97.0001 64.9879 96.9893 64.9746 96.9756C64.9613 96.962 64.9509 96.9458 64.9439 96.928C64.937 96.9102 64.9336 96.8912 64.9341 96.8722V95.3684C64.9341 95.1939 65.0034 95.0265 65.1268 94.9031C65.2502 94.7798 65.4175 94.7104 65.592 94.7104H67.7988C67.8332 94.716 67.8645 94.7336 67.8871 94.7601C67.9096 94.7867 67.922 94.8204 67.922 94.8552C67.922 94.89 67.9096 94.9237 67.8871 94.9502C67.8645 94.9767 67.8332 94.9944 67.7988 94.9999H65.592C65.4923 94.9999 65.3967 95.0395 65.3262 95.11C65.2557 95.1806 65.2161 95.2762 65.2161 95.3759V96.8797C65.2151 96.9163 65.2002 96.9511 65.1743 96.977C65.1484 97.0029 65.1136 97.0178 65.077 97.0188Z" fill="#9FAEC3"/>
<path d="M65.077 103.214C65.0579 103.214 65.039 103.21 65.0214 103.202C65.0039 103.195 64.9879 103.184 64.9746 103.17C64.9613 103.157 64.9509 103.141 64.9439 103.123C64.937 103.105 64.9336 103.086 64.9341 103.067V101.563C64.9341 101.389 65.0034 101.221 65.1268 101.098C65.2502 100.975 65.4175 100.905 65.592 100.905H67.7988C67.8332 100.911 67.8645 100.928 67.8871 100.955C67.9096 100.981 67.922 101.015 67.922 101.05C67.922 101.085 67.9096 101.119 67.8871 101.145C67.8645 101.172 67.8332 101.189 67.7988 101.195H65.592C65.4923 101.195 65.3967 101.234 65.3262 101.305C65.2557 101.375 65.2161 101.471 65.2161 101.571V103.075C65.2151 103.111 65.2002 103.146 65.1743 103.172C65.1484 103.198 65.1136 103.213 65.077 103.214Z" fill="#9FAEC3"/>
<path d="M70.6696 102.601H68.8726C68.7148 102.601 68.5869 102.729 68.5869 102.887V103.958C68.5869 104.116 68.7148 104.244 68.8726 104.244H70.6696C70.8274 104.244 70.9554 104.116 70.9554 103.958V102.887C70.9554 102.729 70.8274 102.601 70.6696 102.601Z" fill="#9FAEC3"/>
<path d="M70.5911 103.116C70.5512 103.116 70.513 103.1 70.4848 103.072C70.4566 103.043 70.4407 103.005 70.4407 102.965V102.236C70.428 102.067 70.3518 101.908 70.2274 101.793C70.1029 101.677 69.9394 101.613 69.7697 101.613C69.5999 101.613 69.4364 101.677 69.3119 101.793C69.1875 101.908 69.1113 102.067 69.0986 102.236V102.965C69.0986 103.005 69.0828 103.043 69.0546 103.072C69.0264 103.1 68.9881 103.116 68.9482 103.116C68.9083 103.116 68.8701 103.1 68.8419 103.072C68.8137 103.043 68.7979 103.005 68.7979 102.965V102.236C68.8132 101.989 68.9223 101.757 69.1029 101.587C69.2834 101.417 69.5219 101.323 69.7697 101.323C70.0174 101.323 70.2559 101.417 70.4365 101.587C70.617 101.757 70.7261 101.989 70.7415 102.236V102.965C70.7415 103.005 70.7256 103.043 70.6974 103.072C70.6692 103.1 70.631 103.116 70.5911 103.116Z" fill="#9FAEC3"/>
<path d="M70.6696 96.251H68.8726C68.7148 96.251 68.5869 96.3789 68.5869 96.5367V97.6081C68.5869 97.7659 68.7148 97.8939 68.8726 97.8939H70.6696C70.8274 97.8939 70.9554 97.7659 70.9554 97.6081V96.5367C70.9554 96.3789 70.8274 96.251 70.6696 96.251Z" fill="#9FAEC3"/>
<path d="M70.5911 96.7624C70.571 96.7624 70.5511 96.7584 70.5326 96.7506C70.5141 96.7428 70.4974 96.7314 70.4834 96.7171C70.4694 96.7027 70.4584 96.6857 70.451 96.667C70.4437 96.6483 70.4402 96.6283 70.4407 96.6083V95.8827C70.4393 95.7036 70.3678 95.5322 70.2414 95.4052C70.1631 95.3286 70.0673 95.2722 69.9623 95.241C69.8572 95.2098 69.7462 95.2047 69.6387 95.2262C69.5313 95.2477 69.4307 95.2951 69.3457 95.3643C69.2608 95.4335 69.194 95.5224 69.1512 95.6233C69.1434 95.6416 69.1321 95.6583 69.1178 95.6722C69.1036 95.6862 69.0867 95.6971 69.0681 95.7045C69.0496 95.7118 69.0297 95.7154 69.0098 95.715C68.9899 95.7146 68.9702 95.7103 68.952 95.7022C68.9337 95.6948 68.9172 95.6839 68.9033 95.6699C68.8893 95.656 68.8784 95.6395 68.871 95.6212C68.8637 95.603 68.86 95.5834 68.8604 95.5638C68.8607 95.5441 68.865 95.5247 68.873 95.5067C68.9566 95.2941 69.1123 95.1176 69.3129 95.0081C69.5134 94.8987 69.7461 94.8633 69.9702 94.9081C70.1942 94.9529 70.3954 95.0751 70.5385 95.2532C70.6815 95.4314 70.7574 95.6542 70.7527 95.8827V96.6083C70.7533 96.6293 70.7495 96.6503 70.7414 96.6697C70.7334 96.6892 70.7214 96.7068 70.7062 96.7213C70.6909 96.7358 70.6728 96.747 70.653 96.7541C70.6332 96.7612 70.6121 96.764 70.5911 96.7624Z" fill="#9FAEC3"/>
<path d="M69.6851 91.3375V90.7473C72.2177 90.7443 74.6457 89.7368 76.4365 87.946C78.2274 86.1551 79.2348 83.727 79.2378 81.1943H79.8167C79.8147 83.8819 78.747 86.459 76.8477 88.3605C74.9484 90.2619 72.3726 91.3325 69.6851 91.3375Z" fill="#E4E4E4"/>
<path d="M88.7487 52.1518C87.9968 53.915 86.8314 55.4789 85.7411 57.0391C83.587 60.1257 81.478 63.2498 79.4554 66.4379C78.5456 67.8703 77.8163 69.3816 77.0644 70.8666C76.8586 70.4454 76.538 70.091 76.1396 69.844C75.9642 69.7342 75.7688 69.6602 75.5648 69.6261C75.3607 69.592 75.1519 69.5985 74.9503 69.6453C74.7488 69.6921 74.5585 69.7783 74.3903 69.8988C74.2221 70.0194 74.0794 70.1719 73.9704 70.3478L73.0155 71.8854C72.8251 72.1928 72.7641 72.563 72.8458 72.9152C72.9275 73.2675 73.1453 73.573 73.4516 73.7652L74.8764 74.6562C74.7787 74.799 74.6772 74.9381 74.5719 75.0772C74.436 75.2606 74.2596 75.41 74.0565 75.514C73.8533 75.6179 73.6289 75.6735 73.4008 75.6764C73.1726 75.6793 72.9468 75.6295 72.7411 75.5307C72.5354 75.432 72.3552 75.2871 72.2147 75.1073C71.1997 73.7802 70.7636 71.7689 70.7598 70.2763C70.7598 67.8966 71.6433 65.5882 72.8501 63.5393C73.8726 61.7949 75.1584 60.1558 75.6095 58.1707C75.9062 56.5346 75.6607 54.8462 74.9102 53.3623C74.7745 53.1387 74.5946 52.945 74.3816 52.793C74.1686 52.6411 73.9269 52.5341 73.6712 52.4785C73.4155 52.4229 73.1512 52.42 72.8944 52.4698C72.6375 52.5196 72.3935 52.6212 72.1771 52.7683C67.9403 55.588 62.5154 57.697 59.3575 61.7009C59.7334 62.1333 63.4289 67.5056 63.7146 68.0319C65.0793 70.5508 66.6395 73.5734 65.8763 76.5284C64.9101 80.2578 63.5756 79.8443 62.2673 78.2164L63.7974 77.4081C64.0167 77.2875 64.1793 77.0849 64.2498 76.8447C64.3202 76.6045 64.2927 76.3461 64.1733 76.1261L63.1319 74.1524C63.0355 73.9699 62.9039 73.8083 62.7449 73.6768C62.5858 73.5453 62.4023 73.4465 62.205 73.3861C62.0076 73.3256 61.8003 73.3048 61.5949 73.3247C61.3894 73.3446 61.1899 73.4048 61.0079 73.502C60.5611 73.737 60.1956 74.1013 59.959 74.5471C59.6244 73.9494 59.3086 73.4193 59.0304 72.9907C57.6808 70.9907 56.1544 69.1184 54.6356 67.2499C53.6732 66.0657 50.2221 63.0844 50.0642 61.6107C49.8988 60.0806 52.9289 58.2798 54.0191 57.0993C54.2108 56.8963 54.395 56.6857 54.5905 56.479C53.2371 57.0629 51.8825 57.6507 50.5266 58.2422C48.8048 58.9941 47.0341 59.7723 45.7145 61.1107C44.7634 62.0693 44.098 63.2649 43.3949 64.419C41.8172 67.0192 40.0146 69.4761 38.0077 71.7613C36.549 73.4193 34.9249 75.0246 32.8949 75.8968C31.5941 76.4532 26.5903 77.2314 26.8083 74.769C26.89 74.4671 27.048 74.1914 27.267 73.9682L28.1542 75.0472C28.3143 75.2417 28.5448 75.3651 28.7955 75.3905C29.0462 75.4159 29.2968 75.3411 29.4926 75.1825L31.3723 73.6411C31.5119 73.5269 31.6275 73.3863 31.7127 73.2273C31.7979 73.0683 31.8509 72.8941 31.8687 72.7147C31.8865 72.5352 31.8688 72.354 31.8165 72.1814C31.7642 72.0088 31.6784 71.8481 31.564 71.7087C31.2517 71.3272 30.8408 71.0386 30.376 70.8741C30.9696 70.3602 31.5285 69.8076 32.049 69.2199C35.0565 65.2875 37.3686 60.8738 39.6957 56.5203C39.9227 56.0286 40.2345 55.5806 40.6167 55.197C41.0128 54.8851 41.4556 54.6377 41.9288 54.4639C42.5679 54.1894 43.1994 53.9075 43.831 53.618C40.4024 53.9338 37.3159 55.8436 34.2783 57.5128C31.0903 59.2572 27.455 60.8249 23.9173 60.0016C23.1316 59.8174 22.1203 59.167 22.0038 58.2572C21.9587 57.8813 22.3196 57.4301 22.9173 56.9113L23.3459 58.1632C23.3861 58.2814 23.4492 58.3904 23.5318 58.4839C23.6144 58.5775 23.7147 58.6538 23.8269 58.7083C23.9391 58.7629 24.0611 58.7946 24.1856 58.8017C24.3102 58.8088 24.435 58.7911 24.5527 58.7497L26.5527 58.0692C26.8827 57.9531 27.1684 57.7374 27.3705 57.4519C27.5725 57.1663 27.6809 56.825 27.6805 56.4752C27.6821 56.2884 27.6516 56.1028 27.5903 55.9263C27.4897 55.6288 27.3313 55.354 27.1242 55.1179C26.9171 54.8817 26.6654 54.6889 26.3835 54.5503C28.1392 53.509 29.8648 52.5916 30.3911 52.2006C31.2431 51.5303 32.1344 50.9113 33.0603 50.3472C34.0289 49.8274 35.034 49.3788 36.0678 49.0051L45.9589 45.1478C44.6957 45.2869 43.4288 45.4561 42.1731 45.6629C38.846 46.2042 35.6919 47.708 32.3347 48.0614C30.5978 48.2419 28.6204 47.7795 27.5452 46.4937C27.4569 46.3866 27.3934 46.2613 27.3593 46.1268C27.3251 45.9922 27.3212 45.8518 27.3478 45.7156C27.3744 45.5794 27.4309 45.4507 27.5131 45.3389C27.5953 45.2271 27.7013 45.1349 27.8234 45.0689L28.0527 44.9598L28.0715 45.1892C28.0935 45.4394 28.2139 45.6707 28.4064 45.8321C28.5989 45.9936 28.8476 46.072 29.0978 46.0501L31.6166 45.832C31.9334 45.8056 32.2287 45.6611 32.4439 45.4271C32.6591 45.1931 32.7785 44.8867 32.7783 44.5688C32.7783 44.5313 32.7783 44.4899 32.7783 44.4523C32.7484 44.1322 32.6645 43.8195 32.5302 43.5275C33.5678 43.253 34.4362 43.0312 34.7858 42.9071C39.1581 41.347 43.4589 39.674 47.8423 38.1288C51.3123 36.8995 55.4965 37.031 59.177 36.625C61.6582 36.3543 64.1395 36.0611 66.6169 35.7077C67.9582 35.5147 69.2342 35.0048 70.3391 34.2202C71.4441 33.4357 72.3461 32.399 72.9704 31.1963V31.1587L90.2111 33.4482C89.275 39.6627 91.2637 46.3847 88.7487 52.1518Z" fill="#F5F5F5"/>
<path d="M45.9782 45.3067H45.9707V44.9946L45.9782 45.3067Z" fill="#231F20"/>
<path d="M32.7901 44.5692C32.7902 44.8871 32.6709 45.1935 32.4557 45.4275C32.2405 45.6614 31.9452 45.806 31.6284 45.8324L29.1096 46.0505C28.8593 46.0724 28.6106 45.994 28.4181 45.8325C28.2257 45.6711 28.1052 45.4398 28.0832 45.1895L28.0645 44.9602C29.5173 44.3773 31.0098 43.8986 32.5307 43.5278C32.6636 43.8201 32.7463 44.1328 32.775 44.4527C32.7901 44.5053 32.7901 44.5316 32.7901 44.5692Z" fill="#E4E4E4"/>
<g opacity="0.15">
<path opacity="0.15" d="M51.1357 58.0171C51.1357 58.0171 56.1207 53.8065 60.1847 49.7988C58.4303 52.1222 56.5681 54.3604 54.5982 56.5133L51.1357 58.0171Z" fill="#231F20"/>
</g>
<path d="M63.7854 77.416L62.2591 78.2243C61.4033 77.0607 60.6367 75.8341 59.9658 74.555C60.2025 74.1091 60.568 73.7449 61.0147 73.5098C61.1968 73.4127 61.3963 73.3524 61.6017 73.3325C61.8071 73.3126 62.0145 73.3335 62.2118 73.3939C62.4092 73.4543 62.5926 73.5531 62.7517 73.6846C62.9108 73.8161 63.0423 73.9778 63.1388 74.1602L64.1801 76.134C64.239 76.2439 64.2756 76.3645 64.2876 76.4886C64.2996 76.6128 64.2869 76.7381 64.2502 76.8573C64.2135 76.9766 64.1535 77.0873 64.0737 77.1832C63.994 77.2791 63.8959 77.3582 63.7854 77.416Z" fill="#E4E4E4"/>
<path d="M77.0572 70.8706C76.4199 72.1859 75.6886 73.4536 74.8692 74.6639L73.4444 73.7729C73.1381 73.5807 72.9203 73.2752 72.8386 72.923C72.7569 72.5708 72.8179 72.2005 73.0083 71.8931L73.9632 70.3555C74.0722 70.1797 74.2149 70.0271 74.3831 69.9065C74.5513 69.786 74.7416 69.6998 74.9431 69.653C75.1447 69.6062 75.3535 69.5997 75.5576 69.6338C75.7617 69.6679 75.957 69.7419 76.1324 69.8517C76.5303 70.0977 76.8508 70.4508 77.0572 70.8706Z" fill="#E4E4E4"/>
<path d="M31.8639 72.5776C31.8639 72.7811 31.8186 72.9821 31.7315 73.1661C31.6444 73.3501 31.5176 73.5125 31.3601 73.6415L29.4804 75.1829C29.2846 75.3415 29.0341 75.4162 28.7834 75.3909C28.5327 75.3655 28.3022 75.2421 28.1421 75.0476L27.2661 73.9686C28.2305 72.8686 29.268 71.8349 30.3714 70.8745C30.8362 71.039 31.247 71.3276 31.5594 71.7091C31.757 71.9554 31.8645 72.2618 31.8639 72.5776Z" fill="#E4E4E4"/>
<g opacity="0.15">
<path opacity="0.15" d="M41.2227 54.1558L43.8317 53.6182C48.5722 51.4373 53.0812 48.7847 57.2904 45.7007L41.2227 54.1558Z" fill="#231F20"/>
</g>
<g opacity="0.15">
<path opacity="0.15" d="M51.1361 43.1362L45.9781 45.1476L42.1924 45.6626L51.1361 43.1362Z" fill="#231F20"/>
</g>
<path d="M27.6944 56.4757C27.6947 56.8255 27.5864 57.1667 27.3844 57.4523C27.1823 57.7379 26.8965 57.9536 26.5666 58.0697L24.5666 58.7502C24.4488 58.7916 24.3241 58.8093 24.1995 58.8022C24.0749 58.7951 23.953 58.7633 23.8408 58.7088C23.7285 58.6542 23.6282 58.578 23.5457 58.4844C23.4631 58.3908 23.3999 58.2818 23.3598 58.1637L22.9199 56.9118C24.0117 56.0298 25.1748 55.24 26.3974 54.5508C26.6793 54.6893 26.931 54.8822 27.1381 55.1183C27.3452 55.3545 27.5036 55.6292 27.6042 55.9268C27.6654 56.1032 27.696 56.2889 27.6944 56.4757Z" fill="#E4E4E4"/>
<path d="M92.4539 28.0574L91.7095 33.6478L90.2358 33.4523L72.9951 31.1627L71.4312 30.956L72.1755 25.3618L92.4539 28.0574Z" fill="white"/>
<g opacity="0.15">
<path opacity="0.15" d="M92.4557 28.0579L91.7113 33.6483L90.2376 33.4528L89.2827 33.325L89.9669 27.7271L92.4557 28.0579Z" fill="#231F20"/>
</g>
<path d="M99.7639 -3.54502L95.512 28.4634L92.4556 28.0574L72.1772 25.3618L69.5005 25.0084L73.7486 -7L99.7639 -3.54502Z" fill="#949DA6"/>
<g opacity="0.15">
<path opacity="0.15" d="M99.7634 -3.54497L95.5115 28.4634L92.455 28.0574L89.9663 27.7266L94.0979 -4.29688L99.7634 -3.54497Z" fill="#231F20"/>
</g>
<path d="M75.8496 28.4631C75.8496 28.7316 75.77 28.994 75.6208 29.2171C75.4717 29.4403 75.2598 29.6143 75.0118 29.717C74.7638 29.8197 74.4909 29.8466 74.2276 29.7942C73.9644 29.7419 73.7226 29.6126 73.5328 29.4228C73.343 29.233 73.2137 28.9912 73.1613 28.7279C73.109 28.4646 73.1358 28.1918 73.2386 27.9438C73.3413 27.6958 73.5152 27.4838 73.7384 27.3347C73.9616 27.1856 74.224 27.106 74.4924 27.106C74.6706 27.106 74.8471 27.1411 75.0118 27.2093C75.1764 27.2775 75.326 27.3774 75.4521 27.5035C75.5781 27.6295 75.6781 27.7791 75.7463 27.9438C75.8145 28.1084 75.8496 28.2849 75.8496 28.4631Z" fill="#A7A9AC"/>
</g>
</svg>
