<svg width="30" height="30" viewBox="0 0 30 30" fill="none" xmlns="http://www.w3.org/2000/svg">
<path d="M15.0832 8.01232L8.01232 15.0832L15.0832 22.154L22.154 15.0832L15.0832 8.01232ZM15.6723 6.24399L23.9223 14.494C24.0785 14.6503 24.1663 14.8622 24.1663 15.0832C24.1663 15.3041 24.0785 15.516 23.9223 15.6723L15.6723 23.9223C15.516 24.0785 15.3041 24.1663 15.0832 24.1663C14.8622 24.1663 14.6503 24.0785 14.494 23.9223L6.24399 15.6723C6.08776 15.516 6 15.3041 6 15.0832C6 14.8622 6.08776 14.6503 6.24399 14.494L14.494 6.24399C14.6503 6.08776 14.8622 6 15.0832 6C15.3041 6 15.516 6.08776 15.6723 6.24399ZM15.9165 13.4165V11.3332L18.8332 14.2498L15.9165 17.1665V15.0832H13.4165V17.5832H11.7498V14.2498C11.7498 14.0288 11.8376 13.8168 11.9939 13.6606C12.1502 13.5043 12.3621 13.4165 12.5832 13.4165H15.9165Z" fill="#7E809F"/>
</svg>
