<svg width="19" height="19" viewBox="0 0 19 19" fill="none" xmlns="http://www.w3.org/2000/svg">
<path fill-rule="evenodd" clip-rule="evenodd" d="M8.16658 15.4999C4.1165 15.4999 0.833252 12.2167 0.833252 8.16658C0.833252 4.1165 4.1165 0.833252 8.16658 0.833252C12.2167 0.833252 15.4999 4.1165 15.4999 8.16658C15.4999 9.86411 14.9231 11.4269 13.9549 12.6697C13.9866 12.6941 14.0172 12.7208 14.0463 12.7499L18.2499 16.9535C18.6079 17.3115 18.6079 17.8919 18.2499 18.2499C17.8919 18.6079 17.3115 18.6079 16.9535 18.2499L12.7499 14.0463C12.7208 14.0172 12.6941 13.9866 12.6698 13.9549C11.4269 14.9231 9.86412 15.4999 8.16658 15.4999ZM13.6666 8.1666C13.6666 11.2042 11.2042 13.6666 8.1666 13.6666C5.12903 13.6666 2.6666 11.2042 2.6666 8.1666C2.6666 5.12903 5.12903 2.6666 8.1666 2.6666C11.2042 2.6666 13.6666 5.12903 13.6666 8.1666Z" fill="#122637"/>
</svg>
