<svg width="96" height="96" viewBox="0 0 96 96" fill="none" xmlns="http://www.w3.org/2000/svg">
<path d="M69.6443 33.8593C65.8322 36.9276 64.1481 41.0535 63.0504 45.7042C61.9457 50.3079 59.6411 54.5117 55.5803 57.0902C49.1903 61.0026 41.5346 61.311 34.2705 61.9532C23.6801 62.8924 12.9278 65.142 4.57464 72.1997C4.41268 72.336 4.25074 72.4723 4.08386 72.6129C2.34054 74.1262 0.218949 76.1766 0.0111464 78.6006C-0.0205121 80.1253 -0.0439725 81.4659 0.824228 82.7764C0.91971 82.9234 1.01519 83.0706 1.11357 83.2219C2.08646 84.5942 3.16393 85.3234 4.76216 85.7981C5.29862 85.8457 5.29862 85.8457 5.86693 85.8463C6.08469 85.8474 6.30247 85.8486 6.52684 85.8497C6.76436 85.8489 7.00189 85.8482 7.24663 85.8474C7.50293 85.848 7.7592 85.8487 8.01549 85.8497C8.71867 85.8516 9.42195 85.8512 10.1252 85.8504C10.8842 85.8499 11.6431 85.8516 12.4021 85.8531C13.8891 85.8555 15.3761 85.8557 16.8631 85.8553C18.0728 85.8549 19.2825 85.8553 20.4921 85.8562C20.7504 85.8562 20.7504 85.8562 21.0141 85.8564C21.3639 85.8568 21.7138 85.857 22.0639 85.8572C25.3466 85.8592 28.6296 85.8589 31.9125 85.8577C34.9108 85.8568 37.9093 85.8589 40.9076 85.8624C43.9894 85.866 47.0711 85.8677 50.1527 85.8669C51.8816 85.8666 53.6106 85.8669 55.3393 85.8696C56.8125 85.872 58.2855 85.8722 59.7587 85.8699C60.5091 85.8688 61.2596 85.8686 62.01 85.8709C67.7574 85.8872 67.7574 85.8872 70.3944 85.2317C70.5533 85.1953 70.7119 85.1591 70.8756 85.1218C75.0347 84.1155 78.8166 82.0147 82.0208 79.1878C82.1708 79.0596 82.3209 78.9311 82.4756 78.7991C89.2982 72.8743 91.4719 63.3294 92.2472 54.6639C92.7396 47.9231 92.6366 40.3873 88.0213 34.9926C83.2277 29.9109 75.12 29.7804 69.6443 33.8593Z" fill="#1A1A1A"/>
<path d="M90.4999 13.4986C89.7737 14.1173 89.3567 14.7059 88.9967 15.5928C89.0078 16.1937 89.0078 16.1937 89.079 16.8303C89.1062 18.1496 88.7091 18.84 87.933 19.8311C86.1741 22.0948 83.7126 26.1011 83.9239 29.1098C84.2914 29.3012 84.6593 29.4913 85.0275 29.6809C85.2326 29.787 85.4376 29.893 85.6485 30.0023C86.1784 30.2522 86.1784 30.2522 86.5541 30.2522C86.6093 30.0786 86.6093 30.0786 86.6653 29.9014C87.7382 26.5555 88.9403 23.5315 91.1288 20.7756C91.4393 20.3524 91.4393 20.3524 91.4393 19.9716C91.6253 20.0657 91.6253 20.0657 91.815 20.1619C93.0056 20.266 93.8329 20.1 94.8212 19.4003C95.4966 18.7517 95.9089 18.1369 95.9933 17.1783C96.0238 15.8924 95.9803 15.0996 95.1969 14.0698C93.8205 12.7117 92.1662 12.5919 90.4999 13.4986Z" fill="#1A1A1A"/>
<path d="M75.8497 10.8041C74.8232 11.1375 73.997 11.7533 73.5084 12.6767C73.1972 13.7065 73.0991 14.9831 73.559 15.9813C73.7786 16.2745 73.7786 16.2745 74.2031 16.7414C74.4692 17.3953 74.3704 17.8958 74.2288 18.5729C73.5859 21.9161 73.5182 25.4925 74.409 28.8075C75.4957 28.7443 76.5825 28.6811 77.7022 28.6161C77.6344 28.2013 77.5663 27.7864 77.4964 27.3591C77.0443 24.2093 77.1958 21.025 77.7022 17.8905C77.8217 17.8647 77.9411 17.8387 78.0641 17.8121C79.3402 17.4848 80.0749 17.0207 80.7898 15.9753C81.1744 14.902 81.147 13.733 80.7769 12.6595C79.44 10.9339 78.086 10.5924 75.8497 10.8041Z" fill="#1A1A1A"/>
<path d="M13.6349 47.4967C23.2937 45.1505 32.9524 42.8042 42.9038 40.3867C43.6129 41.355 44.2498 42.2317 44.8466 43.253C44.9788 43.4777 45.111 43.7023 45.2471 43.9338C45.4481 44.2785 45.4481 44.2785 45.6533 44.63C45.9227 45.0905 46.1925 45.5507 46.4629 46.0106C46.5806 46.2125 46.6986 46.4145 46.8199 46.6226C47.1758 47.2207 47.1758 47.2207 47.6121 47.8166C48.0221 48.4237 48.1575 48.9275 48.2848 49.6473C48.5625 49.5547 48.8402 49.4621 49.1263 49.3667C52.5135 48.3311 52.5135 48.3311 54.1688 49.2172C55.6226 50.1635 56.1983 51.2081 56.6014 52.8941C56.9308 54.4297 57.0503 55.4683 56.1973 56.843C55.2261 58.2542 54.6638 58.6995 52.986 59.1131C52.8096 59.157 52.6331 59.2008 52.4514 59.246C51.8574 59.3932 51.2631 59.5387 50.6687 59.6842C50.2438 59.789 49.8191 59.894 49.3943 59.999C48.2381 60.2848 47.0813 60.5687 45.9244 60.852C45.2019 61.0288 44.4793 61.206 43.7571 61.3832C41.4971 61.9372 39.2372 62.4902 36.9767 63.0416C34.3661 63.6783 31.7567 64.3194 29.1482 64.964C27.1326 65.4618 25.1164 65.9555 23.0993 66.4466C21.894 66.74 20.6893 67.035 19.4858 67.3342C18.353 67.6157 17.2193 67.8922 16.0845 68.1652C15.6685 68.2661 15.2529 68.3688 14.8377 68.4733C14.2701 68.616 13.7014 68.7521 13.1321 68.8869C12.8142 68.9649 12.4964 69.0427 12.1689 69.1228C10.6941 69.2595 9.44701 68.6439 8.27052 67.7679C7.06101 66.2792 6.61844 64.2337 6.74044 62.3308C7.24967 61.1492 7.94378 60.0446 8.92321 59.2095C9.6046 59.0242 10.2823 58.854 10.9695 58.6953C11.16 58.6502 11.3506 58.6052 11.5469 58.5587C12.0178 58.4475 12.489 58.338 12.9603 58.2287C12.9153 57.921 12.8704 57.6133 12.8242 57.2964C12.69 56.3769 12.8112 55.5933 12.9793 54.6834C13.1283 53.73 13.1484 52.7705 13.1824 51.8068C13.1963 51.4108 13.2114 51.0148 13.2278 50.6188C13.2338 50.4463 13.2398 50.2738 13.2459 50.0962C13.3223 49.2232 13.4887 48.3605 13.6349 47.4967Z" fill="#FD8200"/>
<path d="M16.1225 32.7682C16.3153 32.7225 16.508 32.6765 16.7066 32.6293C17.0094 32.5556 17.0094 32.5556 17.3182 32.4806C17.9887 32.3178 18.6594 32.157 19.3303 31.9961C19.794 31.884 20.2575 31.7718 20.721 31.6595C21.9437 31.3635 23.1668 31.0691 24.3898 30.7749C25.6369 30.4749 26.8836 30.1732 28.1303 29.8717C30.5784 29.2798 33.0268 28.6897 35.4758 28.1006C36.1269 28.8787 36.7247 29.6118 37.2094 30.5075C37.962 31.8686 38.7909 33.1762 39.6238 34.4874C40.1216 35.372 40.1216 35.372 40.8568 37.3612C32.0306 39.5053 23.2046 41.6493 14.1109 43.8585C14.0499 42.197 14.0063 40.6479 14.1363 39.0086C14.157 38.7288 14.157 38.7288 14.178 38.4435C14.2199 37.884 14.264 37.3245 14.3085 36.7653C14.3464 36.2651 14.3464 36.2651 14.3853 35.7547C14.5938 33.1428 14.5938 33.1428 16.1225 32.7682Z" fill="#FD8200"/>
<path d="M20.4986 10.4341C20.6884 10.3908 20.8783 10.3475 21.0739 10.303C22.3853 10.0447 23.3814 9.98715 24.5753 10.6885C26.8401 12.6214 28.2324 15.5966 29.6428 18.1879C30.6251 19.9789 31.6504 21.7133 32.7788 23.4139C33.1899 24.0497 33.1899 24.0497 33.6836 25.0136C27.5222 26.5104 21.3606 28.0073 15.0122 29.5494C15.1833 27.0032 15.3623 24.4697 15.5868 21.9294C15.6524 21.1412 15.7054 20.3552 15.7461 19.5654C15.7698 19.1248 15.794 18.6842 15.8184 18.2437C15.8333 17.9722 15.848 17.7006 15.8634 17.4209C16.1589 13.0727 16.1589 13.0727 17.954 11.4415C18.7384 10.8705 19.5658 10.6452 20.4986 10.4341Z" fill="#FD8200"/>
</svg>
