<svg width="196" height="235" viewBox="0 0 196 235" fill="none" xmlns="http://www.w3.org/2000/svg">
<mask id="mask0" mask-type="alpha" maskUnits="userSpaceOnUse" x="0" y="0" width="196" height="235">
<rect width="196" height="235" rx="10" fill="#F3B74A"/>
</mask>
<g mask="url(#mask0)">
<g filter="url(#filter0_d)">
<mask id="path-2-outside-1" maskUnits="userSpaceOnUse" x="-493.991" y="-1209.71" width="1192.63" height="2061.24" fill="black">
<rect fill="white" x="-493.991" y="-1209.71" width="1192.63" height="2061.24"/>
<path d="M693.302 650.542L670.285 660.515C669.962 659.658 635.79 574.748 610.538 507.746C597.215 472.395 573.734 472.821 546.546 473.322C528.03 473.655 508.888 473.997 495.945 459.758C486.332 449.171 482.525 433.27 483.956 409.704C486.782 362.977 469.092 359.127 444.601 353.863C434.877 351.754 424.827 349.608 416.657 343.963C406.068 336.663 400.864 325.274 401.19 310.106C401.696 286.179 416.353 268.289 429.274 252.478C437.698 242.187 446.374 231.566 445.747 224.564C445.443 221.167 442.714 217.227 437.638 212.842C430.643 206.799 426.659 207.712 425.353 208.01C412.744 210.901 400.401 238.676 396.337 247.802C383.415 276.882 369.8 293.234 352.225 300.825C335.762 307.912 317.906 306.272 297.242 304.42C283.921 303.214 268.823 301.845 251.241 302.428C235.562 302.955 223.186 318.408 211.212 333.354C202.809 343.835 194.866 353.732 185.141 359.858C172.262 367.931 158.44 367.508 145.104 358.64C130.55 348.978 122.748 337.59 121.911 324.827C120.355 300.9 143.486 281.17 167.989 260.297C185.898 245.026 204.414 229.235 211.034 213.889C223.491 185.018 207.144 169.178 179.441 145.729C168.218 136.228 156.617 126.414 149.05 115.016C139.271 100.242 138.794 86.914 142.124 75.7181C145.454 64.5221 150.347 54.8679 143.571 46.2302C136.795 37.5925 117.08 29.7642 105.667 24.7408C94.2527 19.7174 71.3913 8.83566 51.7622 -1.32656C22.9942 -30.116 5.95003 -67.5996 -7.15913 -99.0806C-19.0991 -127.766 -29.4104 -152.534 -45.9838 -158.74C-67.2844 -166.717 -72.5735 -161.626 -83.1153 -151.483C-91.1056 -143.786 -101.058 -134.209 -118.557 -130.506C-141.194 -125.707 -160.65 -135.569 -168.199 -155.599L-168.312 -155.898C-175.531 -175.456 -169.797 -204.656 -140.157 -222.554C-123.437 -232.645 -93.8684 -228.384 -56.417 -222.983C-28.5129 -218.952 3.11924 -214.399 25.5407 -217.696C33.66 -218.887 39.2864 -223.639 39.8613 -229.795C40.4654 -236.161 35.203 -245.995 18.3478 -252.699C16.2371 -253.538 14.2256 -254.325 12.3056 -255.079C-10.9621 -264.205 -26.3381 -270.229 -31.7925 -299.775C-36.1244 -323.232 -25.8423 -342.859 -14.9537 -363.642C-0.0219288 -392.15 18.5578 -427.626 10.9866 -490.439C6.7729 -525.468 -0.233856 -551.394 -5.85074 -572.212C-15.4861 -607.859 -22.4429 -633.615 3.15344 -657.539C7.72726 -661.821 14.8898 -670.178 11.8112 -678.347L11.726 -678.573C8.88346 -685.674 -1.73165 -692.795 -15.8089 -692.012C-35.3175 -690.933 -60.6015 -676.165 -100.44 -649.303C-112.959 -640.855 -127.788 -640.626 -139.14 -648.704C-152.627 -658.3 -158.383 -677.317 -154.529 -699.581C-152.217 -712.974 -143.988 -719.481 -137.976 -724.229C-132.224 -728.78 -130.556 -730.326 -130.482 -735.545C-130.355 -742.889 -134.041 -758.64 -152.127 -792.036C-161.337 -809.045 -157.949 -825.459 -154.981 -839.935C-152.209 -853.298 -149.835 -864.894 -156.202 -877.39L-162.804 -890.318C-188.93 -941.418 -224.711 -1011.4 -259.133 -1102.73L-235.896 -1112.12C-202.017 -1022.23 -166.642 -953.039 -140.807 -902.518L-134.184 -889.553C-123.432 -868.437 -127.367 -849.346 -130.532 -834.01C-133.304 -820.57 -134.665 -812.582 -130.452 -804.803C-112.951 -772.479 -105.25 -750.874 -105.498 -734.749C-105.762 -716.575 -116.009 -708.471 -122.79 -703.115C-127.753 -699.196 -129.415 -697.652 -129.945 -694.508C-132.31 -680.834 -129.114 -673.103 -125.351 -670.414C-122.388 -668.313 -118.317 -668.703 -114.179 -671.492C-69.8011 -701.42 -42.6633 -716.876 -17.4745 -718.283C5.73934 -719.573 27.2243 -707.325 34.7695 -688.495C37.9863 -680.42 43.0179 -659.35 19.929 -637.778C6.49797 -625.22 8.65691 -614.461 18.2121 -579.064C24.0728 -557.388 31.3571 -530.418 35.8132 -493.383C44.3911 -422.138 22.7774 -380.868 6.99506 -350.739C-2.78117 -332.074 -9.83684 -318.594 -7.24126 -304.468C-4.61571 -290.224 -1.64106 -288.533 20.752 -279.75C22.6971 -279.005 24.76 -278.178 26.9172 -277.313C57.1793 -265.258 66.3027 -243.354 64.7436 -226.869C63.0355 -208.686 48.8079 -194.535 29.341 -191.675C3.49146 -187.873 -28.521 -192.494 -59.4891 -196.956C-85.5919 -200.72 -118.09 -205.42 -127.487 -199.726C-144.519 -189.447 -148.517 -174.593 -145.028 -165.144L-144.988 -165.038C-142.055 -157.254 -134.33 -154.039 -123.84 -156.295C-113.066 -158.582 -107.079 -164.337 -100.156 -171.006C-88.1813 -182.494 -73.3169 -196.818 -37.8485 -183.545C-10.8884 -173.455 1.46208 -143.756 15.7805 -109.374C27.922 -80.2109 41.6871 -47.1431 66.7347 -22.0617C77.6591 -11.1247 95.7621 -4.29691 113.272 2.31914C128.713 9.35424 160.317 20.0815 168.93 40.5538C173.656 51.8066 173.044 64.9099 167.113 79.5499C161.013 94.5106 170.914 104.996 194.978 125.356C208.454 136.746 222.405 148.573 231.356 163.911C233.298 167.226 234.964 170.709 236.335 174.32C242.342 190.258 241.53 207.307 233.863 225.059C224.844 245.943 204.045 263.683 183.93 280.839C173.152 290.03 162.965 298.714 155.797 306.921C148.12 315.7 146.72 320.742 146.895 323.434C147.217 328.416 154.156 333.732 158.254 336.446C167.898 342.834 173.239 339.628 191.989 316.22C205.986 298.75 223.402 277.006 250.104 276.12C269.157 275.485 285.036 276.929 299.046 278.194C338.247 281.747 352.916 283.075 373.669 236.39C384.322 212.428 398.125 187.261 419.707 182.314C427.547 180.516 439.748 180.844 453.372 192.626C463.896 201.713 469.715 211.759 470.668 222.485C472.282 240.535 460.122 255.411 448.351 269.763C437.618 282.892 426.519 296.475 426.204 311.057C425.977 321.572 428.775 323.64 449.304 328.072C462.216 330.86 478.28 334.333 490.638 346.367C504.768 360.126 510.743 381.51 508.907 411.737C507.992 426.745 509.727 437.11 513.901 441.714C519.144 447.485 532.068 447.253 545.738 447.003C560.278 446.737 576.75 446.434 592.479 452.606C611.457 460.068 624.945 475.042 633.738 498.373C658.882 565.09 692.944 649.708 693.302 650.542Z"/>
</mask>
<path d="M693.302 650.542L670.285 660.515C669.962 659.658 635.79 574.748 610.538 507.746C597.215 472.395 573.734 472.821 546.546 473.322C528.03 473.655 508.888 473.997 495.945 459.758C486.332 449.171 482.525 433.27 483.956 409.704C486.782 362.977 469.092 359.127 444.601 353.863C434.877 351.754 424.827 349.608 416.657 343.963C406.068 336.663 400.864 325.274 401.19 310.106C401.696 286.179 416.353 268.289 429.274 252.478C437.698 242.187 446.374 231.566 445.747 224.564C445.443 221.167 442.714 217.227 437.638 212.842C430.643 206.799 426.659 207.712 425.353 208.01C412.744 210.901 400.401 238.676 396.337 247.802C383.415 276.882 369.8 293.234 352.225 300.825C335.762 307.912 317.906 306.272 297.242 304.42C283.921 303.214 268.823 301.845 251.241 302.428C235.562 302.955 223.186 318.408 211.212 333.354C202.809 343.835 194.866 353.732 185.141 359.858C172.262 367.931 158.44 367.508 145.104 358.64C130.55 348.978 122.748 337.59 121.911 324.827C120.355 300.9 143.486 281.17 167.989 260.297C185.898 245.026 204.414 229.235 211.034 213.889C223.491 185.018 207.144 169.178 179.441 145.729C168.218 136.228 156.617 126.414 149.05 115.016C139.271 100.242 138.794 86.914 142.124 75.7181C145.454 64.5221 150.347 54.8679 143.571 46.2302C136.795 37.5925 117.08 29.7642 105.667 24.7408C94.2527 19.7174 71.3913 8.83566 51.7622 -1.32656C22.9942 -30.116 5.95003 -67.5996 -7.15913 -99.0806C-19.0991 -127.766 -29.4104 -152.534 -45.9838 -158.74C-67.2844 -166.717 -72.5735 -161.626 -83.1153 -151.483C-91.1056 -143.786 -101.058 -134.209 -118.557 -130.506C-141.194 -125.707 -160.65 -135.569 -168.199 -155.599L-168.312 -155.898C-175.531 -175.456 -169.797 -204.656 -140.157 -222.554C-123.437 -232.645 -93.8684 -228.384 -56.417 -222.983C-28.5129 -218.952 3.11924 -214.399 25.5407 -217.696C33.66 -218.887 39.2864 -223.639 39.8613 -229.795C40.4654 -236.161 35.203 -245.995 18.3478 -252.699C16.2371 -253.538 14.2256 -254.325 12.3056 -255.079C-10.9621 -264.205 -26.3381 -270.229 -31.7925 -299.775C-36.1244 -323.232 -25.8423 -342.859 -14.9537 -363.642C-0.0219288 -392.15 18.5578 -427.626 10.9866 -490.439C6.7729 -525.468 -0.233856 -551.394 -5.85074 -572.212C-15.4861 -607.859 -22.4429 -633.615 3.15344 -657.539C7.72726 -661.821 14.8898 -670.178 11.8112 -678.347L11.726 -678.573C8.88346 -685.674 -1.73165 -692.795 -15.8089 -692.012C-35.3175 -690.933 -60.6015 -676.165 -100.44 -649.303C-112.959 -640.855 -127.788 -640.626 -139.14 -648.704C-152.627 -658.3 -158.383 -677.317 -154.529 -699.581C-152.217 -712.974 -143.988 -719.481 -137.976 -724.229C-132.224 -728.78 -130.556 -730.326 -130.482 -735.545C-130.355 -742.889 -134.041 -758.64 -152.127 -792.036C-161.337 -809.045 -157.949 -825.459 -154.981 -839.935C-152.209 -853.298 -149.835 -864.894 -156.202 -877.39L-162.804 -890.318C-188.93 -941.418 -224.711 -1011.4 -259.133 -1102.73L-235.896 -1112.12C-202.017 -1022.23 -166.642 -953.039 -140.807 -902.518L-134.184 -889.553C-123.432 -868.437 -127.367 -849.346 -130.532 -834.01C-133.304 -820.57 -134.665 -812.582 -130.452 -804.803C-112.951 -772.479 -105.25 -750.874 -105.498 -734.749C-105.762 -716.575 -116.009 -708.471 -122.79 -703.115C-127.753 -699.196 -129.415 -697.652 -129.945 -694.508C-132.31 -680.834 -129.114 -673.103 -125.351 -670.414C-122.388 -668.313 -118.317 -668.703 -114.179 -671.492C-69.8011 -701.42 -42.6633 -716.876 -17.4745 -718.283C5.73934 -719.573 27.2243 -707.325 34.7695 -688.495C37.9863 -680.42 43.0179 -659.35 19.929 -637.778C6.49797 -625.22 8.65691 -614.461 18.2121 -579.064C24.0728 -557.388 31.3571 -530.418 35.8132 -493.383C44.3911 -422.138 22.7774 -380.868 6.99506 -350.739C-2.78117 -332.074 -9.83684 -318.594 -7.24126 -304.468C-4.61571 -290.224 -1.64106 -288.533 20.752 -279.75C22.6971 -279.005 24.76 -278.178 26.9172 -277.313C57.1793 -265.258 66.3027 -243.354 64.7436 -226.869C63.0355 -208.686 48.8079 -194.535 29.341 -191.675C3.49146 -187.873 -28.521 -192.494 -59.4891 -196.956C-85.5919 -200.72 -118.09 -205.42 -127.487 -199.726C-144.519 -189.447 -148.517 -174.593 -145.028 -165.144L-144.988 -165.038C-142.055 -157.254 -134.33 -154.039 -123.84 -156.295C-113.066 -158.582 -107.079 -164.337 -100.156 -171.006C-88.1813 -182.494 -73.3169 -196.818 -37.8485 -183.545C-10.8884 -173.455 1.46208 -143.756 15.7805 -109.374C27.922 -80.2109 41.6871 -47.1431 66.7347 -22.0617C77.6591 -11.1247 95.7621 -4.29691 113.272 2.31914C128.713 9.35424 160.317 20.0815 168.93 40.5538C173.656 51.8066 173.044 64.9099 167.113 79.5499C161.013 94.5106 170.914 104.996 194.978 125.356C208.454 136.746 222.405 148.573 231.356 163.911C233.298 167.226 234.964 170.709 236.335 174.32C242.342 190.258 241.53 207.307 233.863 225.059C224.844 245.943 204.045 263.683 183.93 280.839C173.152 290.03 162.965 298.714 155.797 306.921C148.12 315.7 146.72 320.742 146.895 323.434C147.217 328.416 154.156 333.732 158.254 336.446C167.898 342.834 173.239 339.628 191.989 316.22C205.986 298.75 223.402 277.006 250.104 276.12C269.157 275.485 285.036 276.929 299.046 278.194C338.247 281.747 352.916 283.075 373.669 236.39C384.322 212.428 398.125 187.261 419.707 182.314C427.547 180.516 439.748 180.844 453.372 192.626C463.896 201.713 469.715 211.759 470.668 222.485C472.282 240.535 460.122 255.411 448.351 269.763C437.618 282.892 426.519 296.475 426.204 311.057C425.977 321.572 428.775 323.64 449.304 328.072C462.216 330.86 478.28 334.333 490.638 346.367C504.768 360.126 510.743 381.51 508.907 411.737C507.992 426.745 509.727 437.11 513.901 441.714C519.144 447.485 532.068 447.253 545.738 447.003C560.278 446.737 576.75 446.434 592.479 452.606C611.457 460.068 624.945 475.042 633.738 498.373C658.882 565.09 692.944 649.708 693.302 650.542Z" fill="#393948"/>
<path d="M693.302 650.542L670.285 660.515C669.962 659.658 635.79 574.748 610.538 507.746C597.215 472.395 573.734 472.821 546.546 473.322C528.03 473.655 508.888 473.997 495.945 459.758C486.332 449.171 482.525 433.27 483.956 409.704C486.782 362.977 469.092 359.127 444.601 353.863C434.877 351.754 424.827 349.608 416.657 343.963C406.068 336.663 400.864 325.274 401.19 310.106C401.696 286.179 416.353 268.289 429.274 252.478C437.698 242.187 446.374 231.566 445.747 224.564C445.443 221.167 442.714 217.227 437.638 212.842C430.643 206.799 426.659 207.712 425.353 208.01C412.744 210.901 400.401 238.676 396.337 247.802C383.415 276.882 369.8 293.234 352.225 300.825C335.762 307.912 317.906 306.272 297.242 304.42C283.921 303.214 268.823 301.845 251.241 302.428C235.562 302.955 223.186 318.408 211.212 333.354C202.809 343.835 194.866 353.732 185.141 359.858C172.262 367.931 158.44 367.508 145.104 358.64C130.55 348.978 122.748 337.59 121.911 324.827C120.355 300.9 143.486 281.17 167.989 260.297C185.898 245.026 204.414 229.235 211.034 213.889C223.491 185.018 207.144 169.178 179.441 145.729C168.218 136.228 156.617 126.414 149.05 115.016C139.271 100.242 138.794 86.914 142.124 75.7181C145.454 64.5221 150.347 54.8679 143.571 46.2302C136.795 37.5925 117.08 29.7642 105.667 24.7408C94.2527 19.7174 71.3913 8.83566 51.7622 -1.32656C22.9942 -30.116 5.95003 -67.5996 -7.15913 -99.0806C-19.0991 -127.766 -29.4104 -152.534 -45.9838 -158.74C-67.2844 -166.717 -72.5735 -161.626 -83.1153 -151.483C-91.1056 -143.786 -101.058 -134.209 -118.557 -130.506C-141.194 -125.707 -160.65 -135.569 -168.199 -155.599L-168.312 -155.898C-175.531 -175.456 -169.797 -204.656 -140.157 -222.554C-123.437 -232.645 -93.8684 -228.384 -56.417 -222.983C-28.5129 -218.952 3.11924 -214.399 25.5407 -217.696C33.66 -218.887 39.2864 -223.639 39.8613 -229.795C40.4654 -236.161 35.203 -245.995 18.3478 -252.699C16.2371 -253.538 14.2256 -254.325 12.3056 -255.079C-10.9621 -264.205 -26.3381 -270.229 -31.7925 -299.775C-36.1244 -323.232 -25.8423 -342.859 -14.9537 -363.642C-0.0219288 -392.15 18.5578 -427.626 10.9866 -490.439C6.7729 -525.468 -0.233856 -551.394 -5.85074 -572.212C-15.4861 -607.859 -22.4429 -633.615 3.15344 -657.539C7.72726 -661.821 14.8898 -670.178 11.8112 -678.347L11.726 -678.573C8.88346 -685.674 -1.73165 -692.795 -15.8089 -692.012C-35.3175 -690.933 -60.6015 -676.165 -100.44 -649.303C-112.959 -640.855 -127.788 -640.626 -139.14 -648.704C-152.627 -658.3 -158.383 -677.317 -154.529 -699.581C-152.217 -712.974 -143.988 -719.481 -137.976 -724.229C-132.224 -728.78 -130.556 -730.326 -130.482 -735.545C-130.355 -742.889 -134.041 -758.64 -152.127 -792.036C-161.337 -809.045 -157.949 -825.459 -154.981 -839.935C-152.209 -853.298 -149.835 -864.894 -156.202 -877.39L-162.804 -890.318C-188.93 -941.418 -224.711 -1011.4 -259.133 -1102.73L-235.896 -1112.12C-202.017 -1022.23 -166.642 -953.039 -140.807 -902.518L-134.184 -889.553C-123.432 -868.437 -127.367 -849.346 -130.532 -834.01C-133.304 -820.57 -134.665 -812.582 -130.452 -804.803C-112.951 -772.479 -105.25 -750.874 -105.498 -734.749C-105.762 -716.575 -116.009 -708.471 -122.79 -703.115C-127.753 -699.196 -129.415 -697.652 -129.945 -694.508C-132.31 -680.834 -129.114 -673.103 -125.351 -670.414C-122.388 -668.313 -118.317 -668.703 -114.179 -671.492C-69.8011 -701.42 -42.6633 -716.876 -17.4745 -718.283C5.73934 -719.573 27.2243 -707.325 34.7695 -688.495C37.9863 -680.42 43.0179 -659.35 19.929 -637.778C6.49797 -625.22 8.65691 -614.461 18.2121 -579.064C24.0728 -557.388 31.3571 -530.418 35.8132 -493.383C44.3911 -422.138 22.7774 -380.868 6.99506 -350.739C-2.78117 -332.074 -9.83684 -318.594 -7.24126 -304.468C-4.61571 -290.224 -1.64106 -288.533 20.752 -279.75C22.6971 -279.005 24.76 -278.178 26.9172 -277.313C57.1793 -265.258 66.3027 -243.354 64.7436 -226.869C63.0355 -208.686 48.8079 -194.535 29.341 -191.675C3.49146 -187.873 -28.521 -192.494 -59.4891 -196.956C-85.5919 -200.72 -118.09 -205.42 -127.487 -199.726C-144.519 -189.447 -148.517 -174.593 -145.028 -165.144L-144.988 -165.038C-142.055 -157.254 -134.33 -154.039 -123.84 -156.295C-113.066 -158.582 -107.079 -164.337 -100.156 -171.006C-88.1813 -182.494 -73.3169 -196.818 -37.8485 -183.545C-10.8884 -173.455 1.46208 -143.756 15.7805 -109.374C27.922 -80.2109 41.6871 -47.1431 66.7347 -22.0617C77.6591 -11.1247 95.7621 -4.29691 113.272 2.31914C128.713 9.35424 160.317 20.0815 168.93 40.5538C173.656 51.8066 173.044 64.9099 167.113 79.5499C161.013 94.5106 170.914 104.996 194.978 125.356C208.454 136.746 222.405 148.573 231.356 163.911C233.298 167.226 234.964 170.709 236.335 174.32C242.342 190.258 241.53 207.307 233.863 225.059C224.844 245.943 204.045 263.683 183.93 280.839C173.152 290.03 162.965 298.714 155.797 306.921C148.12 315.7 146.72 320.742 146.895 323.434C147.217 328.416 154.156 333.732 158.254 336.446C167.898 342.834 173.239 339.628 191.989 316.22C205.986 298.75 223.402 277.006 250.104 276.12C269.157 275.485 285.036 276.929 299.046 278.194C338.247 281.747 352.916 283.075 373.669 236.39C384.322 212.428 398.125 187.261 419.707 182.314C427.547 180.516 439.748 180.844 453.372 192.626C463.896 201.713 469.715 211.759 470.668 222.485C472.282 240.535 460.122 255.411 448.351 269.763C437.618 282.892 426.519 296.475 426.204 311.057C425.977 321.572 428.775 323.64 449.304 328.072C462.216 330.86 478.28 334.333 490.638 346.367C504.768 360.126 510.743 381.51 508.907 411.737C507.992 426.745 509.727 437.11 513.901 441.714C519.144 447.485 532.068 447.253 545.738 447.003C560.278 446.737 576.75 446.434 592.479 452.606C611.457 460.068 624.945 475.042 633.738 498.373C658.882 565.09 692.944 649.708 693.302 650.542Z" stroke="white" stroke-width="6" mask="url(#path-2-outside-1)"/>
<path d="M677.052 641.866L675.808 642.407L672.648 634.501L673.904 633.993L677.052 641.866ZM670.737 626.051L669.481 626.559L666.339 618.645L667.595 618.138L670.737 626.051ZM664.454 610.224L663.198 610.732L660.069 602.813L661.325 602.306L664.454 610.224ZM658.202 594.384L656.946 594.892L653.823 586.971L655.079 586.463L658.202 594.384ZM651.969 578.537L650.713 579.044L647.609 571.116L648.865 570.608L651.969 578.537ZM645.767 562.677L644.511 563.184L641.42 555.25L642.676 554.743L645.767 562.677ZM639.597 546.804L638.341 547.311L635.275 539.367L636.531 538.86L639.597 546.804ZM633.471 530.913L632.214 531.421L629.167 523.469L630.423 522.962L633.471 530.913ZM627.388 515.005L626.132 515.512L623.129 507.543L624.385 507.036L627.388 515.005ZM621.293 499.102L620.057 499.662C618.941 497.007 617.741 494.476 616.476 492.079L617.662 491.386C618.946 493.852 620.174 496.439 621.308 499.142L621.293 499.102ZM613.201 484.197L612.128 484.998C610.552 482.722 608.825 480.566 606.961 478.545L607.927 477.558C609.831 479.639 611.593 481.858 613.201 484.197ZM601.747 471.874L600.951 473.007C598.814 471.32 596.553 469.815 594.19 468.507L594.801 467.25C597.236 468.589 599.565 470.133 601.766 471.867L601.747 471.874ZM587.251 463.826L586.824 465.17C584.292 464.256 581.71 463.51 579.093 462.937L579.36 461.551C582.036 462.135 584.678 462.892 587.27 463.819L587.251 463.826ZM571.293 460.173L571.16 461.588C568.639 461.291 566.006 461.084 563.112 460.952L563.157 459.534C566.067 459.652 568.729 459.862 571.293 460.173ZM555.019 459.371L555.035 460.795C552.322 460.797 549.654 460.842 546.935 460.885L546.891 459.463C549.587 459.415 552.286 459.358 555.014 459.357L555.019 459.371ZM456.592 215.295L455.378 215.915C454.154 213.431 452.627 211.123 450.837 209.049L451.845 208.114C453.714 210.279 455.308 212.689 456.587 215.281L456.592 215.295ZM458.899 223.683C459.112 226.602 458.813 229.53 458.015 232.32L456.715 231.904C457.468 229.273 457.747 226.511 457.538 223.759L458.899 223.683ZM445.856 202.131L445.014 203.237C442.957 201.438 440.733 199.862 438.378 198.533L438.996 197.273C441.425 198.647 443.721 200.27 445.851 202.118L445.856 202.131ZM538.777 459.535L538.802 460.964C535.614 460.974 533.001 460.935 530.654 460.812L530.698 459.394C533.052 459.553 535.617 459.58 538.777 459.535ZM454.782 240.177C453.444 242.654 451.963 245.041 450.347 247.325L449.252 246.474C450.834 244.228 452.281 241.88 453.586 239.443L454.782 240.177ZM431.144 194.278L430.944 195.667C428.36 195.159 425.715 195.171 423.149 195.702L422.862 194.288C425.595 193.749 428.408 193.76 431.153 194.32L431.144 194.278ZM492.824 371.381L492.939 371.686L491.683 372.194L491.578 371.915C490.636 369.398 489.48 366.974 488.124 364.671L489.29 363.924C490.682 366.304 491.868 368.809 492.834 371.407L492.824 371.381ZM495.327 379.943C495.938 382.746 496.403 385.581 496.718 388.434L495.376 388.578C495.064 385.778 494.61 382.996 494.015 380.243L495.327 379.943ZM522.681 458.608L522.486 460.011C519.759 459.605 517.074 458.913 514.471 457.946L514.915 456.611C517.442 457.55 520.046 458.228 522.691 458.635L522.681 458.608ZM484.233 357.052L483.264 358.033C481.411 356.015 479.359 354.209 477.145 352.646L477.89 351.473C480.183 353.094 482.31 354.964 484.233 357.052ZM445.438 254.114C443.728 256.336 441.924 258.519 440.229 260.588L439.195 259.651C440.884 257.584 442.656 255.392 444.391 253.198L445.438 254.114ZM497.392 397.038C497.479 399.765 497.478 402.643 497.392 405.601L496.042 405.534C496.129 402.614 496.125 399.762 496.035 397.066L497.392 397.038ZM415.853 198.657C413.566 200.035 411.428 201.669 409.476 203.529L408.562 202.468C410.58 200.531 412.791 198.827 415.157 197.385L415.853 198.657ZM496.957 414.087C496.846 417.055 496.828 419.909 496.909 422.524L495.555 422.559C495.468 419.87 495.481 416.987 495.601 413.985L496.957 414.087ZM470.672 347.28L470.133 348.577C467.675 347.43 465.152 346.445 462.581 345.628L462.965 344.264C465.579 345.11 468.144 346.121 470.647 347.29L470.672 347.28ZM507.991 452.735L507.174 453.831C504.964 452.056 503.062 449.893 501.552 447.439L502.706 446.66C504.122 448.988 505.911 451.044 507.991 452.735ZM497.615 430.963C497.992 433.741 498.588 436.485 499.396 439.166L498.11 439.593C497.27 436.837 496.656 434.013 496.275 431.152L497.615 430.963ZM434.971 266.99C433.007 269.46 431.371 271.552 429.889 273.535L428.831 272.647C430.32 270.645 431.943 268.558 433.942 266.067L434.971 266.99ZM455.055 342.057L454.767 343.444C452.122 342.799 449.443 342.22 446.86 341.665L446.965 340.964L447.109 340.271C449.676 340.841 452.349 341.406 455.024 342.07L455.055 342.057ZM404.017 209.63C402.424 211.643 400.815 213.901 399.226 216.348L398.101 215.533C399.713 213.052 401.366 210.755 402.977 208.711L404.017 209.63ZM425.104 280.328C423.489 282.802 422.11 285.134 420.887 287.457L419.704 286.757C420.949 284.394 422.349 282.023 423.985 279.51L425.104 280.328ZM439.127 338.483L438.83 339.866C436.164 339.225 433.529 338.444 430.935 337.523L431.362 336.18C433.912 337.089 436.504 337.858 439.127 338.483ZM394.907 223.457C393.633 225.74 392.32 228.229 391.019 230.844L389.816 230.167C391.131 227.531 392.454 225.03 393.742 222.727L394.907 223.457ZM417.478 295.04C416.506 297.631 415.744 300.306 415.203 303.038L413.878 302.732C414.435 299.922 415.219 297.171 416.221 294.508L417.478 295.04ZM424.145 332.66L423.438 333.856C421.046 332.316 418.962 330.297 417.306 327.916L418.399 327.092C419.951 329.318 421.902 331.206 424.14 332.647L424.145 332.66ZM387.412 238.4C386.779 239.774 386.182 241.109 385.607 242.405C385.031 243.701 384.496 244.874 383.945 246.061L382.727 245.42C383.28 244.238 383.832 243.028 384.383 241.79C384.935 240.552 385.537 239.212 386.19 237.769L387.412 238.4ZM414.359 311.322C414.308 314.106 414.587 316.89 415.189 319.611L413.863 319.933C413.235 317.096 412.943 314.194 412.994 311.292L414.359 311.322ZM380.244 253.617C378.898 256.211 377.536 258.682 376.185 260.973L375.031 260.215C376.349 257.953 377.723 255.492 379.051 252.928L380.244 253.617ZM24.27 -682.912C25.2636 -680.159 25.7892 -677.249 25.8226 -674.318L24.4743 -674.324C24.4412 -677.087 23.9443 -679.83 23.0064 -682.424L24.27 -682.912ZM20.1337 -690.508L19.0792 -689.638C17.4148 -691.828 15.4956 -693.791 13.3676 -695.48L14.1851 -696.576C16.3963 -694.819 18.3908 -692.779 20.1211 -690.503L20.1337 -690.508ZM24.5506 -665.731C23.6826 -662.99 22.4945 -660.376 21.0134 -657.95L19.8668 -658.727C21.2929 -661.059 22.4307 -663.576 23.253 -666.217L24.5506 -665.731ZM7.09344 -701.126L6.52812 -699.841C4.10917 -701.047 1.59518 -702.024 -0.983498 -702.76L-0.645383 -704.129C2.00775 -703.372 4.59372 -702.365 7.08085 -701.121L7.09344 -701.126ZM371.695 268.052C370.035 270.444 368.324 272.681 366.615 274.696L365.598 273.744C367.283 271.763 368.967 269.567 370.603 267.207L371.695 268.052ZM16.0034 -651.159C14.8028 -649.794 13.4754 -648.438 12.0626 -647.118C11.4153 -646.512 10.7793 -645.895 10.1772 -645.285L9.23314 -646.311C9.84527 -646.934 10.4838 -647.582 11.1587 -648.191C12.5413 -649.477 13.836 -650.803 15.0065 -652.133L16.0034 -651.159ZM-8.72744 -705.661L-8.83837 -704.247C-11.3969 -704.515 -13.9683 -704.579 -16.5303 -704.437L-16.833 -704.415L-16.9279 -705.838L-16.6228 -705.854C-14.002 -706.008 -11.3711 -705.954 -8.75253 -705.69L-8.72744 -705.661ZM360.842 280.709C358.786 282.577 356.59 284.268 354.273 285.766L353.547 284.529C355.804 283.071 357.944 281.423 359.947 279.601L360.842 280.709ZM4.99218 -639.035C3.44819 -636.805 2.16053 -634.39 1.15554 -631.837L-0.0967215 -632.395C0.948707 -635.048 2.28789 -637.559 3.89335 -639.876L4.99218 -639.035ZM-25.0294 -704.791L-24.7549 -703.372C-27.3818 -702.857 -29.9805 -702.203 -32.5411 -701.412L-32.9412 -702.781C-30.2673 -703.655 -27.6037 -704.325 -25.0608 -704.817L-25.0294 -704.791ZM346.932 289.558L346.668 289.665C344.214 290.651 341.688 291.433 339.112 292.006L338.8 290.601C341.308 290.041 343.769 289.277 346.16 288.316L346.417 288.212L346.932 289.558ZM-0.945625 -623.894C-1.31931 -621.138 -1.44753 -618.348 -1.32855 -615.559L-2.68327 -615.525C-2.80683 -618.393 -2.67724 -621.263 -2.29626 -624.099L-0.945625 -623.894ZM-0.506324 -607.175C-0.125231 -604.628 0.38118 -601.902 1.04288 -598.84L-0.290801 -598.539C-0.958708 -601.636 -1.46885 -604.391 -1.85995 -606.965L-0.506324 -607.175ZM2.99268 -590.575C3.57118 -588.253 4.25348 -585.636 5.13335 -582.342L3.82472 -581.974C2.94235 -585.275 2.26376 -587.901 1.67656 -590.227L2.99268 -590.575ZM7.37576 -574.126C8.09403 -571.478 8.82892 -568.734 9.58044 -565.895L8.26928 -565.534C7.5194 -568.368 6.78535 -571.11 6.06706 -573.758L7.37576 -574.126ZM-40.6379 -700.123L-40.1374 -698.795C-40.4702 -698.66 -40.8093 -698.523 -41.1422 -698.389C-43.2022 -697.557 -45.359 -696.616 -47.5648 -695.595L-48.1219 -696.9C-45.9035 -697.927 -43.7216 -698.877 -41.6428 -699.717C-41.3551 -699.856 -41.016 -699.993 -40.6744 -700.124L-40.6379 -700.123ZM11.7273 -557.626C12.4571 -554.768 13.1016 -552.059 13.7763 -549.347L12.4551 -549.012C11.8043 -551.718 11.1409 -554.42 10.4112 -557.277L11.7273 -557.626ZM330.903 291.825L331.038 293.24C328.514 293.494 325.838 293.573 322.891 293.57L322.878 292.152C325.779 292.15 328.409 292.044 330.903 291.825ZM15.6707 -541.037C16.3014 -538.231 16.9069 -535.414 17.4685 -532.695L16.1323 -532.4C15.5632 -535.139 14.9589 -537.933 14.3358 -540.719L15.6707 -541.037ZM19.137 -524.293C19.6634 -521.514 20.1735 -518.682 20.6472 -515.889L19.2935 -515.64C18.8198 -518.434 18.3085 -521.25 17.7845 -524.022L19.137 -524.293ZM22.0155 -507.458C22.4427 -504.654 22.8549 -501.813 23.2331 -499.004L21.8569 -498.816C21.4837 -501.611 21.0741 -504.445 20.6493 -507.243L22.0155 -507.458ZM24.3001 -490.528C24.6457 -487.691 24.9071 -484.827 25.1436 -482.03L23.795 -481.922C23.5637 -484.705 23.2796 -487.552 22.9541 -490.374L24.3001 -490.528ZM-54.8784 -691.997C-57.1446 -690.829 -59.5517 -689.535 -62.0304 -688.144L-62.6817 -689.411C-60.1879 -690.801 -57.7709 -692.107 -55.492 -693.28L-54.8784 -691.997ZM314.828 291.953L314.775 293.367C312.382 293.24 309.81 293.077 306.672 292.815L306.759 291.395C309.859 291.596 312.424 291.776 314.811 291.906L314.828 291.953ZM25.7157 -473.484C25.8529 -470.624 25.9461 -467.746 25.9753 -464.942L24.627 -464.948C24.5902 -467.734 24.5007 -470.583 24.3308 -473.414L25.7157 -473.484ZM25.9224 -456.403C25.8474 -453.549 25.7196 -450.681 25.5178 -447.876L24.1696 -447.997C24.3537 -450.772 24.489 -453.62 24.5564 -456.456L25.9224 -456.403ZM24.7882 -439.385C24.4722 -436.556 24.1034 -433.714 23.6732 -430.938L22.3427 -431.166C22.7527 -433.918 23.1379 -436.737 23.4463 -439.547L24.7882 -439.385ZM298.654 290.628L298.558 292.044L298.019 291.995C295.569 291.775 293.058 291.543 290.478 291.322L290.574 289.906C293.153 290.126 295.665 290.359 298.114 290.579L298.654 290.628ZM-142.164 -878.476C-141.345 -876.304 -140.678 -874.075 -140.171 -871.805L-141.502 -871.496C-142.001 -873.695 -142.648 -875.855 -143.439 -877.961C-143.627 -878.459 -143.819 -878.97 -144.009 -879.475L-142.771 -880.029C-142.564 -879.5 -142.359 -878.994 -142.164 -878.476ZM-69.091 -684.105C-71.3336 -682.778 -73.678 -681.357 -76.0564 -679.891L-76.7642 -681.135C-74.3758 -682.613 -72.0251 -684.037 -69.7699 -685.369L-69.091 -684.105ZM-146.504 -887.688L-147.703 -887.028L-151.557 -894.585L-150.358 -895.245L-146.504 -887.688ZM-138.99 -863.237C-138.844 -860.363 -138.891 -857.485 -139.131 -854.624L-140.478 -854.761C-140.24 -857.555 -140.194 -860.366 -140.341 -863.173L-138.99 -863.237ZM-154.225 -902.797L-155.421 -902.13L-159.275 -909.687L-158.076 -910.347L-154.225 -902.797ZM-161.924 -917.907L-163.122 -917.246L-166.953 -924.82L-165.753 -925.474L-161.924 -917.907ZM-169.562 -933.048L-170.763 -932.395C-172.017 -934.888 -173.279 -937.419 -174.551 -939.986L-173.35 -940.64C-172.08 -938.077 -170.818 -935.549 -169.565 -933.055L-169.562 -933.048ZM22.1628 -422.599C21.6058 -419.833 20.9773 -417.046 20.2923 -414.313L18.9833 -414.695C19.6632 -417.403 20.2843 -420.172 20.8425 -422.915L22.1628 -422.599ZM-177.118 -948.239L-178.322 -947.592L-182.061 -955.21L-180.855 -955.851L-177.118 -948.239ZM-140.228 -846.131C-140.712 -843.287 -141.291 -840.444 -141.84 -837.773L-143.163 -838.096C-142.615 -840.751 -142.038 -843.578 -141.559 -846.397L-140.228 -846.131ZM-184.564 -963.482L-185.772 -962.848C-186.993 -965.37 -188.219 -967.92 -189.451 -970.499L-188.24 -971.126C-187.001 -968.555 -185.777 -966.009 -184.566 -963.489L-184.564 -963.482ZM-191.895 -978.786L-193.108 -978.166L-196.74 -985.881L-195.524 -986.495C-194.301 -983.892 -193.093 -981.325 -191.897 -978.793L-191.895 -978.786ZM-199.099 -994.157L-200.315 -993.543C-201.497 -996.091 -202.684 -998.672 -203.877 -1001.29L-202.659 -1001.89L-199.099 -994.157ZM-206.155 -1009.6L-207.378 -1009C-208.538 -1011.55 -209.7 -1014.14 -210.865 -1016.78L-209.642 -1017.37C-208.476 -1014.75 -207.314 -1012.16 -206.157 -1009.6L-206.155 -1009.6ZM282.474 289.268L282.402 290.69C279.563 290.49 276.918 290.327 274.321 290.197L274.366 288.779C276.977 288.91 279.628 289.071 282.474 289.268ZM-213.08 -1025.11L-214.308 -1024.53C-215.446 -1027.1 -216.583 -1029.7 -217.72 -1032.33L-216.492 -1032.91C-215.351 -1030.28 -214.213 -1027.68 -213.08 -1025.11ZM-219.844 -1040.7L-221.078 -1040.13C-222.192 -1042.74 -223.302 -1045.35 -224.408 -1047.97L-223.172 -1048.53C-222.063 -1045.89 -220.954 -1043.28 -219.844 -1040.7ZM-226.479 -1056.38L-227.718 -1055.83C-228.807 -1058.45 -229.892 -1061.07 -230.972 -1063.7L-229.731 -1064.24C-228.62 -1061.56 -227.537 -1058.94 -226.464 -1056.34L-226.479 -1056.38ZM-82.9753 -675.611C-85.2076 -674.199 -87.4943 -672.726 -89.8355 -671.194L-90.5684 -672.428C-88.2214 -673.958 -85.9292 -675.435 -83.6919 -676.859L-82.9753 -675.611ZM-232.907 -1072.11L-234.163 -1071.6C-235.227 -1074.24 -236.285 -1076.87 -237.336 -1079.51L-236.08 -1080.01C-235.019 -1077.33 -233.96 -1074.68 -232.905 -1072.07L-232.907 -1072.11ZM18.0615 -406.196C17.2636 -403.532 16.3891 -400.822 15.453 -398.14L14.1843 -398.645C15.1103 -401.315 15.9923 -403.967 16.7727 -406.639L18.0615 -406.196ZM-239.174 -1087.92L-240.43 -1087.41C-241.463 -1090.05 -242.495 -1092.7 -243.515 -1095.34L-242.259 -1095.85C-241.247 -1093.15 -240.226 -1090.49 -239.197 -1087.86L-239.174 -1087.92ZM-143.47 -829.539C-144.051 -826.32 -144.428 -823.673 -144.665 -821.19L-146.008 -821.336C-145.787 -823.859 -145.405 -826.553 -144.818 -829.814L-143.47 -829.539ZM-123.272 -762.14C-122.796 -760.878 -122.328 -759.636 -121.921 -758.423L-123.19 -757.949C-124.058 -760.445 -125.068 -763.105 -126.176 -765.872L-124.932 -766.412C-124.377 -764.9 -123.81 -763.453 -123.294 -762.085L-123.272 -762.14ZM-128.309 -774.239L-129.533 -773.645C-130.638 -776.099 -131.849 -778.678 -133.144 -781.307L-131.935 -781.941C-130.658 -779.243 -129.442 -776.65 -128.332 -774.184L-128.309 -774.239ZM-119.418 -750.282C-118.678 -747.514 -118.102 -744.703 -117.693 -741.865L-119.064 -741.663C-119.452 -744.445 -120.007 -747.201 -120.726 -749.914L-119.418 -750.282ZM-135.735 -789.604L-136.931 -788.937C-138.165 -791.347 -139.509 -793.857 -140.869 -796.43L-139.681 -797.116C-138.311 -794.441 -136.98 -791.91 -135.738 -789.496L-135.735 -789.604ZM-144.743 -812.871C-144.522 -810.098 -143.977 -807.36 -143.118 -804.719L-144.399 -804.278C-145.284 -807.036 -145.846 -809.893 -146.071 -812.786L-144.743 -812.871ZM12.4831 -390.275C11.4794 -387.734 10.3878 -385.12 9.23459 -382.496L8.00505 -383.109C9.15064 -385.715 10.2385 -388.32 11.2371 -390.835L12.4831 -390.275ZM-117.344 -733.259C-117.523 -730.345 -118.224 -727.5 -119.408 -724.873L-120.627 -725.513C-119.519 -727.982 -118.862 -730.653 -118.689 -733.39L-117.344 -733.259ZM225.354 178.796C225.792 179.958 226.192 181.136 226.532 182.307L225.236 182.708C224.439 180.026 223.424 177.417 222.203 174.911L223.412 174.278C224.139 175.767 224.788 177.295 225.354 178.796ZM266.242 288.48L266.237 289.905C263.52 289.84 260.801 289.806 258.153 289.827L258.124 288.408C260.796 288.392 263.519 288.417 266.242 288.48ZM228.215 190.787C228.511 193.662 228.55 196.557 228.333 199.432L226.986 199.296C227.196 196.511 227.158 193.709 226.871 190.925L228.215 190.787ZM219.142 166.866L218.001 167.679C216.448 165.364 214.78 163.136 213.004 161.005L214.021 160.074C215.838 162.243 217.548 164.511 219.142 166.866ZM-96.6606 -666.684C-98.877 -665.217 -101.142 -663.707 -103.457 -662.155L-104.209 -663.382C-101.898 -664.932 -99.6318 -666.445 -97.4086 -667.92L-96.6606 -666.684ZM208.401 153.765L207.463 154.772C205.649 152.895 203.707 150.987 201.517 148.94L202.407 147.884C204.608 149.941 206.581 151.892 208.401 153.765ZM227.01 207.903C226.35 210.68 225.519 213.406 224.52 216.063L223.263 215.531C224.238 212.93 225.051 210.263 225.696 207.546L227.01 207.903ZM5.71 -374.759C4.56338 -372.367 3.34385 -369.9 1.99227 -367.227L0.795401 -367.907C2.14952 -370.573 3.35892 -373.029 4.48293 -375.404L5.71 -374.759ZM-124.376 -717.892C-126.136 -716.205 -127.985 -714.625 -129.916 -713.159L-130.701 -712.535L-131.523 -713.68L-130.735 -714.297C-128.846 -715.734 -127.035 -717.281 -125.31 -718.93L-124.376 -717.892ZM196.187 142.286L195.338 143.394C193.125 141.457 190.898 139.563 189.016 137.967L189.858 136.861C191.743 138.464 193.972 140.365 196.194 142.306L196.187 142.286ZM50.8201 -241.72L49.5839 -241.159C48.483 -243.705 47.0719 -246.094 45.3868 -248.263L46.4361 -249.147C48.1999 -246.878 49.6748 -244.378 50.8225 -241.713L50.8201 -241.72ZM250.009 288.572L250.089 289.994C247.436 290.124 244.807 290.54 242.242 291.235L241.886 289.849C244.541 289.132 247.263 288.704 250.009 288.572ZM53.0131 -233.27C53.2953 -230.356 53.0835 -227.42 52.3875 -224.599L51.0785 -224.981C51.7386 -227.644 51.9363 -230.417 51.6621 -233.168L53.0131 -233.27ZM156.904 42.9502L155.721 43.6503C154.384 41.2439 152.734 39.0433 150.819 37.1137L151.754 36.1007C153.764 38.1231 155.498 40.4288 156.904 42.9502ZM159.791 51.1659C160.285 54.0385 160.383 56.965 160.084 59.8553L158.733 59.6892C159.022 56.927 158.928 54.1296 158.455 51.3842L159.791 51.1659ZM-110.432 -657.737C-110.989 -657.467 -111.566 -657.211 -112.137 -656.98C-114.139 -656.163 -116.235 -655.622 -118.376 -655.37L-118.539 -656.781C-116.514 -657.023 -114.531 -657.536 -112.638 -658.308C-112.091 -658.529 -111.539 -658.752 -111.021 -659.03L-110.432 -657.737ZM40.6044 -255.269L39.7619 -254.164C37.6841 -255.953 35.478 -257.569 33.164 -258.997L33.8397 -260.219C36.2062 -258.762 38.4645 -257.116 40.5943 -255.296L40.6044 -255.269ZM221.093 223.868C219.76 226.351 218.288 228.747 216.684 231.044L215.589 230.194C217.163 227.942 218.607 225.593 219.914 223.159L221.093 223.868ZM183.512 131.505L182.676 132.608C180.16 130.464 178.15 128.72 176.364 127.131L177.219 126.02C178.996 127.606 180.995 129.339 183.502 131.478L183.512 131.505ZM145.299 30.6278L144.556 31.8077C142.313 30.2407 139.988 28.8091 137.592 27.5198L138.202 26.2559C140.643 27.5753 143.013 29.0371 145.301 30.6345L145.299 30.6278ZM-1.83205 -359.767L-3.26536 -357.022C-4.11346 -355.432 -4.91257 -353.885 -5.7079 -352.347L-6.8972 -353.045L-4.45473 -357.72L-3.01514 -360.467L-1.83205 -359.767ZM158.399 68.2495C157.78 70.3682 157.055 72.4493 156.226 74.4842C155.984 75.0716 155.757 75.6606 155.565 76.2819L154.297 75.7608C154.513 75.1611 154.747 74.5538 154.996 73.9479C155.807 71.9674 156.52 69.9425 157.131 67.8816L158.399 68.2495ZM48.9456 -216.72C47.3619 -214.345 45.4311 -212.25 43.2232 -210.513L42.401 -211.657C44.4982 -213.302 46.3312 -215.287 47.8329 -217.54L48.9456 -216.72ZM-136.662 -707.097C-138.439 -705.111 -139.808 -702.762 -140.688 -700.19L-141.964 -700.677C-141.027 -703.428 -139.564 -705.941 -137.663 -708.062L-136.662 -707.097ZM26.4937 -264.177L25.9698 -262.879C24.8267 -263.396 23.6435 -263.905 22.4426 -264.384C21.0631 -264.934 19.7224 -265.464 18.4207 -265.973L18.8743 -267.305C20.1793 -266.799 21.5246 -266.263 22.9112 -265.714C24.1234 -265.224 25.3306 -264.709 26.4937 -264.177ZM171.132 120.353L170.219 121.387C168.025 119.251 166.12 117.251 164.407 115.318L165.393 114.361C167.077 116.275 168.954 118.241 171.125 120.355L171.132 120.353ZM234.785 294.088C232.392 295.289 230.09 296.679 227.9 298.247L227.117 297.033C229.367 295.423 231.732 293.996 234.193 292.766L234.785 294.088ZM130.784 22.5876L130.262 23.8925C128.004 22.8537 125.546 21.8036 122.742 20.6634L123.214 19.3406C126.032 20.4823 128.5 21.5206 130.784 22.5876ZM211.603 237.666C209.931 239.681 208.085 241.773 206.085 243.897L205.119 242.887C207.086 240.792 208.921 238.711 210.573 236.72L211.603 237.666ZM153.616 84.2851C153.298 87.0367 153.363 89.828 153.809 92.5715L152.45 92.8068C151.986 89.9274 151.918 86.9987 152.248 84.1109L153.616 84.2851ZM-126.321 -657.479L-126.674 -656.111C-129.38 -656.922 -131.905 -658.312 -134.089 -660.194L-133.246 -661.3C-131.207 -659.54 -128.849 -658.238 -126.321 -657.479ZM-9.51466 -344.878C-10.8966 -342.093 -12.0533 -339.613 -13.0642 -337.322L-14.2938 -337.935C-13.2803 -340.257 -12.1072 -342.752 -10.7266 -345.559L-9.51466 -344.878ZM160.257 107.781L159.161 108.599C157.542 106.245 156.137 103.738 154.965 101.111L156.193 100.531C157.327 103.075 158.688 105.502 160.257 107.781ZM-142.194 -692.013C-142.486 -689.23 -142.572 -686.424 -142.454 -683.621L-143.804 -683.573C-143.923 -686.451 -143.835 -689.331 -143.541 -692.188L-142.194 -692.013ZM36.0005 -206.309L35.7492 -206.207C33.2732 -205.215 30.6995 -204.506 28.0721 -204.093L27.8352 -205.528C30.3681 -205.928 32.8491 -206.612 35.2362 -207.569L35.4874 -207.67L36.0005 -206.309ZM-138.35 -667.602L-139.528 -666.889C-140.918 -669.426 -141.969 -672.148 -142.649 -674.979L-141.331 -675.32C-140.672 -672.622 -139.661 -670.027 -138.324 -667.612L-138.35 -667.602ZM11.2259 -270.298L10.7635 -268.971C7.58749 -270.236 5.24851 -271.22 3.17307 -272.156L3.69441 -273.461C5.76862 -272.547 8.09881 -271.568 11.251 -270.308L11.2259 -270.298ZM115.566 16.3312L115.115 17.669L109.093 15.3805L107.457 14.7637L107.893 13.4243L109.538 14.0452L115.566 16.3312ZM-16.1219 -329.536C-17.0422 -326.915 -17.8031 -324.234 -18.4001 -321.507L-19.7192 -321.839C-19.1076 -324.622 -18.3319 -327.361 -17.3968 -330.039L-16.1219 -329.536ZM221.57 303.36C219.666 305.086 217.755 306.967 215.77 309.093L214.803 308.083C216.846 305.919 218.783 304.011 220.716 302.266L221.57 303.36ZM200.259 249.81C198.399 251.632 196.433 253.483 194.249 255.482L193.351 254.406C195.5 252.428 197.485 250.571 199.335 248.759L200.259 249.81ZM-3.51993 -277.204L-4.18683 -275.978C-6.60593 -277.411 -8.84579 -279.16 -10.8521 -281.183L-9.91428 -282.189C-7.98315 -280.254 -5.83044 -278.581 -3.50738 -277.209L-3.51993 -277.204ZM-19.5338 -313.243C-19.6826 -310.463 -19.5822 -307.67 -19.2338 -304.901L-20.5748 -304.734C-20.9359 -307.591 -21.0383 -310.473 -20.8807 -313.342L-19.5338 -313.243ZM19.8645 -204.595L19.987 -203.176C17.413 -202.978 14.6773 -202.844 11.8562 -202.783L11.8065 -204.202C14.6163 -204.273 17.3307 -204.406 19.877 -204.6L19.8645 -204.595ZM100.21 10.5134L99.7592 11.8511C96.9107 10.7062 94.4273 9.74291 92.1423 8.80658L92.6222 7.48774C94.9361 8.40475 97.4233 9.39724 100.248 10.4982L100.21 10.5134ZM-17.584 -296.645C-16.8712 -293.947 -15.8861 -291.333 -14.6456 -288.848L-15.8441 -288.188C-17.1297 -290.764 -18.1509 -293.473 -18.8901 -296.27L-17.584 -296.645ZM210.259 315.245C208.702 317.068 207.079 319.04 204.991 321.621L203.954 320.693C206.046 318.103 207.682 316.126 209.246 314.285L210.259 315.245ZM188.113 260.976C186.269 262.594 184.234 264.357 181.89 266.375L181.029 265.262C183.369 263.252 185.398 261.492 187.235 259.877L188.113 260.976ZM85.1424 4.13529L84.6124 5.43618C81.9774 4.20504 79.5193 3.00177 77.2008 1.76527L77.8011 0.497321C80.1097 1.74552 82.5074 2.94246 85.1525 4.16185L85.1424 4.13529ZM3.71629 -204.239L3.70826 -202.82C1.11831 -202.876 -1.61468 -202.965 -4.42292 -203.139L-4.36973 -204.554C-1.56147 -204.38 1.16395 -204.272 3.73883 -204.218L3.71629 -204.239ZM199.78 328.111C198.294 329.928 196.413 332.272 194.5 334.53L193.486 333.569C195.392 331.33 197.29 328.972 198.743 327.183L199.78 328.111ZM175.638 271.733C173.541 273.521 171.449 275.308 169.396 277.078L168.525 275.976C170.584 274.203 172.676 272.417 174.777 270.619L175.638 271.733ZM70.7215 -3.59846L70.0346 -2.38728C67.6847 -3.87354 65.4094 -5.48824 63.2182 -7.22457L64.0356 -8.3201C66.1868 -6.62697 68.4185 -5.05091 70.7215 -3.59846ZM-12.4505 -205.084L-12.5401 -203.671C-15.1085 -203.88 -17.8376 -204.132 -20.6457 -204.421L-20.5285 -205.838C-17.7166 -205.559 -15.0001 -205.302 -12.4317 -205.092L-12.4505 -205.084ZM57.8818 -13.8765L56.949 -12.8568C55.0029 -14.833 53.0732 -16.9001 51.2076 -19.0084L52.1906 -19.9718C54.0574 -17.8794 55.9733 -15.8297 57.9031 -13.8775L57.8818 -13.8765ZM188.954 340.688C187.034 342.699 184.996 344.583 182.852 346.329L182.024 345.187C184.126 343.481 186.124 341.639 188.006 339.67L188.954 340.688ZM46.8249 -26.3747L45.7981 -25.4701C44.067 -27.625 42.3447 -29.8907 40.6827 -32.1883L41.7509 -33.0407C43.4079 -30.7563 45.1163 -28.5081 46.8275 -26.368L46.8249 -26.3747ZM163.225 282.479C160.97 284.485 158.983 286.298 157.142 287.998L156.234 286.934C158.072 285.204 160.069 283.38 162.327 281.365L163.225 282.479ZM36.9885 -39.9552L35.879 -39.1548C34.3601 -41.4567 32.8352 -43.871 31.3466 -46.3229L32.5076 -47.0827C33.9722 -44.6365 35.4583 -42.2296 36.9721 -39.9409L36.9885 -39.9552ZM-28.5724 -206.751L-28.7046 -205.336C-31.2567 -205.636 -33.9756 -205.976 -36.7774 -206.344L-36.63 -207.758C-33.8345 -207.388 -31.1319 -207.072 -28.5724 -206.751ZM28.2327 -54.3549L27.0542 -53.6415C25.7163 -56.0395 24.3609 -58.5606 23.0332 -61.1234L24.2267 -61.7969C25.5682 -59.2549 26.8935 -56.737 28.2264 -54.3523L28.2327 -54.3549ZM20.4092 -69.3531L19.2007 -68.7195C18.0097 -71.1691 16.7875 -73.7592 15.5692 -76.4351L16.7877 -77.0423C18.0161 -74.3782 19.2333 -71.8012 20.4218 -69.3582L20.4092 -69.3531ZM13.3206 -84.7632L12.0921 -84.1826C11.0266 -86.6065 9.92619 -89.1616 8.71809 -92.0023L9.95414 -92.5629C11.1823 -89.7457 12.2702 -87.1855 13.3332 -84.7682L13.3206 -84.7632ZM6.66301 -100.393L5.42447 -99.8391L2.14465 -107.697L3.38317 -108.251L6.66301 -100.393ZM0.0845078 -116.101L-1.15154 -115.54C-2.38466 -118.448 -3.49519 -120.991 -4.53814 -123.355L-3.31212 -123.942C-2.25287 -121.554 -1.14233 -119.011 0.102065 -116.093L0.0845078 -116.101ZM175.875 350.839C175.341 351.055 174.821 351.326 174.3 351.537C172.253 352.377 170.099 352.907 167.903 353.111L167.768 351.696C169.839 351.5 171.869 350.999 173.799 350.208C174.296 350.008 174.804 349.802 175.296 349.55L175.875 350.839ZM-6.86455 -131.659L-8.07554 -131.032C-9.38293 -133.772 -10.6203 -136.248 -11.8591 -138.595L-10.6681 -139.275C-9.40801 -136.891 -8.15935 -134.404 -6.84445 -131.644L-6.86455 -131.659ZM151.244 293.778C149.16 295.929 147.362 297.918 145.707 299.842L144.692 298.897C146.349 296.919 148.18 294.902 150.284 292.728L151.244 293.778ZM-14.8625 -146.679L-16.0235 -145.919C-17.5584 -148.436 -19.1186 -150.791 -20.6628 -152.891L-19.5946 -153.743C-17.9776 -151.603 -16.3986 -149.219 -14.8424 -146.664L-14.8625 -146.679ZM-24.9638 -160.29L-25.9217 -159.298C-27.7961 -161.311 -29.8238 -163.159 -31.9839 -164.823L-31.1928 -165.969C-28.9686 -164.251 -26.8787 -162.346 -24.9438 -160.275L-24.9638 -160.29ZM-44.7163 -208.861L-44.8725 -207.451C-47.5721 -207.83 -50.2583 -208.211 -52.9311 -208.595L-52.7411 -210.011C-50.0733 -209.615 -47.3917 -209.226 -44.6963 -208.846L-44.7163 -208.861ZM160.01 350.851L159.657 352.218C156.998 351.378 154.451 350.177 152.079 348.645L152.764 347.427C155.032 348.893 157.468 350.044 160.01 350.851ZM-38.2596 -170.338L-38.8161 -169.049C-39.8889 -169.573 -40.9931 -170.045 -42.0986 -170.463C-43.5468 -171.003 -44.9799 -171.503 -46.3566 -171.949L-45.9708 -173.306C-44.579 -172.858 -43.1283 -172.35 -41.6626 -171.802C-40.5256 -171.397 -39.3775 -170.904 -38.2696 -170.365L-38.2596 -170.338ZM140.809 306.489C139.293 308.758 137.999 311.183 136.944 313.728L135.693 313.154C136.786 310.522 138.127 308.014 139.696 305.668L140.809 306.489ZM-60.781 -211.125L-60.971 -209.709C-63.6798 -210.099 -66.364 -210.481 -69.0234 -210.856L-68.8359 -212.278L-60.781 -211.125ZM146.161 342.581L145.325 343.684C143.154 341.891 141.155 339.879 139.356 337.677L140.389 336.77C142.121 338.892 144.047 340.831 146.138 342.559L146.161 342.581ZM135.084 321.657C134.925 324.377 135.332 327.109 136.277 329.662L135.021 330.169C134.007 327.422 133.569 324.484 133.737 321.559L135.084 321.657ZM-53.9078 -175.433L-54.148 -174.035C-56.7685 -174.587 -59.4241 -174.917 -62.0889 -175.02L-62.062 -176.447C-59.3339 -176.341 -56.6149 -176.009 -53.9303 -175.455L-53.9078 -175.433ZM-76.8922 -213.378L-77.0797 -211.955C-79.9793 -212.314 -82.6242 -212.669 -85.1372 -212.962L-85.0049 -214.378C-82.4805 -214.112 -79.837 -213.78 -76.921 -213.397L-76.8922 -213.378ZM-70.261 -175.775L-69.9677 -174.363C-71.5793 -174.019 -73.1595 -173.537 -74.6925 -172.921C-75.5969 -172.555 -76.5063 -172.127 -77.4008 -171.658L-78.0207 -172.938C-77.0911 -173.428 -76.1439 -173.872 -75.1956 -174.255C-73.605 -174.909 -71.9643 -175.423 -70.2899 -175.794L-70.261 -175.775ZM-93.0979 -215.248L-93.2 -213.829C-96.0609 -214.104 -98.7775 -214.323 -101.277 -214.484L-101.217 -215.901C-98.7092 -215.774 -95.9775 -215.554 -93.1016 -215.277L-93.0979 -215.248ZM-84.0727 -167.164C-86.2104 -165.405 -88.3157 -163.407 -90.1181 -161.661L-91.0383 -162.72C-89.2146 -164.467 -87.0866 -166.482 -84.905 -168.259L-84.0727 -167.164ZM-109.355 -216.217L-109.354 -214.794C-112.262 -214.829 -114.965 -214.762 -117.408 -214.601L-117.516 -216.02C-115.042 -216.215 -112.296 -216.284 -109.359 -216.246L-109.355 -216.217ZM-96.1273 -156.004C-98.1738 -154.14 -100.322 -152.404 -102.562 -150.802L-103.338 -152.019C-101.143 -153.592 -99.0355 -155.297 -97.0274 -157.125L-96.1273 -156.004ZM-125.621 -214.926L-125.328 -213.514C-127.085 -213.147 -128.809 -212.629 -130.483 -211.967C-131.265 -211.655 -132.029 -211.296 -132.769 -210.89L-133.414 -212.16C-132.616 -212.593 -131.795 -212.978 -130.955 -213.314C-129.225 -214.013 -127.443 -214.561 -125.625 -214.955L-125.621 -214.926ZM-109.646 -146.578C-110.636 -146.094 -111.645 -145.64 -112.65 -145.234C-114.157 -144.625 -115.726 -144.083 -117.312 -143.626L-117.693 -145.003C-116.147 -145.451 -114.622 -145.975 -113.153 -146.569C-112.173 -146.965 -111.189 -147.408 -110.228 -147.873L-109.646 -146.578ZM-139.434 -206.414C-141.565 -204.758 -143.58 -202.941 -145.462 -200.979L-146.422 -201.992C-144.495 -203.999 -142.43 -205.856 -140.245 -207.548L-139.434 -206.414ZM-125.485 -143.423L-125.32 -142.005C-128.056 -141.689 -130.821 -141.675 -133.568 -141.963L-133.449 -143.374C-130.805 -143.103 -128.145 -143.125 -125.514 -143.442L-125.485 -143.423ZM-150.578 -194.642C-152.115 -192.384 -153.446 -189.976 -154.554 -187.45L-155.781 -188.056C-154.639 -190.663 -153.267 -193.149 -151.683 -195.481L-150.578 -194.642ZM-141.171 -145.297L-141.64 -143.967C-144.245 -145.013 -146.687 -146.47 -148.884 -148.288L-148.047 -149.391C-145.965 -147.664 -143.645 -146.284 -141.171 -145.297ZM-157.138 -179.58C-157.713 -176.866 -157.977 -174.085 -157.924 -171.296L-159.282 -171.291C-159.334 -174.19 -159.058 -177.081 -158.461 -179.902L-157.138 -179.58ZM-153.398 -155.524L-154.518 -154.75C-155.578 -156.44 -156.47 -158.24 -157.178 -160.119C-157.488 -160.942 -157.768 -161.801 -158.015 -162.666L-156.714 -163.054C-156.482 -162.229 -156.211 -161.412 -155.916 -160.629C-155.246 -158.842 -154.402 -157.132 -153.398 -155.524Z" fill="white"/>
</g>
</g>
<defs>
<filter id="filter0_d" x="-285.973" y="-1135.05" width="1006.21" height="1826.57" filterUnits="userSpaceOnUse" color-interpolation-filters="sRGB">
<feFlood flood-opacity="0" result="BackgroundImageFix"/>
<feColorMatrix in="SourceAlpha" type="matrix" values="0 0 0 0 0 0 0 0 0 0 0 0 0 0 0 0 0 0 127 0"/>
<feOffset dy="4"/>
<feGaussianBlur stdDeviation="11.5"/>
<feColorMatrix type="matrix" values="0 0 0 0 0.1125 0 0 0 0 0.084375 0 0 0 0 0.084375 0 0 0 0.14 0"/>
<feBlend mode="normal" in2="BackgroundImageFix" result="effect1_dropShadow"/>
<feBlend mode="normal" in="SourceGraphic" in2="effect1_dropShadow" result="shape"/>
</filter>
</defs>
</svg>
