<svg width="19" height="19" viewBox="0 0 19 19" fill="none" xmlns="http://www.w3.org/2000/svg">
<path d="M9.49967 1.58325C11.6506 1.58325 11.919 1.59117 12.7629 1.63075C13.606 1.67034 14.18 1.80254 14.6851 1.99888C15.2076 2.19996 15.6478 2.47229 16.0879 2.91167C16.4905 3.30742 16.802 3.78614 17.0007 4.3145C17.1963 4.81879 17.3293 5.39354 17.3688 6.23667C17.406 7.08059 17.4163 7.34896 17.4163 9.49992C17.4163 11.6509 17.4084 11.9193 17.3688 12.7632C17.3293 13.6063 17.1963 14.1803 17.0007 14.6853C16.8025 15.214 16.491 15.6928 16.0879 16.0882C15.6921 16.4906 15.2134 16.8021 14.6851 17.001C14.1808 17.1965 13.606 17.3295 12.7629 17.3691C11.919 17.4063 11.6506 17.4166 9.49967 17.4166C7.34872 17.4166 7.08034 17.4087 6.23642 17.3691C5.3933 17.3295 4.81934 17.1965 4.31426 17.001C3.78568 16.8026 3.30688 16.4911 2.91142 16.0882C2.50879 15.6925 2.19729 15.2137 1.99863 14.6853C1.8023 14.181 1.67009 13.6063 1.63051 12.7632C1.5933 11.9193 1.58301 11.6509 1.58301 9.49992C1.58301 7.34896 1.59092 7.08059 1.63051 6.23667C1.67009 5.39275 1.8023 4.81959 1.99863 4.3145C2.19674 3.78581 2.50831 3.30696 2.91142 2.91167C3.307 2.50889 3.78576 2.19737 4.31426 1.99888C4.81934 1.80254 5.39251 1.67034 6.23642 1.63075C7.08034 1.59354 7.34872 1.58325 9.49967 1.58325ZM9.49967 5.54159C8.44986 5.54159 7.44304 5.95862 6.70071 6.70096C5.95838 7.44329 5.54134 8.4501 5.54134 9.49992C5.54134 10.5497 5.95838 11.5566 6.70071 12.2989C7.44304 13.0412 8.44986 13.4583 9.49967 13.4583C10.5495 13.4583 11.5563 13.0412 12.2986 12.2989C13.041 11.5566 13.458 10.5497 13.458 9.49992C13.458 8.4501 13.041 7.44329 12.2986 6.70096C11.5563 5.95862 10.5495 5.54159 9.49967 5.54159ZM14.6455 5.34367C14.6455 5.08122 14.5412 4.82951 14.3557 4.64393C14.1701 4.45835 13.9184 4.35409 13.6559 4.35409C13.3935 4.35409 13.1418 4.45835 12.9562 4.64393C12.7706 4.82951 12.6663 5.08122 12.6663 5.34367C12.6663 5.60612 12.7706 5.85783 12.9562 6.04341C13.1418 6.22899 13.3935 6.33325 13.6559 6.33325C13.9184 6.33325 14.1701 6.22899 14.3557 6.04341C14.5412 5.85783 14.6455 5.60612 14.6455 5.34367ZM9.49967 7.12492C10.1296 7.12492 10.7337 7.37514 11.1791 7.82054C11.6245 8.26594 11.8747 8.87003 11.8747 9.49992C11.8747 10.1298 11.6245 10.7339 11.1791 11.1793C10.7337 11.6247 10.1296 11.8749 9.49967 11.8749C8.86978 11.8749 8.26569 11.6247 7.8203 11.1793C7.3749 10.7339 7.12467 10.1298 7.12467 9.49992C7.12467 8.87003 7.3749 8.26594 7.8203 7.82054C8.26569 7.37514 8.86978 7.12492 9.49967 7.12492Z" fill="#F46753"/>
</svg>
