<svg width="20" height="20" viewBox="0 0 20 20" fill="none" xmlns="http://www.w3.org/2000/svg">
<path d="M3.33333 5.11922V15.8059L7.55416 13.9976L12.5542 16.4976L16.6667 14.7334V4.04755L17.7525 3.58255C17.8159 3.55537 17.8851 3.54436 17.9538 3.5505C18.0225 3.55665 18.0886 3.57976 18.1462 3.61776C18.2038 3.65576 18.251 3.70746 18.2837 3.76822C18.3163 3.82898 18.3334 3.8969 18.3333 3.96589V15.8334L12.5 18.3334L7.5 15.8334L2.2475 18.0842C2.18409 18.1114 2.11493 18.1224 2.04622 18.1163C1.97751 18.1101 1.9114 18.087 1.85382 18.049C1.79624 18.011 1.749 17.9593 1.71634 17.8986C1.68367 17.8378 1.6666 17.7699 1.66666 17.7009V5.83339L3.33333 5.11922ZM13.5358 9.36922L10 12.9042L6.46416 9.36922C5.76499 8.66992 5.28887 7.77901 5.09601 6.80912C4.90315 5.83924 5.00222 4.83395 5.38068 3.92037C5.75914 3.00679 6.40001 2.22595 7.22223 1.67658C8.04446 1.12721 9.01113 0.833984 10 0.833984C10.9889 0.833984 11.9555 1.12721 12.7778 1.67658C13.6 2.22595 14.2409 3.00679 14.6193 3.92037C14.9978 4.83395 15.0968 5.83924 14.904 6.80912C14.7111 7.77901 14.235 8.66992 13.5358 9.36922ZM10 10.5476L12.3567 8.19005C12.8229 7.72392 13.1405 7.12998 13.2692 6.48335C13.3979 5.83671 13.332 5.16644 13.0797 4.55729C12.8274 3.94815 12.4002 3.42749 11.852 3.06118C11.3038 2.69486 10.6593 2.49934 10 2.49934C9.34068 2.49934 8.69618 2.69486 8.14799 3.06118C7.59981 3.42749 7.17257 3.94815 6.9203 4.55729C6.66804 5.16644 6.60209 5.83671 6.73079 6.48335C6.85949 7.12998 7.17706 7.72392 7.64333 8.19005L10 10.5476Z" fill="white"/>
</svg>
