<svg width="26" height="25" viewBox="0 0 26 25" fill="none" xmlns="http://www.w3.org/2000/svg">
<path d="M13 22.3684C18.6682 22.3684 23.2631 17.9502 23.2631 12.5C23.2631 7.04983 18.6682 2.63159 13 2.63159C7.33179 2.63159 2.73682 7.04983 2.73682 12.5C2.73682 17.9502 7.33179 22.3684 13 22.3684Z" fill="url(#paint0_linear)"/>
<path d="M15.7783 17.377C15.5889 17.3216 15.4084 17.2845 15.2407 17.2177C13.5036 16.5247 11.905 15.6307 10.6388 14.2604C9.9187 13.4811 9.35509 12.6014 8.87869 11.6703C8.65274 11.2288 8.46236 10.77 8.26826 10.3141C8.09132 9.89843 8.35196 9.469 8.62639 9.15572C8.88392 8.86174 9.21536 8.63684 9.57428 8.47097C9.8544 8.34158 10.1307 8.41621 10.3353 8.64448C10.7775 9.13809 11.1839 9.65691 11.5127 10.2291C11.715 10.581 11.6595 11.0112 11.2929 11.2507C11.2037 11.3089 11.1225 11.3773 11.0396 11.443C10.9667 11.5006 10.8983 11.5588 10.8483 11.6368C10.7571 11.7795 10.7528 11.9479 10.8114 12.1031C11.2635 13.2977 12.0255 14.2267 13.2761 14.7271C13.4763 14.8072 13.6772 14.9003 13.9078 14.8745C14.2938 14.8312 14.4189 14.4239 14.6895 14.2112C14.9539 14.0033 15.2919 14.0005 15.5767 14.1739C15.8616 14.3473 16.1378 14.5334 16.4123 14.7215C16.6819 14.9062 16.9501 15.0867 17.1987 15.2973C17.4377 15.4997 17.52 15.7652 17.3854 16.0398C17.1391 16.5429 16.7805 16.9613 16.2633 17.2285C16.1173 17.3038 15.9429 17.3282 15.7783 17.377C15.5889 17.3216 15.9429 17.3282 15.7783 17.377Z" fill="white"/>
<path d="M13.1029 7.89564C15.3749 7.95689 17.2411 9.40671 17.641 11.5666C17.7092 11.9346 17.7334 12.3108 17.7637 12.6844C17.7765 12.8414 17.6839 12.9907 17.5077 12.9928C17.3256 12.9949 17.2436 12.8483 17.2317 12.6914C17.2083 12.3805 17.1921 12.0682 17.1476 11.76C16.9124 10.1325 15.5628 8.78613 13.8781 8.49724C13.6246 8.45375 13.3652 8.44235 13.1084 8.41643C12.9461 8.40007 12.7335 8.39065 12.6975 8.19657C12.6674 8.03388 12.8102 7.90436 12.9713 7.89602C13.0149 7.89354 13.059 7.89551 13.1029 7.89564C15.3751 7.95689 13.059 7.89551 13.1029 7.89564Z" fill="white"/>
<path d="M16.5558 12.1998C16.5521 12.2271 16.5501 12.2912 16.5335 12.3516C16.4732 12.5709 16.1273 12.5983 16.0477 12.377C16.0241 12.3114 16.0206 12.2366 16.0204 12.1659C16.0196 11.7033 15.9151 11.241 15.6724 10.8384C15.4229 10.4246 15.0417 10.0768 14.5948 9.86627C14.3245 9.73905 14.0323 9.6599 13.736 9.61285C13.6065 9.59222 13.4757 9.5798 13.3455 9.56235C13.1879 9.54128 13.1036 9.44468 13.1112 9.2953C13.1181 9.15534 13.2246 9.05455 13.3832 9.06327C13.9046 9.09167 14.4083 9.20017 14.8719 9.43615C15.8145 9.91619 16.353 10.6738 16.5102 11.6855C16.5173 11.7314 16.5287 11.7768 16.5323 11.8227C16.5412 11.9362 16.5468 12.0499 16.5558 12.1998C16.5521 12.2269 16.5468 12.0499 16.5558 12.1998Z" fill="white"/>
<path d="M15.1427 12.1466C14.9526 12.15 14.8509 12.0487 14.8313 11.8813C14.8177 11.7645 14.8068 11.646 14.7778 11.5323C14.7207 11.3084 14.597 11.1009 14.4011 10.9637C14.3086 10.8989 14.2038 10.8518 14.0941 10.8212C13.9547 10.7824 13.8098 10.7931 13.6708 10.7604C13.5197 10.7248 13.4362 10.6071 13.4599 10.4709C13.4815 10.3469 13.6069 10.2501 13.7479 10.26C14.6288 10.3211 15.2584 10.759 15.3483 11.7561C15.3547 11.8265 15.3621 11.9008 15.3459 11.9682C15.3179 12.0833 15.2292 12.141 15.1427 12.1466C14.9526 12.1499 15.2292 12.141 15.1427 12.1466Z" fill="white"/>
<path d="M13.0066 9.00993C13.0054 9.00993 13.0042 9.0098 13.003 9.0098C13.0018 9.00971 13.0033 9.0098 13.0066 9.00993Z" fill="white"/>
<path d="M13.004 9.00854C13.0052 9.00854 13.0063 9.00866 13.0075 9.00866C13.0838 9.01128 14.3253 9.04416 13.004 9.00854Z" fill="white"/>
<path d="M15.093 11.6141C15.0878 11.5233 15.0908 11.6305 15.093 11.6141V11.6141Z" fill="white"/>
<path d="M14.2382 11.5821C14.2401 11.582 14.2419 11.581 14.2436 11.5808C14.2386 11.5808 14.2309 11.5809 14.2229 11.5812C14.2281 11.5814 14.2328 11.5822 14.2382 11.5821Z" fill="white"/>
<path d="M14.2376 11.5824C14.2324 11.5824 14.2279 11.5817 14.2229 11.5815C14.198 11.5822 14.1723 11.5835 14.2376 11.5824Z" fill="white"/>
<path d="M14.2435 11.5808C14.2415 11.581 14.2395 11.5821 14.2375 11.5822C14.2529 11.5812 14.2516 11.5808 14.2435 11.5808Z" fill="white"/>
<defs>
<linearGradient id="paint0_linear" x1="6.49998" y1="4.93422" x2="19.9162" y2="20.5887" gradientUnits="userSpaceOnUse">
<stop stop-color="#6F3FAA"/>
<stop offset="1" stop-color="#8E5FC7"/>
</linearGradient>
</defs>
</svg>
