<svg width="37" height="12" viewBox="0 0 37 12" fill="none" xmlns="http://www.w3.org/2000/svg">
<path d="M15.1237 0L13.2667 11.5557H16.2349L18.0907 0H15.1237ZM24.0766 4.70714C23.0394 4.19494 22.4035 3.84924 22.4035 3.32536C22.4162 2.84904 22.9412 2.36105 24.1137 2.36105C25.078 2.33683 25.7867 2.56345 26.3244 2.78893L26.5938 2.90915L26.9973 0.491411C26.4111 0.264791 25.4815 0.0150905 24.3333 0.0150905C21.4022 0.0150905 19.3383 1.53903 19.3255 3.71861C19.3013 5.32702 20.8031 6.21955 21.9271 6.75496C23.0753 7.3042 23.4661 7.6603 23.4661 8.14829C23.4535 8.89751 22.5377 9.24321 21.6832 9.24321C20.4993 9.24321 19.8633 9.06516 18.8979 8.64769L18.507 8.46964L18.0919 10.9822C18.7892 11.2922 20.0714 11.565 21.4023 11.5789C24.5173 11.5789 26.5442 10.078 26.5697 7.75516C26.5798 6.48091 25.7879 5.50494 24.0766 4.70714ZM34.6066 0.0357617H32.3103C31.6026 0.0357617 31.0649 0.239301 30.7585 0.965447L26.3497 11.5557H29.4646L30.3226 9.26287H33.8076L34.2527 11.565H37L34.6066 0.0357617ZM31.1864 6.94899C31.2465 6.95482 32.382 3.20615 32.382 3.20615L33.2862 6.94899C33.2862 6.94899 31.7727 6.94899 31.1864 6.94899ZM10.7866 0L7.87859 7.85103L7.5618 6.30274C7.0241 4.51628 5.33834 2.57499 3.45703 1.61069L6.11991 11.5442H9.26037L13.9271 0.00126746H10.7866V0Z" fill="#9A99A2"/>
<path d="M6.58376 1.4905C6.35714 0.609382 5.63442 0.015123 4.65287 0.00244141H0.0474291L0 0.216252C3.59256 1.10193 6.60798 3.8272 7.58624 6.39066L6.58376 1.4905Z" fill="#BBBAC0"/>
</svg>
