<svg xmlns="http://www.w3.org/2000/svg" width="44" height="21" viewBox="0 0 44 21" fill="none">
  <g clip-path="url(#clip0_383_3588)">
    <path d="M8.78625 1.80078C8.05145 1.83678 7.14555 2.3153 6.62635 2.9873C6.15115 3.5678 5.74452 4.50908 5.84718 5.39258C6.67732 5.46608 7.5094 4.95088 8.02713 4.29688C8.53753 3.62337 8.87278 2.72178 8.78625 1.80078ZM15.8417 3.59961V17.0996H17.93V12.5996H20.7917C23.417 12.5996 25.3006 10.7321 25.3006 8.09961C25.3006 5.46711 23.4506 3.59961 20.8605 3.59961H15.8417ZM17.93 5.39844H20.3506C22.1516 5.39844 23.2094 6.39411 23.2094 8.09961C23.2094 9.80511 22.1604 10.7979 20.3506 10.7979H17.93V5.39844ZM8.69171 5.84961C7.48171 5.84961 6.61524 6.52344 6.05057 6.52344C5.4771 6.52344 4.62 5.85547 3.63 5.85547C2.42 5.85547 1.23552 6.63312 0.610725 7.76562C-0.672608 10.0291 0.277998 13.3811 1.5188 15.2246C2.12746 16.1366 2.86057 17.0996 3.85057 17.0996C4.75844 17.0651 5.06382 16.5371 6.15942 16.5371C7.26236 16.5371 7.59 17.0996 8.58 17.0996C9.57 17.0996 10.1699 16.1718 10.7771 15.2598C11.4709 14.2248 11.7535 13.2146 11.7711 13.1621C11.755 13.1456 9.85228 12.3988 9.83468 10.1533C9.81855 8.27532 11.3327 7.3801 11.4016 7.3291C10.5465 6.0301 9.13057 5.84961 8.80057 5.84961H8.69171ZM30.0959 7.2002C27.9061 7.2002 26.2888 8.45612 26.2287 10.1826H28.0849C28.2375 9.36212 28.9987 8.82324 30.0386 8.82324C31.2999 8.82324 32.0123 9.41302 32.0123 10.499V11.249L29.4342 11.3896C27.0391 11.5351 25.7446 12.5156 25.7446 14.2256C25.7446 15.9521 27.0818 17.0996 28.9987 17.0996C30.2938 17.0996 31.4968 16.44 32.0409 15.3975H32.0839V16.9971H33.9917V10.3643C33.9902 8.43826 32.4557 7.2002 30.0959 7.2002ZM34.7594 7.2002L38.2886 17.0527L38.0995 17.6533C37.7813 18.6688 37.2631 19.0596 36.3435 19.0596C36.1866 19.0596 35.8898 19.0438 35.7534 19.0273V20.6504C35.8913 20.6819 36.3744 20.7002 36.524 20.7002C38.5539 20.7002 39.5094 19.9179 40.3454 17.5479L44.0006 7.2002H41.8836L39.4316 15.1953H39.3886L36.9365 7.2002H34.7594ZM32.0123 12.5996L32.0037 13.3818C32.0037 14.6298 30.9479 15.5176 29.5516 15.5176C28.4531 15.5176 27.7527 14.9888 27.7527 14.1758C27.7527 13.3373 28.4272 12.8505 29.7149 12.7725L32.0123 12.5996Z" fill="black"/>
  </g>
  <defs>
    <clipPath id="clip0_383_3588">
      <rect width="44" height="21" fill="white"/>
    </clipPath>
  </defs>
</svg>
