<svg xmlns="http://www.w3.org/2000/svg" width="24" height="18" viewBox="0 0 24 18" fill="none">
  <g clip-path="url(#clip0_383_3597)">
    <path d="M19.3977 0H4.32328C2.25056 0 0.554688 1.8 0.554688 4V5C0.554688 5.6 0.931547 6 1.49684 6H22.2241C22.7894 6 23.1663 5.6 23.1663 5V4C23.1663 1.8 21.4704 0 19.3977 0Z" fill="#333333"/>
    <path d="M22.2241 8H1.49684C0.931547 8 0.554688 8.4 0.554688 9V14C0.554688 16.2 2.25056 18 4.32328 18H19.3977C21.4704 18 23.1663 16.2 23.1663 14V9C23.1663 8.4 22.7894 8 22.2241 8ZM10.9183 15H5.26543C4.70014 15 4.32328 14.6 4.32328 14C4.32328 13.4 4.70014 13 5.26543 13H10.9183C11.4836 13 11.8605 13.4 11.8605 14C11.8605 14.6 11.4836 15 10.9183 15ZM18.4555 12H16.5712C16.0059 12 15.6291 11.6 15.6291 11C15.6291 10.4 16.0059 10 16.5712 10H18.4555C19.0208 10 19.3977 10.4 19.3977 11C19.3977 11.6 19.0208 12 18.4555 12Z" fill="#333333"/>
  </g>
  <defs>
    <clipPath id="clip0_383_3597">
      <rect width="22.6116" height="18" fill="white" transform="translate(0.554688)"/>
    </clipPath>
  </defs>
</svg>