<svg width="19" height="19" viewBox="0 0 19 19" fill="none" xmlns="http://www.w3.org/2000/svg">
<g clip-path="url(#clip0_1888_3796)">
<path d="M7.92917 17.8C8.43417 18.2276 8.96083 18.6185 9.5 19C10.0403 18.6236 10.5644 18.2232 11.0708 17.8C11.915 17.0886 12.7095 16.3172 13.4483 15.4915C15.1517 13.5799 17 10.8086 17 7.69785C17 6.68695 16.806 5.68596 16.4291 4.75201C16.0522 3.81806 15.4997 2.96946 14.8033 2.25465C14.1069 1.53984 13.2801 0.972817 12.3701 0.585964C11.4602 0.199111 10.4849 0 9.5 0C8.51509 0 7.53982 0.199111 6.62987 0.585964C5.71993 0.972817 4.89314 1.53984 4.1967 2.25465C3.50026 2.96946 2.94781 3.81806 2.5709 4.75201C2.19399 5.68596 2 6.68695 2 7.69785C2 10.8086 3.84833 13.579 5.55167 15.4915C6.29052 16.3175 7.08497 17.0883 7.92917 17.8ZM9.5 10.4776C8.78171 10.4776 8.09283 10.1848 7.58492 9.66345C7.07701 9.14214 6.79167 8.43509 6.79167 7.69785C6.79167 6.96061 7.07701 6.25356 7.58492 5.73225C8.09283 5.21094 8.78171 4.91807 9.5 4.91807C10.2183 4.91807 10.9072 5.21094 11.4151 5.73225C11.923 6.25356 12.2083 6.96061 12.2083 7.69785C12.2083 8.43509 11.923 9.14214 11.4151 9.66345C10.9072 10.1848 10.2183 10.4776 9.5 10.4776Z" fill="#FFC991"/>
</g>
<defs>
<clipPath id="clip0_1888_3796">
<rect width="19" height="19" fill="white"/>
</clipPath>
</defs>
</svg>
