
<svg xmlns="http://www.w3.org/2000/svg" width="52" height="20" viewBox="0 0 52 20" fill="none">
  <path d="M25.5356 9.78163V15.39H23.7324V1.53996H28.5166C29.6709 1.51663 30.7862 1.94829 31.6143 2.73829C32.4525 3.48329 32.9257 4.54829 32.9088 5.66163C32.9325 6.77996 32.461 7.85496 31.6143 8.60163C30.7778 9.38829 29.7452 9.78163 28.5166 9.77996L25.5356 9.78163ZM25.5356 3.24496V8.07996H28.5606C29.2315 8.09996 29.8787 7.83996 30.3452 7.36329C31.2932 6.45496 31.3135 4.95996 30.3925 4.02496C30.3773 4.0083 30.3604 3.99329 30.3452 3.97829C29.8838 3.49163 29.2349 3.22496 28.5606 3.24329L25.5356 3.24496Z" fill="black"/>
  <path d="M37.0654 5.60156C38.3988 5.60156 39.4516 5.95323 40.2222 6.65656C40.9929 7.3599 41.3799 8.32323 41.3782 9.54656V15.3866H39.6527V14.0716H39.575C38.828 15.1549 37.8344 15.6966 36.5939 15.6966C35.536 15.6966 34.6505 15.3866 33.9373 14.7682C33.2445 14.1932 32.8524 13.3399 32.8676 12.4482C32.8676 11.4682 33.2428 10.6882 33.9948 10.1082C34.7468 9.5299 35.749 9.23823 37.0046 9.23823C38.076 9.23823 38.9582 9.43156 39.651 9.81823V9.41156C39.6544 8.80323 39.3823 8.2249 38.9058 7.83656C38.4292 7.41156 37.8073 7.1799 37.1651 7.18823C36.1579 7.18823 35.3603 7.60823 34.7722 8.44656L33.1836 7.4599C34.059 6.22156 35.3518 5.60156 37.0654 5.60156ZM34.7316 12.4866C34.7299 12.9466 34.9513 13.3782 35.3299 13.6466C35.7287 13.9566 36.2238 14.1199 36.7308 14.1099C37.4913 14.1082 38.2214 13.8099 38.7604 13.2782C39.3587 12.7232 39.6561 12.0732 39.6561 11.3249C39.0934 10.8832 38.3092 10.6616 37.3037 10.6616C36.5703 10.6616 35.9602 10.8366 35.4701 11.1849C34.9767 11.5399 34.7316 11.9699 34.7316 12.4866Z" fill="black"/>
  <path d="M51.2826 5.91406L45.2596 19.5674H43.3973L45.6331 14.7907L41.6719 5.91573H43.6322L46.495 12.7224H46.5338L49.3189 5.91573L51.2826 5.91406Z" fill="black"/>
  <path d="M17.3444 8.57146C17.3444 8.02979 17.2987 7.48813 17.2058 6.95312H9.59766V10.0181H13.9543C13.7735 11.0065 13.1922 11.8798 12.3438 12.4365V14.4248H14.9446C16.4673 13.0398 17.3444 10.9931 17.3444 8.57146Z" fill="#4285F4"/>
  <path d="M9.59823 16.3457C11.7749 16.3457 13.6085 15.6407 14.9452 14.4257L12.3444 12.4374C11.6211 12.9207 10.6882 13.1974 9.59823 13.1974C7.49425 13.1974 5.70798 11.7991 5.06918 9.91406H2.39062V11.9641C3.75948 14.6491 6.54958 16.3457 9.59823 16.3457Z" fill="#34A853"/>
  <path d="M5.06719 9.91531C4.7292 8.92698 4.7292 7.85698 5.06719 6.87031V4.82031H2.38863C1.24285 7.06865 1.24285 9.71698 2.38863 11.9653L5.06719 9.91531Z" fill="#FBBC04"/>
  <path d="M9.59797 3.58246C10.7488 3.56413 11.8608 3.99246 12.6923 4.77579L14.994 2.50579C13.5338 1.15413 11.5989 0.410794 9.59628 0.434127C6.54593 0.434127 3.75753 2.1308 2.38867 4.81746L5.06723 6.86746C5.70772 4.98246 7.49399 3.58246 9.59797 3.58246Z" fill="#EA4335"/>
</svg>
