<svg width="86" height="26" viewBox="0 0 86 26" fill="none" xmlns="http://www.w3.org/2000/svg">
<path d="M85.7314 24.96H84.4776V21.385H80.9395V24.96H79.6797V17.0408H80.9395V20.28H84.4776V17.0408H85.7314V24.96Z" fill="#1A1A1A"/>
<path d="M71.1719 17.0407H72.3214V21.2387C72.3214 21.4193 72.3198 21.6179 72.3164 21.8345C72.3127 22.0512 72.3056 22.2624 72.2952 22.4683C72.2882 22.6741 72.2814 22.8583 72.2744 23.0207C72.2673 23.1796 72.2603 23.2952 72.2532 23.3674H72.2902L76.1955 17.0407H77.6597V24.9599H76.5206V20.7945C76.5206 20.5995 76.5244 20.3883 76.5312 20.1607C76.538 19.9333 76.547 19.713 76.5576 19.4999C76.5682 19.2869 76.5787 19.0992 76.5885 18.9366C76.5998 18.7741 76.6066 18.6585 76.6096 18.5899H76.5629L72.6469 24.9599H71.1719V17.0407ZM76.8254 14.5112C76.7899 14.8831 76.6926 15.2045 76.5312 15.4754C76.3735 15.7426 76.1336 15.9484 75.8123 16.0929C75.4901 16.2372 75.0667 16.3095 74.542 16.3095C73.9995 16.3095 73.5708 16.2409 73.256 16.1037C72.9409 15.9629 72.7135 15.7588 72.5734 15.4916C72.4337 15.2207 72.3496 14.894 72.3214 14.5112H73.4448C73.4798 14.912 73.5812 15.1829 73.7492 15.3237C73.9172 15.4609 74.1886 15.5295 74.5628 15.5295C74.885 15.5295 75.142 15.4555 75.3344 15.3074C75.5301 15.1594 75.6478 14.894 75.6863 14.5112H76.8254Z" fill="#1A1A1A"/>
<path d="M68.8141 24.96L68.0633 22.7608H65.1292L64.3787 24.96H63.0508L65.9063 17.0083H67.3024L70.1525 24.96H68.8141ZM67.7381 21.645L67.0084 19.4783C66.9802 19.3845 66.9402 19.2526 66.8875 19.0829C66.8351 18.9096 66.7827 18.7345 66.7303 18.5574C66.6776 18.377 66.6339 18.2253 66.599 18.1025C66.564 18.2506 66.5204 18.4167 66.4676 18.6008C66.4189 18.7814 66.3699 18.9511 66.3208 19.11C66.2755 19.2688 66.2402 19.3917 66.2157 19.4783L65.481 21.645H67.7381Z" fill="#1A1A1A"/>
<path d="M62.0378 24.96H60.778V18.1458H58.5944C58.5491 18.5177 58.5 18.915 58.4473 19.3375C58.3949 19.7564 58.3408 20.1771 58.2846 20.5996C58.2286 21.0221 58.1711 21.4229 58.1114 21.8021C58.0555 22.1812 57.9978 22.5152 57.9383 22.8041C57.8473 23.288 57.7284 23.6997 57.5813 24.0391C57.4378 24.375 57.2436 24.6314 56.9987 24.8083C56.7538 24.9852 56.4337 25.0737 56.0382 25.0737C55.9052 25.0737 55.7756 25.0611 55.6496 25.0358C55.5236 25.0141 55.4101 24.9852 55.3086 24.9491V23.8766C55.3926 23.9091 55.4816 23.938 55.5763 23.9633C55.6741 23.985 55.7776 23.9958 55.8858 23.9958C56.0678 23.9958 56.213 23.9272 56.3214 23.79C56.4337 23.6491 56.5264 23.4505 56.5996 23.1941C56.6732 22.9341 56.7434 22.6272 56.8096 22.2733C56.8482 22.0602 56.8956 21.7786 56.9513 21.4283C57.0075 21.0744 57.0686 20.6664 57.1351 20.2041C57.2016 19.7419 57.2698 19.2436 57.34 18.7091C57.4133 18.1711 57.4835 17.615 57.5499 17.0408H62.0378V24.96Z" fill="#1A1A1A"/>
<path d="M54.2394 24.9602H52.985V21.3852H49.4472V24.9602H48.1875V17.041H49.4472V20.2802H52.985V17.041H54.2394V24.9602Z" fill="#1A1A1A"/>
<path d="M46.5362 20.9898C46.5362 21.6001 46.4609 22.1562 46.3104 22.6581C46.1636 23.1565 45.9412 23.5862 45.6439 23.9473C45.3466 24.3048 44.9737 24.5811 44.5259 24.7761C44.0781 24.9711 43.553 25.0686 42.951 25.0686C42.3389 25.0686 41.8068 24.9711 41.3553 24.7761C40.9075 24.5811 40.535 24.303 40.2373 23.9419C39.9434 23.5808 39.723 23.1492 39.5762 22.6473C39.429 22.1453 39.3555 21.5892 39.3555 20.979C39.3555 20.1629 39.4851 19.4515 39.7441 18.8448C40.0065 18.2346 40.4036 17.7615 40.9354 17.4256C41.4709 17.0862 42.1465 16.9165 42.9618 16.9165C43.7597 16.9165 44.4228 17.0844 44.9512 17.4202C45.4793 17.7561 45.875 18.2291 46.1374 18.8394C46.4031 19.4461 46.5362 20.1629 46.5362 20.9898ZM40.6784 20.9898C40.6784 21.6001 40.7587 22.1291 40.9199 22.5769C41.0808 23.0211 41.3274 23.3641 41.66 23.6061C41.996 23.8444 42.4263 23.9636 42.951 23.9636C43.4795 23.9636 43.9102 23.8444 44.2424 23.6061C44.5749 23.3641 44.8199 23.0211 44.9774 22.5769C45.1346 22.1291 45.2136 21.6001 45.2136 20.9898C45.2136 20.0617 45.0331 19.3359 44.6727 18.8123C44.3159 18.2851 43.7455 18.0215 42.9618 18.0215C42.4367 18.0215 42.0047 18.1406 41.665 18.379C41.3291 18.6173 41.0808 18.9586 40.9199 19.4027C40.7587 19.8433 40.6784 20.3723 40.6784 20.9898Z" fill="#1A1A1A"/>
<path d="M58.3651 3.521C59.3554 3.521 60.078 3.7413 60.5332 4.18185C60.9881 4.61878 61.2155 5.22185 61.2155 5.991C61.2155 6.33766 61.1647 6.6699 61.0633 6.98766C60.9619 7.30185 60.7955 7.58171 60.5645 7.82726C60.337 8.07281 60.0326 8.26781 59.6514 8.41226C59.2697 8.55312 58.7991 8.62347 58.2391 8.62347H57.541V11.4402H55.9141V3.521H58.3651ZM58.2811 4.89685H57.541V7.24766H58.0765C58.3808 7.24766 58.6452 7.20617 58.869 7.1231C59.093 7.04004 59.2664 6.91004 59.3887 6.7331C59.5113 6.55617 59.5725 6.32864 59.5725 6.05058C59.5725 5.66058 59.4676 5.37171 59.2577 5.18392C59.0477 4.99253 58.7222 4.89685 58.2811 4.89685Z" fill="white"/>
<path d="M53.7046 3.521V10.0427H54.7282V13.7477H53.1587V11.4402H48.3508V13.7477H46.7812V10.0427H47.3745C47.5737 9.63097 47.7662 9.19586 47.9517 8.73726C48.1374 8.27867 48.3105 7.78574 48.4714 7.25851C48.6323 6.7313 48.7777 6.15892 48.907 5.54143C49.0367 4.92392 49.1453 4.25045 49.2326 3.521H53.7046ZM52.0827 4.91851H50.5239C50.4712 5.3013 50.3997 5.70936 50.3086 6.14269C50.2176 6.57603 50.1091 7.01837 49.9831 7.46977C49.8608 7.9175 49.7224 8.35988 49.5685 8.79683C49.418 9.23378 49.2571 9.64902 49.0854 10.0427H52.0827V4.91851Z" fill="white"/>
<path d="M39.6797 11.4402V3.521H45.7527V11.4402H44.1309V4.91851H41.307V11.4402H39.6797Z" fill="white"/>
<path d="M23.3697 9.39178C22.1825 10.3624 21.658 11.6678 21.3162 13.1392C20.9721 14.5957 20.2544 15.9257 18.9896 16.7414C16.9996 17.9792 14.6153 18.0768 12.3529 18.28C9.0546 18.5771 5.70594 19.2889 3.10442 21.5218C3.05398 21.5649 3.00354 21.608 2.95157 21.6525C2.40863 22.1312 1.74788 22.7799 1.68316 23.5469C1.6733 24.0292 1.666 24.4533 1.93639 24.868C1.96613 24.9145 1.99586 24.961 2.0265 25.0089C2.3295 25.4431 2.66507 25.6737 3.16282 25.824C3.3299 25.8391 3.3299 25.8391 3.50689 25.8392C3.57471 25.8395 3.64254 25.8399 3.71242 25.8402C3.78639 25.8401 3.86036 25.8398 3.93658 25.8396C4.01641 25.8398 4.09623 25.84 4.17604 25.8403C4.39504 25.8409 4.61407 25.8408 4.83311 25.8405C5.06947 25.8404 5.30583 25.8409 5.5422 25.8413C6.00532 25.8421 6.46845 25.8422 6.93154 25.8421C7.30829 25.842 7.68501 25.8421 8.06175 25.8424C8.14224 25.8424 8.14224 25.8424 8.22432 25.8424C8.33333 25.8425 8.44226 25.8426 8.55127 25.8427C9.57369 25.8433 10.5961 25.8431 11.6185 25.8428C12.5523 25.8425 13.4862 25.8431 14.42 25.8443C15.3797 25.8454 16.3396 25.846 17.2993 25.8457C17.8378 25.8456 18.3762 25.8457 18.9146 25.8466C19.3734 25.8473 19.8322 25.8474 20.291 25.8466C20.5247 25.8463 20.7584 25.8463 20.9922 25.8469C22.7822 25.8521 22.7822 25.8521 23.6034 25.6448C23.6528 25.6333 23.7023 25.6218 23.7532 25.61C25.0486 25.2916 26.2264 24.627 27.2243 23.7326C27.271 23.692 27.3178 23.6514 27.366 23.6096C29.4908 21.7352 30.1677 18.7155 30.4092 15.9738C30.5626 13.8412 30.5305 11.457 29.0931 9.75027C27.6002 8.14255 25.0751 8.10126 23.3697 9.39178Z" fill="#1A1A1A"/>
<path d="M29.8645 2.95026C29.6384 3.146 29.5086 3.33221 29.3964 3.61279C29.3998 3.80291 29.3998 3.80291 29.422 4.00432C29.4305 4.42171 29.3068 4.64014 29.0651 4.9537C28.5173 5.66988 27.7507 6.9374 27.8165 7.88929C27.9309 7.94978 28.0456 8.00997 28.1602 8.06999C28.2241 8.10349 28.2879 8.13706 28.3537 8.17162C28.5186 8.25069 28.5186 8.25069 28.6357 8.25069C28.6529 8.19579 28.6529 8.19579 28.6703 8.13974C29.0044 7.08112 29.3788 6.12443 30.0604 5.25249C30.1571 5.11861 30.1571 5.11861 30.1571 4.99814C30.215 5.02796 30.215 5.02796 30.2741 5.05836C30.6449 5.09126 30.9026 5.03881 31.2104 4.81743C31.4207 4.61223 31.5492 4.41768 31.5754 4.11442C31.5849 3.70761 31.5714 3.45676 31.3274 3.13095C30.8987 2.70131 30.3835 2.66338 29.8645 2.95026Z" fill="#1A1A1A"/>
<path d="M25.3037 2.09778C24.9839 2.20324 24.7266 2.39808 24.5745 2.69023C24.4775 3.01602 24.447 3.4199 24.5902 3.73573C24.6586 3.8285 24.6586 3.8285 24.7908 3.97621C24.8737 4.18307 24.8429 4.34142 24.7988 4.55562C24.5986 5.61338 24.5775 6.74482 24.8549 7.79368C25.1934 7.77364 25.5319 7.75368 25.8806 7.73304C25.8595 7.60186 25.8383 7.47061 25.8165 7.33541C25.6757 6.33888 25.7229 5.33143 25.8806 4.33976C25.9178 4.33158 25.955 4.32336 25.9933 4.31494C26.3907 4.21138 26.6195 4.06458 26.8421 3.73382C26.9619 3.39427 26.9534 3.02442 26.8381 2.68479C26.4218 2.13883 26.0002 2.03079 25.3037 2.09778Z" fill="#1A1A1A"/>
<path d="M5.92673 13.7065C8.93482 12.9642 11.9429 12.2218 15.0423 11.457C15.2631 11.7634 15.4615 12.0407 15.6474 12.3639C15.6885 12.4349 15.7297 12.5061 15.7721 12.5793C15.8347 12.6883 15.8347 12.6883 15.8986 12.7995C15.9824 12.9452 16.0665 13.0907 16.1507 13.2363C16.1873 13.3002 16.2241 13.3641 16.2619 13.4299C16.3727 13.6192 16.3727 13.6192 16.5086 13.8077C16.6363 13.9998 16.6785 14.1592 16.7181 14.3869C16.8047 14.3576 16.8911 14.3283 16.9802 14.2981C18.0351 13.9705 18.0351 13.9705 18.5506 14.2508C19.0034 14.5502 19.1827 14.8807 19.3082 15.4141C19.4108 15.8999 19.448 16.2285 19.1824 16.6635C18.8799 17.1099 18.7048 17.2507 18.1822 17.3817C18.1273 17.3955 18.0724 17.4093 18.0158 17.4236C17.8308 17.4703 17.6457 17.5163 17.4606 17.5623C17.3283 17.5955 17.196 17.6287 17.0636 17.6619C16.7036 17.7523 16.3433 17.8421 15.9831 17.9317C15.7579 17.9877 15.533 18.0437 15.308 18.0998C14.6042 18.2751 13.9003 18.45 13.1964 18.6245C12.3833 18.826 11.5706 19.0288 10.7582 19.2327C10.1305 19.3902 9.5025 19.5465 8.87432 19.7018C8.49894 19.7946 8.12378 19.8879 7.74893 19.9826C7.39616 20.0717 7.04305 20.1592 6.68964 20.2455C6.56008 20.2775 6.43064 20.3099 6.30134 20.343C6.12456 20.3881 5.94746 20.4312 5.77015 20.4738C5.67115 20.4985 5.57215 20.5231 5.47016 20.5485C5.01086 20.5917 4.62245 20.397 4.25605 20.1198C3.87936 19.6488 3.74153 19.0017 3.77952 18.3996C3.93812 18.0258 4.1543 17.6764 4.45932 17.4121C4.67153 17.3535 4.8826 17.2997 5.09663 17.2494C5.15595 17.2351 5.21532 17.2209 5.27646 17.2062C5.4231 17.1711 5.56986 17.1363 5.71664 17.1018C5.70263 17.0045 5.68866 16.9072 5.67424 16.8068C5.63245 16.516 5.67021 16.268 5.72255 15.9802C5.76898 15.6785 5.77522 15.375 5.78581 15.0701C5.79014 14.9448 5.79484 14.8195 5.79995 14.6943C5.80183 14.6397 5.80368 14.5851 5.80559 14.5289C5.82938 14.2527 5.88121 13.9798 5.92673 13.7065Z" fill="white"/>
<path d="M6.69958 9.04654C6.75962 9.03209 6.81965 9.01756 6.8815 9.00257C6.9758 8.97932 6.9758 8.97932 7.07197 8.95554C7.28079 8.90408 7.48968 8.85315 7.69862 8.80229C7.84301 8.76681 7.9874 8.73133 8.13179 8.69577C8.51253 8.60209 8.89349 8.50895 9.27438 8.41596C9.66274 8.32099 10.051 8.22555 10.4393 8.13012C11.2018 7.94292 11.9643 7.75618 12.727 7.56982C12.9298 7.81605 13.1159 8.04799 13.2669 8.33131C13.5013 8.76192 13.7594 9.17562 14.0189 9.59048C14.1739 9.87036 14.1739 9.87036 14.4028 10.4997C11.654 11.178 8.90518 11.8564 6.0731 12.5552C6.05409 12.0296 6.04052 11.5395 6.081 11.0209C6.08745 10.9324 6.08745 10.9324 6.09399 10.8421C6.10703 10.665 6.12077 10.4881 6.13461 10.3111C6.14643 10.1528 6.14643 10.1528 6.15852 9.99141C6.22346 9.16507 6.22346 9.16507 6.69958 9.04654Z" fill="white"/>
<path d="M8.06414 1.9806C8.12328 1.96691 8.18243 1.95322 8.2433 1.93912C8.65173 1.85741 8.96201 1.8392 9.33384 2.06109C10.0391 2.67261 10.4728 3.61389 10.912 4.43373C11.218 5.00036 11.5373 5.54906 11.8887 6.08712C12.0168 6.28825 12.0168 6.28825 12.1706 6.59322C10.2516 7.06677 8.33262 7.54035 6.35547 8.02825C6.40874 7.22266 6.46451 6.42114 6.53442 5.61749C6.55484 5.3681 6.57137 5.1194 6.58404 4.86953C6.59143 4.73013 6.59895 4.59074 6.60654 4.45138C6.61118 4.36547 6.61578 4.27956 6.62055 4.19106C6.7126 2.8154 6.7126 2.8154 7.27167 2.29932C7.51596 2.11867 7.77362 2.04738 8.06414 1.9806Z" fill="white"/>
</svg>
