<svg width="17" height="17" viewBox="0 0 17 17" fill="none" xmlns="http://www.w3.org/2000/svg">
<g clip-path="url(#clip0_573_243)">
<path d="M8.52594 5.91406C7.42838 5.91406 6.53906 6.80373 6.53906 7.90094C6.53906 8.09254 6.56775 8.27742 6.61875 8.45308L6.61804 8.45344C6.61875 8.45592 6.61981 8.4584 6.62088 8.46088C6.66444 8.61033 6.725 8.75129 6.80079 8.88375C7.08554 9.4621 7.52577 10.0089 8.33398 10.9478C8.41225 11.0254 8.58898 11.1394 8.80679 10.9078C10.522 9.05623 10.4983 8.13929 10.4983 8.13929H10.4976C10.5068 8.06102 10.5135 7.98204 10.5135 7.90129C10.5132 6.80373 9.6235 5.91406 8.52594 5.91406Z" fill="url(#paint0_linear_573_243)"/>
<path d="M8.5 0C3.80552 0 0 3.80552 0 8.5C0 13.1945 3.80552 17 8.5 17C13.1945 17 17 13.1945 17 8.5C17 3.80552 13.1945 0 8.5 0ZM11.6822 7.92802C11.6822 7.92802 11.7187 9.4559 8.81946 12.5368C8.53258 12.8191 8.25987 12.5407 8.24287 12.5223C6.90519 10.9696 6.18127 10.0753 5.71554 9.12971C5.59371 8.91615 5.4956 8.68771 5.42512 8.44687C5.42371 8.44298 5.42194 8.43944 5.42052 8.43554L5.42194 8.43483C5.34012 8.1515 5.29408 7.85329 5.29408 7.5441C5.29408 5.77327 6.72952 4.33748 8.50071 4.33748C10.2712 4.33748 11.7066 5.77292 11.7066 7.5441C11.7066 7.67408 11.6967 7.80229 11.6815 7.92802H11.6822Z" fill="url(#paint1_linear_573_243)"/>
</g>
<defs>
<linearGradient id="paint0_linear_573_243" x1="6.53906" y1="8.63063" x2="10.5135" y2="8.63063" gradientUnits="userSpaceOnUse">
<stop stop-color="#FFAF5C"/>
<stop offset="1" stop-color="#FF8300"/>
</linearGradient>
<linearGradient id="paint1_linear_573_243" x1="0" y1="9" x2="17" y2="9" gradientUnits="userSpaceOnUse">
<stop stop-color="#FFAF5C"/>
<stop offset="1" stop-color="#FF8300"/>
</linearGradient>
<clipPath id="clip0_573_243">
<rect width="17" height="17" fill="white"/>
</clipPath>
</defs>
</svg>
