<svg width="20" height="16" viewBox="0 0 20 16" fill="none" xmlns="http://www.w3.org/2000/svg">
<path d="M18 0C19.11 0 20 0.89 20 2V14C20 15.11 19.11 16 18 16H2C0.89 16 0 15.11 0 14V2C0 0.89 0.89 0 2 0H18ZM6.5 11V5H5.25V8.5L2.75 5H1.5V11H2.75V7.5L5.3 11H6.5ZM11.5 6.26V5H7.5V11H11.5V9.75H9V8.64H11.5V7.38H9V6.26H11.5ZM18.5 10V5H17.25V9.5H16.13V6H14.88V9.5H13.75V5H12.5V10C12.5 10.2652 12.6054 10.5196 12.7929 10.7071C12.9804 10.8946 13.2348 11 13.5 11H17.5C17.7652 11 18.0196 10.8946 18.2071 10.7071C18.3946 10.5196 18.5 10.2652 18.5 10Z" fill="#FD8200"/>
</svg>
