<svg width="19" height="19" viewBox="0 0 19 19" fill="none" xmlns="http://www.w3.org/2000/svg">
<path d="M17.9322 13.6925C17.1622 12.9015 14.9738 11.4196 13.5394 11.4196C13.2072 11.4196 12.9171 11.4935 12.6798 11.6464C11.9784 12.0946 11.4195 12.4427 11.1505 12.4427C11.0029 12.4427 10.8447 12.3108 10.4966 12.0103L10.4386 11.9575C9.47356 11.119 9.2679 10.9028 8.89349 10.5126L8.79856 10.4124C8.73001 10.3438 8.672 10.2806 8.61399 10.2226C8.28704 9.88506 8.04974 9.64248 7.21126 8.69326L7.17434 8.65107C6.77356 8.19756 6.50989 7.90225 6.49407 7.68604C6.47825 7.4751 6.66282 7.13232 7.13216 6.49424C7.70169 5.72432 7.72278 4.7751 7.20071 3.67295C6.78411 2.80283 6.10384 1.96963 5.50266 1.23662L5.44993 1.17334C4.93313 0.540527 4.33196 0.224121 3.66223 0.224121C2.91868 0.224121 2.30169 0.624902 1.97473 0.83584C1.94837 0.85166 1.922 0.872754 1.89563 0.888574C1.16263 1.35264 0.630008 1.99072 0.429617 2.63936C0.129032 3.61494 -0.0713589 4.88057 1.36829 7.51201C2.61282 9.79014 3.74134 11.3194 5.53431 13.1599C7.22181 14.8896 7.97063 15.4485 9.64759 16.6614C11.5144 18.0114 13.3074 18.7866 14.5624 18.7866C15.7279 18.7866 16.6454 18.7866 17.9533 17.2099C19.3243 15.554 18.7548 14.5415 17.9322 13.6925Z" fill="#FFC991"/>
</svg>
