<svg width="150" height="119" viewBox="0 0 150 119" fill="none" xmlns="http://www.w3.org/2000/svg">
<path d="M108.514 37.5192C102.574 42.3254 99.9501 48.7885 98.24 56.074C96.5185 63.2852 92.9277 69.8704 86.6005 73.9095C76.6442 80.038 64.7158 80.5214 53.3975 81.5274C36.8963 82.9984 20.143 86.5226 7.12784 97.5782C6.87548 97.7917 6.62313 98.0052 6.36313 98.2253C3.64685 100.596 0.341149 103.808 0.0173674 107.605C-0.0319603 109.993 -0.0685142 112.093 1.28424 114.146C1.43301 114.376 1.58179 114.607 1.73506 114.844C3.25096 116.994 4.92979 118.136 7.42 118.88C8.25587 118.954 8.25587 118.954 9.14135 118.955C9.48067 118.957 9.82 118.958 10.1696 118.96C10.5397 118.959 10.9098 118.958 11.2911 118.957C11.6904 118.958 12.0897 118.959 12.4891 118.96C13.5847 118.963 14.6805 118.963 15.7763 118.961C16.9588 118.961 18.1413 118.963 19.3239 118.966C21.6408 118.969 23.9578 118.97 26.2746 118.969C28.1595 118.969 30.0444 118.969 31.9291 118.971C32.3316 118.971 32.3316 118.971 32.7423 118.971C33.2876 118.971 33.8328 118.972 34.378 118.972C39.4931 118.975 44.6082 118.975 49.7233 118.973C54.3951 118.971 59.067 118.975 63.7388 118.98C68.5405 118.986 73.3422 118.989 78.1438 118.987C80.8376 118.987 83.5314 118.988 86.2252 118.992C88.5205 118.995 90.8156 118.996 93.1109 118.992C94.2801 118.99 95.4495 118.99 96.6188 118.994C105.574 119.019 105.574 119.019 109.683 117.992C109.93 117.935 110.177 117.879 110.432 117.82C116.913 116.244 122.805 112.953 127.798 108.525C128.032 108.324 128.265 108.123 128.507 107.916C139.137 98.635 142.524 83.6832 143.732 70.109C144.499 59.5498 144.339 47.7449 137.148 39.2944C129.678 31.3341 117.046 31.1298 108.514 37.5192Z" fill="#1A1A1A"/>
<path d="M141.413 4.9425C140.279 5.94172 139.628 6.89233 139.066 8.32462C139.083 9.2951 139.083 9.2951 139.194 10.3233C139.237 12.4539 138.617 13.569 137.405 15.1697C134.659 18.8256 130.816 25.296 131.146 30.1551C131.72 30.4641 132.294 30.7711 132.869 31.0775C133.189 31.2488 133.509 31.4199 133.839 31.5963C134.666 32 134.666 32 135.253 32C135.339 31.7197 135.339 31.7197 135.426 31.4337C137.101 26.0297 138.978 21.146 142.395 16.6949C142.88 16.0115 142.88 16.0115 142.88 15.3965C143.17 15.5487 143.17 15.5487 143.466 15.7039C145.325 15.8719 146.617 15.6041 148.16 14.474C149.214 13.4265 149.858 12.4334 149.99 10.8853C150.037 8.80862 149.969 7.52809 148.746 5.8649C146.597 3.67169 144.014 3.47805 141.413 4.9425Z" fill="#1A1A1A"/>
<path d="M118.209 1.08673C116.645 1.60356 115.385 2.55838 114.641 3.99011C114.167 5.58666 114.017 7.56591 114.718 9.11366C115.053 9.56827 115.053 9.56827 115.7 10.2922C116.105 11.3059 115.954 12.0819 115.739 13.1317C114.759 18.3153 114.656 23.8601 116.013 29C117.669 28.902 119.326 28.8039 121.032 28.703C120.928 28.06 120.825 27.4168 120.718 26.7543C120.029 21.8707 120.26 16.9336 121.032 12.0738C121.214 12.0337 121.396 11.9934 121.583 11.9521C123.528 11.4447 124.648 10.7252 125.737 9.10431C126.323 7.4403 126.281 5.62785 125.717 3.96343C123.68 1.28793 121.617 0.758439 118.209 1.08673Z" fill="#1A1A1A"/>
<path d="M21.6142 59.1269C36.5436 55.4551 51.4731 51.7831 66.8551 48C67.9512 49.5153 68.9355 50.8873 69.8582 52.4858C70.0624 52.8373 70.2667 53.1889 70.4771 53.5512C70.7879 54.0905 70.7879 54.0905 71.105 54.6408C71.5215 55.3613 71.9385 56.0813 72.3563 56.801C72.5383 57.117 72.7206 57.4331 72.9083 57.7587C73.4582 58.6948 73.4582 58.6948 74.1326 59.6273C74.7667 60.5774 74.9759 61.366 75.1725 62.4925C75.6018 62.3474 76.031 62.2025 76.4733 62.0531C81.7087 60.4325 81.7087 60.4325 84.2673 61.8192C86.5145 63.3001 87.4045 64.935 88.0275 67.5733C88.5366 69.9765 88.7213 71.6016 87.4028 73.7531C85.9016 75.9614 85.0326 76.6583 82.4392 77.3058C82.1666 77.3743 81.8938 77.4429 81.613 77.5136C80.6948 77.7441 79.7762 77.9718 78.8573 78.1993C78.2006 78.3634 77.544 78.5277 76.8874 78.6921C75.1003 79.1392 73.3123 79.5835 71.5241 80.0267C70.4072 80.3035 69.2905 80.5808 68.1739 80.8581C64.681 81.7252 61.1875 82.5905 57.6937 83.4533C53.6586 84.45 49.6251 85.4531 45.593 86.4619C42.4777 87.2409 39.361 88.0137 36.2432 88.782C34.3803 89.2412 32.5183 89.703 30.6578 90.1713C28.907 90.6116 27.1545 91.0444 25.4006 91.4716C24.7575 91.6295 24.1151 91.7902 23.4733 91.9538C22.596 92.177 21.717 92.3902 20.837 92.6011C20.3457 92.723 19.8544 92.8447 19.3482 92.9703C17.0687 93.1841 15.141 92.2207 13.3225 90.85C11.4529 88.5199 10.7689 85.319 10.9574 82.3412C11.7445 80.492 12.8174 78.7635 14.3313 77.4563C15.3845 77.1667 16.4321 76.9002 17.4943 76.6518C17.7888 76.5813 18.0834 76.5108 18.3868 76.4381C19.1146 76.264 19.843 76.0926 20.5715 75.9214C20.5019 75.4401 20.4326 74.9586 20.361 74.4625C20.1536 73.0238 20.341 71.7974 20.6008 70.3735C20.8312 68.8813 20.8622 67.3799 20.9147 65.8717C20.9363 65.252 20.9596 64.6323 20.9849 64.0126C20.9943 63.7427 21.0034 63.4728 21.0129 63.1948C21.131 61.8287 21.3883 60.4786 21.6142 59.1269Z" fill="#FD8200"/>
<path d="M25.0775 35.4052C25.3776 35.3325 25.6776 35.2597 25.9867 35.1848C26.458 35.068 26.458 35.068 26.9386 34.9489C27.9823 34.6907 29.0262 34.4355 30.0703 34.1803C30.7921 34.0025 31.5137 33.8245 32.2351 33.6463C34.1382 33.1766 36.0419 32.7095 37.9457 32.2429C39.8867 31.7668 41.8272 31.2882 43.7677 30.8098C47.5782 29.8709 51.3892 28.9346 55.2007 28C56.2143 29.2346 57.1447 30.3978 57.8992 31.8187C59.0706 33.978 60.3609 36.0526 61.6572 38.1327C62.4322 39.5361 62.4322 39.5361 63.5763 42.692C49.8385 46.0937 36.1007 49.4952 21.9465 53C21.8515 50.3639 21.7837 47.9063 21.986 45.3057C22.0182 44.8617 22.0182 44.8617 22.0509 44.4089C22.1161 43.5212 22.1848 42.6338 22.2539 41.7465C22.313 40.9529 22.313 40.9529 22.3735 40.1434C22.698 35.9996 22.698 35.9996 25.0775 35.4052Z" fill="#FD8200"/>
<path d="M32.3056 0.493251C32.5985 0.424212 32.8914 0.355172 33.1933 0.284034C35.2167 -0.128123 36.7535 -0.220001 38.5956 0.899305C42.0898 3.98404 44.238 8.73227 46.414 12.8678C47.9298 15.7261 49.5115 18.494 51.2526 21.2082C51.887 22.2228 51.887 22.2228 52.6488 23.7612C43.1421 26.1499 33.6355 28.5388 23.8408 31C24.1048 26.9363 24.381 22.8931 24.7274 18.8392C24.8285 17.5812 24.9104 16.3266 24.9732 15.0662C25.0098 14.363 25.0471 13.6598 25.0847 12.9568C25.1076 12.5235 25.1304 12.0902 25.1541 11.6437C25.6101 4.70437 25.6101 4.70437 28.3797 2.10101C29.5899 1.18975 30.8664 0.830143 32.3056 0.493251Z" fill="#FD8200"/>
</svg>
