<svg width="21" height="21" viewBox="0 0 21 21" fill="none" xmlns="http://www.w3.org/2000/svg">
<path d="M10.5026 12.4165C13.149 12.4165 15.2943 9.84214 15.2943 6.6665C15.2943 3.49087 13.149 0.916504 10.5026 0.916504C7.85624 0.916504 5.71094 3.49087 5.71094 6.6665C5.71094 9.84214 7.85624 12.4165 10.5026 12.4165Z" fill="#FFC991"/>
<path d="M19.8925 17.3041C19.03 15.5791 17.4009 14.1416 15.2925 13.2791C14.7175 13.0874 14.0467 13.0874 13.5675 13.3749C12.6092 13.9499 11.6509 14.2374 10.5009 14.2374C9.35086 14.2374 8.39253 13.9499 7.43419 13.3749C6.95503 13.1833 6.28419 13.0874 5.70919 13.3749C3.60086 14.2374 1.97169 15.6749 1.10919 17.3999C0.438359 18.6458 1.49253 20.0833 2.93003 20.0833H18.0717C19.5092 20.0833 20.5634 18.6458 19.8925 17.3041Z" fill="#FFC991"/>
</svg>
