<svg width="26" height="23" viewBox="0 0 26 23" fill="none" xmlns="http://www.w3.org/2000/svg">
<g clip-path="url(#clip0_921_141)">
<path d="M5.19141 19.5711C6.98293 21.3248 9.31844 22.4951 11.8278 22.9047C10.1857 21.5346 8.8876 19.9039 7.96449 18.0498C6.98069 18.4616 6.04896 18.972 5.19141 19.5711Z" fill="#FD8200"/>
<path d="M1.97266 13.7095C2.35928 15.6208 3.23707 17.3995 4.57191 18.9183C5.50551 18.2584 6.52153 17.6954 7.59488 17.2468C6.93626 15.6944 6.55413 14.048 6.45897 12.3486L3.62856 12.3501C3.45473 13.0932 2.78825 13.6516 1.97266 13.7095Z" fill="#FD8200"/>
<path d="M13.4117 15.9735V12.3457L7.37891 12.3486C7.47294 13.9335 7.83222 15.4688 8.44775 16.9182C10.034 16.357 11.7026 16.0393 13.4117 15.9735Z" fill="#FD8200"/>
<path d="M13.4102 23V16.8496C11.8334 16.9122 10.2895 17.2053 8.81641 17.7211C9.85528 19.7847 11.4389 21.6048 13.4102 23Z" fill="#FD8200"/>
<path d="M6.4378 4.94931C6.77198 4.61223 7.24365 4.39918 7.7689 4.39918C7.92849 4.39918 8.08135 4.42456 8.22933 4.46138C9.12884 2.82031 10.3483 1.33187 11.8277 0.0947266C9.10149 0.538327 6.61576 1.86233 4.76953 3.86157C5.2989 4.26156 5.85786 4.62188 6.4378 4.94895V4.94931Z" fill="#FD8200"/>
<path d="M7.8182 7.89989C7.508 9.06018 7.34953 10.2569 7.34766 11.473L13.4101 11.4694V7.80481C12.0029 7.75047 10.6254 7.51956 9.29691 7.12207C8.97584 7.58068 8.43486 7.8838 7.8182 7.90025V7.89989Z" fill="#FD8200"/>
<path d="M4.19119 4.54004C2.86272 6.21757 2.06174 8.1589 1.82422 10.2175C1.82946 10.2175 1.83471 10.216 1.83958 10.216C2.67278 10.216 3.36848 10.7494 3.59327 11.475L6.43191 11.4732C6.43416 10.1892 6.60088 8.926 6.92644 7.70136C6.3375 7.40932 5.93139 6.82881 5.93139 6.15216C5.93139 6.00059 5.95799 5.85654 5.99546 5.71642C5.36831 5.36361 4.76327 4.97399 4.19082 4.54004H4.19119Z" fill="#FD8200"/>
<path d="M19.2962 18.982C19.2426 18.982 19.1928 18.9713 19.1411 18.9674C18.2633 20.454 17.1289 21.7841 15.7461 22.9308C18.4023 22.5369 20.8547 21.3008 22.7088 19.4192C22.085 18.9999 21.423 18.6314 20.7337 18.3086C20.3976 18.7157 19.8817 18.9824 19.2962 18.9824V18.982Z" fill="#FD8200"/>
<path d="M23.3115 18.7572C24.8726 16.9127 25.7875 14.699 25.9647 12.3398L21.1423 12.342C21.0742 13.5648 20.8572 14.7612 20.4961 15.9144C20.882 16.2361 21.1307 16.7029 21.1307 17.2302C21.1307 17.3249 21.1169 17.4164 21.1015 17.5072C21.8736 17.8675 22.6143 18.2829 23.3115 18.7572Z" fill="#FD8200"/>
<path d="M20.332 6.58867C20.8857 8.15575 21.1679 9.79574 21.1716 11.4665L26 11.464C25.9925 9.02078 25.1945 6.69162 23.6922 4.71704C22.6555 5.47055 21.5264 6.09967 20.332 6.58867Z" fill="#FD8200"/>
<path d="M13.4104 6.92852V0C11.5608 1.30864 10.0694 2.98045 9.03125 4.88425C9.38341 5.20345 9.6052 5.65206 9.6052 6.15214C9.6052 6.20003 9.59396 6.24472 9.59059 6.29118C10.8261 6.66008 12.1055 6.87455 13.4104 6.92852Z" fill="#FD8200"/>
<path d="M14.3281 6.93877C15.984 6.91053 17.6081 6.62564 19.1595 6.08982C18.1603 3.73313 16.4958 1.66955 14.3281 0.0996094V6.93877Z" fill="#FD8200"/>
<path d="M20.0135 5.76581C21.1156 5.31149 22.1605 4.72705 23.1252 4.02823C21.2247 1.88816 18.6224 0.494087 15.7422 0.0683594C17.6233 1.63222 19.093 3.59178 20.0135 5.76581Z" fill="#FD8200"/>
<path d="M14.3285 11.4697L20.2531 11.4662C20.2493 9.90874 19.9874 8.37741 19.4749 6.91113C17.8198 7.48377 16.0893 7.78797 14.3281 7.81621V11.4697H14.3285Z" fill="#FD8200"/>
<path d="M14.3281 16.8379V22.9003C15.932 21.7389 17.2631 20.2941 18.2517 18.672C17.7711 18.3556 17.4552 17.8284 17.4552 17.2293C17.4552 17.2197 17.4575 17.2111 17.4579 17.2018C16.4351 16.9791 15.388 16.8554 14.3281 16.8379Z" fill="#FD8200"/>
<path d="M17.7059 16.3589C18.0236 15.833 18.6118 15.4756 19.2932 15.4756C19.4191 15.4756 19.542 15.4877 19.6604 15.511C19.9691 14.4844 20.1598 13.4245 20.2242 12.3418L14.3281 12.345V15.9639C15.473 15.9814 16.6022 16.1158 17.7059 16.3589Z" fill="#FD8200"/>
<path d="M7.76767 4.3988C7.24205 4.3988 6.77075 4.61184 6.43658 4.94892C6.22528 5.16124 6.07205 5.42361 5.99375 5.71601C5.95629 5.85613 5.92969 6.00019 5.92969 6.15175C5.92969 6.82841 6.3358 7.40891 6.92473 7.70095C7.17836 7.82713 7.46234 7.9047 7.76804 7.9047C7.78565 7.9047 7.80214 7.90041 7.819 7.8997C8.43565 7.88325 8.97663 7.58013 9.2977 7.12152C9.46591 6.8806 9.56519 6.59571 9.59104 6.29044C9.59441 6.24397 9.60565 6.19929 9.60565 6.15139C9.60565 5.65131 9.38387 5.20271 9.0317 4.8835C8.80954 4.6819 8.53456 4.53641 8.22848 4.46063C8.08087 4.42417 7.92764 4.39844 7.76804 4.39844L7.76767 4.3988Z" fill="white"/>
<path d="M1.83798 10.2156C1.83311 10.2156 1.82787 10.217 1.82262 10.217C0.814467 10.2249 0 11.0062 0 11.9692C0 12.9322 0.823084 13.7222 1.83798 13.7222C1.88444 13.7222 1.9279 13.7122 1.9736 13.709C2.78919 13.651 3.45568 13.0927 3.62951 12.3496C3.65836 12.2266 3.67597 12.1001 3.67597 11.9689C3.67597 11.7955 3.6415 11.6318 3.59242 11.4738C3.36764 10.7482 2.67156 10.2148 1.83873 10.2148L1.83798 10.2156Z" fill="white"/>
<path d="M19.6622 15.512C19.5438 15.4887 19.4205 15.4766 19.295 15.4766C18.6135 15.4766 18.0254 15.834 17.7077 16.3598C17.5574 16.6097 17.4653 16.8949 17.4597 17.2027C17.4593 17.212 17.457 17.2206 17.457 17.2302C17.457 17.8293 17.7729 18.3566 18.2535 18.6729C18.5086 18.8413 18.8129 18.9421 19.1399 18.9685C19.1916 18.9725 19.2414 18.9832 19.295 18.9832C19.8806 18.9832 20.3965 18.7169 20.7325 18.3094C20.9224 18.0803 21.0524 17.8079 21.1034 17.5073C21.1188 17.4165 21.1326 17.325 21.1326 17.2302C21.1326 16.703 20.8842 16.2362 20.498 15.9144C20.2627 15.7186 19.9799 15.5731 19.6622 15.512Z" fill="white"/>
</g>
<defs>
<clipPath id="clip0_921_141">
<rect width="26" height="23" fill="white"/>
</clipPath>
</defs>
</svg>
