<svg width="8" height="7" viewBox="0 0 8 7" fill="none" xmlns="http://www.w3.org/2000/svg">
<path d="M7.64207 0.15607C7.55187 0.0910127 7.45011 0.0449109 7.34261 0.0203976C7.23512 -0.00411572 7.12399 -0.00656026 7.01558 0.0132038C6.90717 0.0329678 6.80359 0.074553 6.71078 0.135584C6.61796 0.196615 6.53772 0.275896 6.47463 0.368899L3.28758 5.06032L1.1979 3.58903C1.0303 3.47087 0.824025 3.42616 0.624449 3.46476C0.424873 3.50336 0.248346 3.62209 0.133702 3.79484C0.0190583 3.96759 -0.0243115 4.1802 0.0131336 4.38591C0.0505788 4.59162 0.165772 4.77357 0.333371 4.89174L3.13446 6.86379C3.22074 6.92449 3.31823 6.96618 3.42085 6.98626C3.52347 7.00635 3.62901 7.00439 3.73086 6.98051C3.8395 6.96094 3.94332 6.91946 4.03637 6.85844C4.12942 6.79743 4.20988 6.71809 4.27312 6.62496L7.84868 1.36004C7.97612 1.17204 8.02592 0.939586 7.98716 0.713755C7.94839 0.487923 7.82435 0.287587 7.64207 0.15607Z" fill="#fff"/>
</svg>
