<svg width="372" height="111" viewBox="0 0 372 111" fill="none" xmlns="http://www.w3.org/2000/svg">
<mask id="mask0_760_156" style="mask-type:luminance" maskUnits="userSpaceOnUse" x="0" y="0" width="372" height="111">
<path d="M372 0H0V111H372V0Z" fill="white"/>
</mask>
<g mask="url(#mask0_760_156)">
<path d="M101.088 40.0959C95.9528 44.24 93.6839 49.8128 92.2053 56.0947C90.7169 62.3126 87.6123 67.9906 82.1417 71.4734C73.5334 76.7577 63.22 77.1745 53.4341 78.0419C39.167 79.3103 24.682 82.349 13.4289 91.8817C13.2107 92.0658 12.9925 92.2499 12.7677 92.4397C10.4192 94.4838 7.56107 97.253 7.28113 100.527C7.23848 102.587 7.20688 104.398 8.37648 106.167C8.50511 106.366 8.63374 106.565 8.76627 106.769C10.0769 108.623 11.5285 109.608 13.6815 110.249C14.4042 110.313 14.4042 110.313 15.1698 110.314C15.4632 110.315 15.7566 110.317 16.0588 110.318C16.3788 110.318 16.6988 110.317 17.0285 110.316C17.3738 110.316 17.719 110.317 18.0643 110.319C19.0116 110.321 19.959 110.321 20.9065 110.319C21.9289 110.319 22.9513 110.321 23.9737 110.323C25.977 110.326 27.9803 110.327 29.9834 110.326C31.6131 110.326 33.2428 110.326 34.8723 110.327C35.2203 110.327 35.2203 110.327 35.5755 110.328C36.0469 110.328 36.5182 110.328 36.9896 110.329C41.4122 110.331 45.8348 110.331 50.2574 110.329C54.2967 110.328 58.336 110.331 62.3753 110.336C66.5269 110.341 70.6785 110.343 74.83 110.342C77.1591 110.341 79.4882 110.342 81.8172 110.346C83.8018 110.349 85.7862 110.349 87.7707 110.346C88.7816 110.344 89.7927 110.344 90.8037 110.347C98.5465 110.369 98.5465 110.369 102.099 109.484C102.313 109.435 102.527 109.386 102.747 109.335C108.35 107.976 113.445 105.139 117.761 101.32C117.963 101.147 118.166 100.974 118.374 100.795C127.565 92.7929 130.494 79.9008 131.538 68.1964C132.201 59.0917 132.063 48.913 125.845 41.6265C119.387 34.7627 108.465 34.5866 101.088 40.0959Z" fill="white"/>
<path d="M129.184 12.5949C128.206 13.4306 127.644 14.2256 127.159 15.4234C127.174 16.2351 127.174 16.2351 127.27 17.0949C127.307 18.8769 126.772 19.8094 125.726 21.1481C123.357 24.2056 120.041 29.6169 120.325 33.6807C120.82 33.9391 121.316 34.1959 121.812 34.4521C122.088 34.5953 122.364 34.7385 122.649 34.886C123.363 35.2236 123.363 35.2236 123.869 35.2236C123.943 34.9892 123.943 34.9892 124.019 34.75C125.464 30.2305 127.083 26.1462 130.032 22.4237C130.45 21.8521 130.45 21.8521 130.45 21.3378C130.7 21.4651 130.7 21.4651 130.956 21.5949C132.56 21.7353 133.674 21.5114 135.006 20.5663C135.916 19.6903 136.471 18.8597 136.585 17.565C136.626 15.8282 136.567 14.7573 135.512 13.3663C133.658 11.5321 131.429 11.3701 129.184 12.5949Z" fill="white"/>
<path d="M109.448 8.95544C108.065 9.40569 106.952 10.2375 106.294 11.4848C105.875 12.8756 105.742 14.5999 106.362 15.9482C106.658 16.3443 106.658 16.3443 107.23 16.9749C107.588 17.858 107.455 18.5341 107.264 19.4486C106.398 23.9644 106.307 28.7948 107.507 33.2725C108.971 33.1871 110.435 33.1017 111.944 33.0138C111.852 32.4536 111.761 31.8933 111.666 31.3161C111.057 27.0617 111.261 22.7607 111.944 18.527C112.105 18.4921 112.265 18.457 112.431 18.421C114.15 17.9789 115.14 17.3522 116.103 15.9401C116.621 14.4905 116.584 12.9115 116.086 11.4615C114.285 9.13072 112.461 8.66945 109.448 8.95544Z" fill="white"/>
<path d="M25.6346 58.5159C38.6464 55.3468 51.6583 52.1775 65.0645 48.9124C66.0198 50.2202 66.8777 51.4044 67.6819 52.784C67.8599 53.0874 68.0379 53.3908 68.2213 53.7036C68.4921 54.169 68.4921 54.169 68.7685 54.6439C69.1315 55.2658 69.4949 55.8873 69.8591 56.5085C70.0178 56.7812 70.1766 57.054 70.3402 57.335C70.8195 58.143 70.8195 58.143 71.4073 58.9478C71.9599 59.7679 72.1423 60.4485 72.3136 61.4207C72.6878 61.2955 73.0618 61.1705 73.4473 61.0415C78.0103 59.6428 78.0103 59.6428 80.2402 60.8397C82.1988 62.1178 82.9744 63.5288 83.5175 65.806C83.9611 67.8802 84.1221 69.2828 82.973 71.1397C81.6646 73.0457 80.9072 73.6471 78.6469 74.206C78.4093 74.2652 78.1716 74.3244 77.9269 74.3854C77.1266 74.5843 76.3259 74.7808 75.5251 74.9772C74.9527 75.1189 74.3805 75.2606 73.8083 75.4026C72.2507 75.7884 70.6923 76.1719 69.1339 76.5545C68.1604 76.7933 67.1871 77.0326 66.2139 77.272C63.1696 78.0204 60.1249 78.7672 57.0799 79.5119C53.563 80.3721 50.0476 81.2379 46.5334 82.1086C43.8182 82.781 41.1019 83.448 38.3846 84.111C36.761 84.5074 35.1381 84.906 33.5166 85.3101C31.9907 85.6902 30.4633 86.0638 28.9346 86.4324C28.3741 86.5687 27.8142 86.7074 27.2549 86.8486C26.4903 87.0413 25.7242 87.2253 24.9573 87.4073C24.529 87.5125 24.1008 87.6176 23.6596 87.7259C21.6729 87.9105 19.9928 87.079 18.4079 85.8959C16.7785 83.8849 16.1823 81.1222 16.3466 78.552C17.0326 76.956 17.9677 75.4641 19.2872 74.3359C20.2051 74.086 21.1181 73.856 22.0439 73.6415C22.3005 73.5807 22.5573 73.5199 22.8217 73.4571C23.456 73.3069 24.0909 73.1589 24.7258 73.0112C24.6652 72.5958 24.6047 72.1802 24.5424 71.752C24.3616 70.5103 24.5249 69.4518 24.7513 68.2228C24.9522 66.9349 24.9792 65.639 25.025 64.3374C25.0437 63.8025 25.0641 63.2676 25.0861 62.7327C25.0943 62.4998 25.1023 62.2668 25.1106 62.0269C25.2134 60.8478 25.4377 59.6826 25.6346 58.5159Z" fill="#FD8200"/>
<path d="M28.9854 38.6222C29.2451 38.5603 29.5047 38.4983 29.7722 38.4345C30.1801 38.335 30.1801 38.335 30.5962 38.2337C31.4994 38.0139 32.403 37.7966 33.3067 37.5793C33.9314 37.4279 34.5559 37.2764 35.1803 37.1247C36.8275 36.7248 38.4752 36.3271 40.1229 35.9299C41.8028 35.5245 43.4823 35.1171 45.1619 34.7098C48.4599 33.9104 51.7583 33.1133 55.0572 32.3176C55.9345 33.3687 56.7398 34.359 57.3928 35.5688C58.4067 37.4071 59.5234 39.1733 60.6453 40.9443C61.3161 42.1391 61.3161 42.1391 62.3064 44.8259C50.4162 47.7219 38.526 50.6178 26.2754 53.6017C26.1932 51.3574 26.1345 49.2651 26.3096 47.051C26.3375 46.6731 26.3375 46.6731 26.3658 46.2875C26.4222 45.5318 26.4816 44.7763 26.5415 44.0209C26.5927 43.3453 26.5927 43.3453 26.645 42.656C26.9259 39.1282 26.9259 39.1282 28.9854 38.6222Z" fill="#FD8200"/>
<path d="M34.8808 8.45578C35.1365 8.39735 35.3923 8.33892 35.6559 8.27872C37.4226 7.9299 38.7644 7.85214 40.3729 8.79944C43.4238 11.4101 45.2995 15.4287 47.1995 18.9288C48.523 21.3478 49.9041 23.6904 51.4243 25.9875C51.9782 26.8462 51.9782 26.8462 52.6433 28.1481C44.3427 30.1698 36.042 32.1917 27.4897 34.2746C27.7202 30.8354 27.9614 27.4135 28.2638 23.9825C28.3522 22.9178 28.4237 21.8561 28.4785 20.7893C28.5104 20.1942 28.543 19.5991 28.5758 19.0041C28.5959 18.6374 28.6158 18.2706 28.6364 17.8928C29.0346 12.0198 29.0346 12.0198 31.4529 9.81648C32.5096 9.04525 33.6241 8.74091 34.8808 8.45578Z" fill="#FD8200"/>
<path d="M184.943 36.6465H176.008V30.4697H184.943C186.262 30.4697 187.32 30.25 188.117 29.8105C188.931 29.3711 189.525 28.7689 189.899 28.0039C190.29 27.2227 190.485 26.3438 190.485 25.3672C190.485 24.3581 190.29 23.4222 189.899 22.5596C189.525 21.6807 188.931 20.9727 188.117 20.4355C187.32 19.8984 186.262 19.6299 184.943 19.6299H178.889V49H170.93V13.4531H184.943C187.775 13.4531 190.201 13.9658 192.219 14.9912C194.253 16.0166 195.808 17.4245 196.882 19.2148C197.972 20.9889 198.518 23.0234 198.518 25.3184C198.518 27.6133 197.972 29.6071 196.882 31.2998C195.808 32.9925 194.253 34.3109 192.219 35.2549C190.201 36.1826 187.775 36.6465 184.943 36.6465ZM213.923 20.2158L204.743 49H196.247L209.406 13.4531H214.777L213.923 20.2158ZM221.54 49L212.336 20.2158L211.384 13.4531H216.828L230.036 49H221.54ZM221.149 35.7676V41.9199H202.619V35.7676H221.149ZM247.199 33.6436H238.068L238.02 28.3213H245.563C246.898 28.3213 247.98 28.1585 248.811 27.833C249.657 27.5075 250.275 27.0355 250.666 26.417C251.057 25.7822 251.252 25.001 251.252 24.0732C251.252 23.0153 251.057 22.1608 250.666 21.5098C250.275 20.8587 249.657 20.3867 248.811 20.0938C247.98 19.7845 246.906 19.6299 245.588 19.6299H240.949V49H232.99V13.4531H245.588C247.72 13.4531 249.624 13.6484 251.301 14.0391C252.977 14.4297 254.401 15.0319 255.573 15.8457C256.761 16.6595 257.665 17.6768 258.283 18.8975C258.902 20.1182 259.211 21.5586 259.211 23.2188C259.211 24.6673 258.885 26.0182 258.234 27.2715C257.6 28.5247 256.574 29.542 255.158 30.3232C253.742 31.1045 251.846 31.5277 249.47 31.5928L247.199 33.6436ZM246.882 49H236.042L238.923 42.8477H246.882C248.103 42.8477 249.095 42.6523 249.86 42.2617C250.625 41.8711 251.187 41.3421 251.545 40.6748C251.903 40.0075 252.082 39.2588 252.082 38.4287C252.082 37.4521 251.911 36.6058 251.569 35.8896C251.244 35.1735 250.723 34.6201 250.007 34.2295C249.307 33.8389 248.371 33.6436 247.199 33.6436H240.07L240.119 28.3213H248.835L250.69 30.4209C252.953 30.3721 254.759 30.7383 256.11 31.5195C257.478 32.2845 258.462 33.2936 259.064 34.5469C259.667 35.8001 259.968 37.1266 259.968 38.5264C259.968 40.8376 259.471 42.7744 258.479 44.3369C257.486 45.8831 256.013 47.0469 254.06 47.8281C252.123 48.6094 249.73 49 246.882 49ZM289.045 13.4531V19.6299H271.027V13.4531H289.045ZM294.562 13.4531V49H286.604V13.4531H294.562ZM270.271 13.4531H278.181L277.277 31.4219C277.131 34.1074 276.862 36.443 276.472 38.4287C276.097 40.3981 275.576 42.0664 274.909 43.4336C274.258 44.7845 273.469 45.875 272.541 46.7051C271.613 47.5189 270.531 48.1048 269.294 48.4629C268.057 48.821 266.649 49 265.07 49H263.142V42.8477L264.069 42.75C264.851 42.6849 265.526 42.4814 266.096 42.1396C266.682 41.7979 267.186 41.2933 267.609 40.626C268.033 39.9424 268.382 39.0716 268.659 38.0137C268.952 36.9557 269.18 35.6699 269.343 34.1562C269.522 32.6426 269.644 30.8685 269.709 28.834L270.271 13.4531ZM307.99 36.6953L321.54 13.4531H329.475V49H321.54V25.7822L307.99 49H300.056V13.4531H307.99V36.6953ZM343.171 13.4531V49H335.236V13.4531H343.171ZM363.898 13.4531L350.69 34.6201H341.608L340.632 27.5156H346.54L354.279 13.4531H363.898ZM355.671 49L346.54 33.2773L352.18 27.8086L365.095 49H355.671Z" fill="white"/>
<path d="M200.349 72.4531V108H192.39V78.6299H178.864V108H170.93V72.4531H200.349ZM234.504 101.848V108H209.211V101.848H234.504ZM211.701 101.848V116.716H204.304L203.815 101.848H211.701ZM240.046 101.848L239.289 116.74H232.087V101.848H240.046ZM230.622 72.4531V78.6299H213.142V72.4531H230.622ZM236.115 72.4531V108H228.205V72.4531H236.115ZM212.409 72.4531H220.344L219.343 86.9795C219.18 89.4209 218.903 91.5612 218.513 93.4004C218.138 95.2233 217.691 96.8184 217.17 98.1855C216.649 99.5527 216.071 100.733 215.437 101.726C214.818 102.718 214.159 103.589 213.459 104.338C212.775 105.07 212.092 105.729 211.408 106.315C210.725 106.885 210.057 107.447 209.406 108H204.694V101.848H206.379C206.867 101.473 207.364 100.961 207.868 100.31C208.389 99.6585 208.885 98.7796 209.357 97.6729C209.829 96.5661 210.244 95.1419 210.603 93.4004C210.961 91.6589 211.221 89.5186 211.384 86.9795L212.409 72.4531ZM257.453 95.6465H248.518V89.4697H257.453C258.771 89.4697 259.829 89.25 260.627 88.8105C261.441 88.3711 262.035 87.7689 262.409 87.0039C262.8 86.2227 262.995 85.3438 262.995 84.3672C262.995 83.3581 262.8 82.4222 262.409 81.5596C262.035 80.6807 261.441 79.9727 260.627 79.4355C259.829 78.8984 258.771 78.6299 257.453 78.6299H251.398V108H243.439V72.4531H257.453C260.285 72.4531 262.71 72.9658 264.729 73.9912C266.763 75.0166 268.317 76.4245 269.392 78.2148C270.482 79.9889 271.027 82.0234 271.027 84.3184C271.027 86.6133 270.482 88.6071 269.392 90.2998C268.317 91.9925 266.763 93.3109 264.729 94.2549C262.71 95.1826 260.285 95.6465 257.453 95.6465Z" fill="#FD8200"/>
</g>
</svg>
