<svg width="63" height="36" viewBox="0 0 63 36" fill="none" xmlns="http://www.w3.org/2000/svg">
<path d="M62.2326 5.41156V29.7635C62.2326 32.7521 59.8098 35.175 56.8211 35.175H44.6451C41.6565 35.175 39.2335 32.7521 39.2335 29.7635C39.2335 32.7521 36.8106 35.175 33.822 35.175H5.41156C2.42282 35.175 0 32.7521 0 29.7635V5.41156C0 2.42294 2.42282 0 5.41156 0H33.8221C36.8107 0 39.2337 2.42282 39.2337 5.41156C39.2337 2.42294 41.6566 0 44.6452 0H56.8212C59.8097 0 62.2326 2.42294 62.2326 5.41156Z" fill="#F4DA84"/>
<path d="M62.2325 5.41156V29.7635C62.2325 32.7521 59.8097 35.175 56.8209 35.175H44.645C41.6563 35.175 39.2334 32.7521 39.2334 29.7635V5.41156C39.2334 2.42294 41.6563 0 44.645 0H56.8209C59.8095 0 62.2325 2.42294 62.2325 5.41156Z" fill="#FFEE92"/>
<path d="M62.2326 5.41156V9.47018H0V5.41156C0 2.42294 2.42282 0 5.41156 0H33.8221C36.8107 0 39.2337 2.42282 39.2337 5.41156C39.2337 2.42294 41.6566 0 44.6452 0H56.8212C59.8097 0 62.2326 2.42294 62.2326 5.41156Z" fill="#FF8D40"/>
<path d="M62.2326 5.41156V9.47018H39.2336V5.41156C39.2336 2.42294 41.6566 0 44.6452 0H56.8212C59.8097 0 62.2326 2.42294 62.2326 5.41156Z" fill="#FFA669"/>
<path d="M48.7038 25.7049V28.4107C48.7038 28.971 48.2495 29.4253 47.6891 29.4253C47.1288 29.4253 46.6744 28.971 46.6744 28.4105V25.7047C46.6744 25.1444 47.1288 24.6901 47.6891 24.6901C48.2495 24.6901 48.7038 25.1444 48.7038 25.7049ZM50.3949 24.6902C49.8346 24.6902 49.3802 25.1445 49.3802 25.7049V28.4107C49.3802 28.971 49.8346 29.4253 50.3949 29.4253C50.9552 29.4253 51.4096 28.971 51.4096 28.4107V25.7049C51.4096 25.1444 50.9552 24.6902 50.3949 24.6902ZM44.3069 24.6902C43.7466 24.6902 43.2922 25.1445 43.2922 25.7049V28.4107C43.2922 28.971 43.7466 29.4253 44.3069 29.4253C44.8673 29.4253 45.3216 28.971 45.3216 28.4107V25.7049C45.3216 25.1444 44.8673 24.6902 44.3069 24.6902ZM54.4535 24.6902C53.8932 24.6902 53.4388 25.1445 53.4388 25.7049V28.4107C53.4388 28.971 53.8932 29.4253 54.4535 29.4253C55.0138 29.4253 55.4682 28.971 55.4682 28.4107V25.7049C55.4682 25.1444 55.0138 24.6902 54.4535 24.6902ZM57.1593 24.6902C56.599 24.6902 56.1446 25.1445 56.1446 25.7049V28.4107C56.1446 28.971 56.599 29.4253 57.1593 29.4253C57.7196 29.4253 58.174 28.971 58.174 28.4107V25.7049C58.174 25.1444 57.7196 24.6902 57.1593 24.6902Z" fill="#666666"/>
<path d="M4.39697 5.41157C4.39697 4.85123 4.85132 4.39688 5.41166 4.39688H18.9404C19.5008 4.39688 19.9551 4.85123 19.9551 5.41157C19.9551 5.9719 19.5008 6.42625 18.9404 6.42625H5.41166C4.85132 6.42625 4.39697 5.9719 4.39697 5.41157ZM18.9404 27.396H5.41166C4.85132 27.396 4.39697 27.8503 4.39697 28.4107C4.39697 28.971 4.85132 29.4253 5.41166 29.4253H18.9404C19.5008 29.4253 19.9551 28.971 19.9551 28.4107C19.9551 27.8503 19.5008 27.396 18.9404 27.396ZM25.7048 23.3372H5.41166C4.85132 23.3372 4.39697 23.7916 4.39697 24.3519C4.39697 24.9123 4.85132 25.3666 5.41166 25.3666H25.705C26.2653 25.3666 26.7196 24.9123 26.7196 24.3519C26.7196 23.7916 26.2652 23.3372 25.7048 23.3372ZM50.0568 4.39688H44.6452C44.0849 4.39688 43.6305 4.85123 43.6305 5.41157C43.6305 5.9719 44.0849 6.42625 44.6452 6.42625H50.0568C50.6171 6.42625 51.0714 5.9719 51.0714 5.41157C51.0714 4.85123 50.6171 4.39688 50.0568 4.39688Z" fill="#E55D30"/>
</svg>
