<?xml version="1.0" standalone="no"?>
<!DOCTYPE svg PUBLIC "-//W3C//DTD SVG 20010904//EN"
 "http://www.w3.org/TR/2001/REC-SVG-20010904/DTD/svg10.dtd">
<svg version="1.0" xmlns="http://www.w3.org/2000/svg"
 width="80.000000pt" height="80.000000pt" viewBox="0 0 80.000000 80.000000"
 preserveAspectRatio="xMidYMid meet">
<metadata>
Created by potrace 1.14, written by Peter Selinger 2001-2017
</metadata>
<g transform="translate(0.000000,80.000000) scale(0.100000,-0.100000)"
fill="#000000" stroke="none">
<path d="M151 696 c-7 -8 -15 -44 -18 -81 l-5 -66 28 7 c97 24 119 32 117 42
-2 6 -17 34 -34 62 -32 52 -64 65 -88 36z"/>
<path d="M623 698 c-8 -11 -10 -64 -4 -130 2 -34 26 -8 25 27 -1 20 4 42 12
50 19 18 18 51 -2 59 -21 8 -20 8 -31 -6z"/>
<path d="M753 683 c-7 -2 -13 -12 -13 -21 0 -9 -9 -30 -20 -47 -21 -32 -26
-65 -10 -65 5 0 16 16 24 35 9 21 26 39 42 45 18 7 24 15 20 26 -3 9 -6 20 -6
25 0 10 -17 11 -37 2z"/>
<path d="M206 540 c-37 -10 -72 -22 -78 -28 -5 -5 -8 -25 -6 -44 l3 -34 108
25 c59 13 107 27 107 30 0 16 -41 71 -52 70 -7 0 -44 -9 -82 -19z"/>
<path d="M592 520 c-31 -19 -71 -86 -72 -120 0 -8 -11 -28 -25 -45 -14 -16
-24 -25 -23 -20 6 28 -14 55 -42 55 -22 0 -33 8 -49 36 -15 25 -26 34 -39 30
-9 -3 -60 -15 -112 -27 -97 -22 -121 -33 -119 -53 4 -35 -3 -66 -15 -66 -25 0
-40 -29 -30 -58 9 -24 6 -30 -23 -57 -40 -36 -48 -66 -23 -92 16 -18 33 -19
296 -19 l279 1 48 28 c58 34 95 88 113 163 14 62 12 170 -4 199 -31 59 -104
79 -160 45z"/>
</g>
</svg>
