<svg width="20" height="18" viewBox="0 0 20 18" fill="none" xmlns="http://www.w3.org/2000/svg">
<path d="M1.42847 2.13487V7.27773M1.42847 7.27773H6.57132M1.42847 7.27773L5.40561 3.54058C6.58925 2.35894 8.12485 1.59398 9.78105 1.36097C11.4372 1.12795 13.1243 1.4395 14.588 2.24867C16.0518 3.05783 17.2129 4.32079 17.8964 5.84724C18.58 7.37369 18.7489 9.08094 18.3778 10.7117C18.0067 12.3426 17.1156 13.8086 15.8389 14.8889C14.5621 15.9693 12.9688 16.6055 11.2991 16.7016C9.62934 16.7977 7.97359 16.3485 6.58131 15.4218C5.18904 14.495 4.13566 13.1409 3.5799 11.5634" stroke="#444444" stroke-width="2" stroke-linecap="round" stroke-linejoin="round"/>
</svg>
