<svg width="30" height="30" viewBox="0 0 30 30" fill="none" xmlns="http://www.w3.org/2000/svg">
<path d="M4.37749 10.0046C3.3422 10.0046 2.50293 10.8439 2.50293 11.8792V20.6271C2.50293 21.6624 3.3422 22.5017 4.37749 22.5017C5.41277 22.5017 6.25205 21.6624 6.25205 20.6271V11.8792C6.25205 10.8439 5.41277 10.0046 4.37749 10.0046Z" fill="#9A99A2"/>
<path d="M25.6224 10.0046C24.5871 10.0046 23.7478 10.8439 23.7478 11.8792V20.6271C23.7478 21.6624 24.5871 22.5017 25.6224 22.5017C26.6576 22.5017 27.4969 21.6624 27.4969 20.6271V11.8792C27.4969 10.8439 26.6577 10.0046 25.6224 10.0046Z" fill="#9A99A2"/>
<path d="M21.8733 10.0046H8.12658C7.78149 10.0046 7.50171 10.2844 7.50171 10.6295V20.6271C7.50142 22.112 8.54625 23.3919 10.0011 23.6889V28.1254C10.0011 29.1607 10.8404 29.9999 11.8757 29.9999C12.911 29.9999 13.7503 29.1607 13.7503 28.1254V23.7514H16.2497V28.1254C16.2497 29.1607 17.089 29.9999 18.1243 29.9999C19.1595 29.9999 19.9988 29.1607 19.9988 28.1254V23.6889C21.4537 23.3919 22.4985 22.112 22.4983 20.6271V10.6295C22.4982 10.2844 22.2184 10.0046 21.8733 10.0046Z" fill="#9A99A2"/>
<path d="M19.5427 2.59644L21.0661 1.0743C21.3143 0.834531 21.3212 0.438998 21.0815 0.190736C20.8417 -0.0574675 20.4462 -0.0643214 20.1979 0.175388C20.1927 0.180426 20.1876 0.185522 20.1826 0.190736L18.408 1.96536C16.2346 1.02122 13.7668 1.02122 11.5933 1.96536L9.81875 0.189506C9.57055 -0.0502621 9.17496 -0.0433497 8.93519 0.204854C8.70134 0.447024 8.70134 0.830899 8.93519 1.07301L10.4573 2.59638C8.6017 3.82422 7.49032 5.90504 7.5018 8.13009C7.5018 8.47518 7.78158 8.75496 8.12667 8.75496H21.8735C22.2186 8.75496 22.4983 8.47518 22.4983 8.13009C22.5098 5.9051 21.3984 3.82428 19.5427 2.59644Z" fill="#9A99A2"/>
<path d="M11.8756 6.25561C12.2207 6.25561 12.5005 5.97584 12.5005 5.63073C12.5005 5.28562 12.2207 5.00586 11.8756 5.00586C11.5305 5.00586 11.2507 5.28562 11.2507 5.63073C11.2507 5.97584 11.5305 6.25561 11.8756 6.25561Z" fill="#FAFAFA"/>
<path d="M18.1241 6.25561C18.4693 6.25561 18.749 5.97584 18.749 5.63073C18.749 5.28562 18.4693 5.00586 18.1241 5.00586C17.779 5.00586 17.4993 5.28562 17.4993 5.63073C17.4993 5.97584 17.779 6.25561 18.1241 6.25561Z" fill="#FAFAFA"/>
</svg>
