<svg width="30" height="30" viewBox="0 0 30 30" fill="none" xmlns="http://www.w3.org/2000/svg">
<path d="M10.8547 30C6.38981 29.9743 2.69653 20.8599 2.69653 16.2182C2.69653 8.63592 8.38452 6.97596 10.5766 6.97596C11.5645 6.97596 12.6194 7.36391 13.5498 7.70721C14.2004 7.94668 14.8733 8.19389 15.2475 8.19389C15.4716 8.19389 15.9994 7.98359 16.4655 7.79908C17.4594 7.4034 18.6962 6.91162 20.1364 6.91162C20.139 6.91162 20.1425 6.91162 20.145 6.91162C21.2204 6.91162 24.4812 7.14764 26.4415 10.0916L26.9007 10.7817L26.2399 11.2804C25.2957 11.9928 23.5731 13.2922 23.5731 15.8663C23.5731 18.915 25.524 20.0875 26.4613 20.6514C26.875 20.9003 27.3033 21.1569 27.3033 21.7183C27.3033 22.0848 24.3782 29.9545 20.1304 29.9545C19.091 29.9545 18.3563 29.6421 17.7083 29.3666C17.0525 29.0877 16.4869 28.8474 15.5522 28.8474C15.0784 28.8474 14.4793 29.0714 13.845 29.3091C12.9782 29.6326 11.9971 30 10.8839 30H10.8547Z" fill="#9A99A2"/>
<path d="M20.5865 0C20.6971 3.98883 17.8445 6.75609 14.9952 6.58254C14.5257 3.39932 17.8441 0 20.5865 0Z" fill="#9A99A2"/>
</svg>
