<svg width="21" height="21" viewBox="0 0 21 21" fill="none" xmlns="http://www.w3.org/2000/svg">
<path d="M2.625 3.4126H7.35C8.18543 3.4126 8.98664 3.74447 9.57738 4.33521C10.1681 4.92595 10.5 5.72716 10.5 6.5626V17.5876C10.5 16.961 10.2511 16.3601 9.80804 15.9171C9.36498 15.474 8.76407 15.2251 8.1375 15.2251H2.625V3.4126Z" stroke="#7E809F" stroke-width="2" stroke-linecap="round" stroke-linejoin="round"/>
<path d="M18.375 3.4126H13.65C12.8146 3.4126 12.0134 3.74447 11.4226 4.33521C10.8319 4.92595 10.5 5.72716 10.5 6.5626V17.5876C10.5 16.961 10.7489 16.3601 11.192 15.9171C11.635 15.474 12.2359 15.2251 12.8625 15.2251H18.375V3.4126Z" stroke="#7E809F" stroke-width="2" stroke-linecap="round" stroke-linejoin="round"/>
</svg>
