<svg width="24" height="24" viewBox="0 0 24 24" fill="none" xmlns="http://www.w3.org/2000/svg">
<path fill-rule="evenodd" clip-rule="evenodd" d="M1 12C1 18.0751 5.92487 23 12 23C18.0751 23 23 18.0751 23 12C23 5.92487 18.0751 1 12 1C5.92487 1 1 5.92487 1 12ZM21 12C21 16.9706 16.9706 21 12 21C7.02944 21 3 16.9706 3 12C3 7.02944 7.02944 3 12 3C16.9706 3 21 7.02944 21 12Z" fill="#FE5858"/>
<path fill-rule="evenodd" clip-rule="evenodd" d="M10.6464 12.0607L8 14.7071L9.41421 16.1213L12.0607 13.4749L14.7071 16.1213L16.1213 14.7071L13.4749 12.0607L16.1213 9.41421L14.7071 8L12.0607 10.6464L9.41421 8L8 9.41421L10.6464 12.0607Z" fill="#FE5858"/>
</svg>
