<svg width="18" height="16" viewBox="0 0 18 16" fill="none" xmlns="http://www.w3.org/2000/svg">
<path d="M0.666626 5.91667V1.33333C0.666626 1.11232 0.754423 0.900358 0.910704 0.744078C1.06698 0.587797 1.27895 0.5 1.49996 0.5H16.5C16.721 0.5 16.9329 0.587797 17.0892 0.744078C17.2455 0.900358 17.3333 1.11232 17.3333 1.33333V5.91667C16.7808 5.91667 16.2509 6.13616 15.8602 6.52686C15.4695 6.91756 15.25 7.44747 15.25 8C15.25 8.55253 15.4695 9.08244 15.8602 9.47314C16.2509 9.86384 16.7808 10.0833 17.3333 10.0833V14.6667C17.3333 14.8877 17.2455 15.0996 17.0892 15.2559C16.9329 15.4122 16.721 15.5 16.5 15.5H1.49996C1.27895 15.5 1.06698 15.4122 0.910704 15.2559C0.754423 15.0996 0.666626 14.8877 0.666626 14.6667V10.0833C1.21916 10.0833 1.74906 9.86384 2.13977 9.47314C2.53047 9.08244 2.74996 8.55253 2.74996 8C2.74996 7.44747 2.53047 6.91756 2.13977 6.52686C1.74906 6.13616 1.21916 5.91667 0.666626 5.91667ZM2.33329 4.64C2.9593 4.95025 3.48619 5.42921 3.85455 6.02288C4.22291 6.61656 4.41809 7.30133 4.41809 8C4.41809 8.69867 4.22291 9.38344 3.85455 9.97712C3.48619 10.5708 2.9593 11.0498 2.33329 11.36V13.8333H15.6666V11.36C15.0406 11.0498 14.5137 10.5708 14.1454 9.97712C13.777 9.38344 13.5818 8.69867 13.5818 8C13.5818 7.30133 13.777 6.61656 14.1454 6.02288C14.5137 5.42921 15.0406 4.95025 15.6666 4.64V2.16667H2.33329V4.64ZM6.49996 5.5H11.5V7.16667H6.49996V5.5ZM6.49996 8.83333H11.5V10.5H6.49996V8.83333Z" fill="white"/>
</svg>
