<svg width="18" height="16" viewBox="0 0 18 16" fill="none" xmlns="http://www.w3.org/2000/svg">
<path d="M0.666664 5.91667V1.33333C0.666664 1.11232 0.754461 0.900358 0.910742 0.744078C1.06702 0.587797 1.27898 0.5 1.5 0.5H16.5C16.721 0.5 16.933 0.587797 17.0893 0.744078C17.2455 0.900358 17.3333 1.11232 17.3333 1.33333V5.91667C16.7808 5.91667 16.2509 6.13616 15.8602 6.52686C15.4695 6.91756 15.25 7.44747 15.25 8C15.25 8.55253 15.4695 9.08244 15.8602 9.47314C16.2509 9.86384 16.7808 10.0833 17.3333 10.0833V14.6667C17.3333 14.8877 17.2455 15.0996 17.0893 15.2559C16.933 15.4122 16.721 15.5 16.5 15.5H1.5C1.27898 15.5 1.06702 15.4122 0.910742 15.2559C0.754461 15.0996 0.666664 14.8877 0.666664 14.6667V10.0833C1.2192 10.0833 1.7491 9.86384 2.1398 9.47314C2.5305 9.08244 2.75 8.55253 2.75 8C2.75 7.44747 2.5305 6.91756 2.1398 6.52686C1.7491 6.13616 1.2192 5.91667 0.666664 5.91667ZM2.33333 4.64C2.95934 4.95025 3.48622 5.42921 3.85458 6.02288C4.22294 6.61656 4.41813 7.30133 4.41813 8C4.41813 8.69867 4.22294 9.38344 3.85458 9.97712C3.48622 10.5708 2.95934 11.0498 2.33333 11.36V13.8333H15.6667V11.36C15.0407 11.0498 14.5138 10.5708 14.1454 9.97712C13.7771 9.38344 13.5819 8.69867 13.5819 8C13.5819 7.30133 13.7771 6.61656 14.1454 6.02288C14.5138 5.42921 15.0407 4.95025 15.6667 4.64V2.16667H2.33333V4.64ZM6.5 5.5H11.5V7.16667H6.5V5.5ZM6.5 8.83333H11.5V10.5H6.5V8.83333Z" fill="#7E809F"/>
</svg>
