<svg width="146" height="111" viewBox="0 0 146 111" fill="none" xmlns="http://www.w3.org/2000/svg">
<path opacity="0.13" d="M50.0658 96.534C53.6017 104.47 65.6546 105.649 74.2673 99.157C82.88 92.6649 90.9344 92.9641 96.1952 102.313C101.456 111.662 134.918 117.856 132.907 89.0843C130.896 60.3126 103.97 58.1325 114.05 44.7278C124.13 31.3232 119.686 10.4645 105.172 9.48654C90.6568 8.50854 90.7663 27.5485 74.8032 17.1132C58.8401 6.67801 39.2337 12.8827 35.9785 29.2128C32.7234 45.5428 25.1252 43.2919 11.2273 47.1117C-2.67069 50.9315 -5.28885 80.4656 12.6831 84.827C30.655 89.1883 41.8657 78.1225 50.0658 96.534Z" fill="url(#paint0_radial)"/>
<path d="M96.5278 92.363C111.258 88.6815 121.396 85.7664 117.56 80.4836C113.723 75.2007 115.177 73.7015 125.639 70.896C136.101 68.0906 129.883 64.7783 123.818 62.8462C117.754 60.914 137.175 61.1089 136.093 54.6529C135.01 48.1969 125.149 51.8353 133.168 47.4163C141.187 42.9974 142.486 40.1179 138.721 37.558C134.955 34.9981 133.803 36.9143 141.725 29.1511C149.646 21.388 141.277 17.7402 136.878 22.4777C132.48 27.2153 128.392 43.4668 126.339 37.7211C124.286 31.9753 116.863 29.3385 117.971 42.825C119.078 56.3114 109.54 35.5922 107.208 42.0088C104.876 48.4255 113.926 61.1783 108.33 60.1813C102.734 59.1843 105.117 47.5888 98.5353 47.8614C91.9537 48.1341 98.4833 71.7112 95.1878 78.8391C91.8924 85.967 92.2755 93.4256 96.5278 92.363Z" fill="url(#paint1_radial)"/>
<g opacity="0.51">
<path opacity="0.51" d="M129.272 41.3557C133.328 34.8359 136.029 30.3589 136.029 30.3589C134.351 33.3452 132 37.1382 129.272 41.3557Z" fill="white"/>
<path opacity="0.51" d="M109.29 70.6956C114.247 63.6446 119.89 55.5103 124.895 48.0067C124.512 45.3887 120.738 38.9177 120.738 38.9177C122.668 41.1328 124.974 46.8017 125.247 47.483C126.652 45.3756 128.003 43.3217 129.272 41.3605C127.98 43.4369 126.551 45.7204 125.028 48.1332L124.926 48.3741C124.926 48.3497 124.926 48.3244 124.926 48.2991C123.299 50.8749 121.568 53.5942 119.783 56.3574C119.783 56.3574 124.185 53.7188 127.511 54.3616C127.511 54.3616 122.355 54.6427 118.902 57.7208L118.916 57.6992C117.167 60.4016 115.376 63.1339 113.591 65.8147C115.098 65.5495 119.439 65.0922 122.899 67.7824C122.899 67.7824 116.999 65.1025 112.659 67.2136C106.119 76.9698 99.7773 85.7777 96.0142 89.3271C96.0142 89.3271 101.455 81.8207 108.454 71.8828C107.881 66.6645 101.387 59.3774 101.387 59.3774C105.414 62.4677 109.028 70.1324 109.29 70.6956Z" fill="white"/>
</g>
<path d="M58.9381 57.4994L41.4888 66.2743C40.3114 66.8621 38.9498 66.9562 37.7014 66.536C36.453 66.1158 35.4193 65.2154 34.826 64.0315L13.911 21.9971C13.3246 20.8096 13.228 19.4377 13.6421 18.1811C14.0563 16.9245 14.9477 15.8851 16.1216 15.2901L33.5701 6.51536C34.7476 5.92726 36.1094 5.83301 37.3579 6.25322C38.6065 6.67343 39.6404 7.57394 40.2338 8.758L61.1491 50.795C61.7345 51.9823 61.8305 53.3535 61.4163 54.6094C61.0021 55.8654 60.1113 56.9043 58.9381 57.4994Z" fill="white"/>
<path d="M58.6109 55.1992L39.8549 64.6344C39.263 64.932 38.5774 64.9804 37.949 64.7688C37.3205 64.5573 36.8006 64.1031 36.5037 63.5063L15.6183 21.5298C15.4712 21.2342 15.3833 20.9125 15.3595 20.5831C15.3358 20.2536 15.3768 19.9228 15.48 19.6095C15.5833 19.2963 15.7469 19.0068 15.9614 18.7575C16.1759 18.5082 16.4372 18.3041 16.7303 18.1568L35.4852 8.71916C35.7782 8.57156 36.0974 8.48365 36.4244 8.46047C36.7515 8.43729 37.08 8.47928 37.3913 8.58405C37.7025 8.68883 37.9903 8.85432 38.2383 9.07107C38.4863 9.28783 38.6895 9.55159 38.8364 9.84727L59.7221 51.8263C59.8692 52.1218 59.9572 52.4434 59.981 52.7728C60.0047 53.1023 59.9639 53.433 59.8607 53.7463C59.7575 54.0595 59.594 54.349 59.3796 54.5983C59.1651 54.8476 58.904 55.0518 58.6109 55.1992Z" fill="url(#paint2_radial)"/>
<path d="M28.9198 10.8239L22.3405 14.133C22.3074 14.149 22.2693 14.1513 22.2344 14.1394C22.1996 14.1274 22.1707 14.1022 22.1541 14.0691C22.1373 14.0353 22.1344 13.9963 22.1461 13.9605C22.1578 13.9247 22.1832 13.895 22.2166 13.8781L28.7951 10.5691C28.8285 10.5522 28.8673 10.5494 28.9029 10.5613C28.9384 10.5732 28.9679 10.5988 28.9848 10.6325C28.9931 10.6494 28.998 10.6678 28.9992 10.6866C29.0005 10.7053 28.998 10.7242 28.992 10.742C28.9859 10.7598 28.9764 10.7762 28.964 10.7902C28.9516 10.8043 28.9366 10.8157 28.9198 10.8239Z" fill="url(#paint3_radial)"/>
<path d="M47.4915 83.6677C49.6596 90.8437 59.9553 93.2011 68.1344 88.6297C76.3135 84.0583 83.2482 85.2193 86.7511 93.7918C90.254 102.364 118.507 111.416 119.994 86.6297C121.482 61.8432 98.4331 56.9529 108.656 46.6457C118.878 36.3386 117.367 18.0315 104.928 15.5639C92.4888 13.0963 90.44 29.3584 77.7998 18.6575C65.1596 7.95662 52.1376 10.1476 47.4915 23.7206C42.8454 37.2936 36.4808 34.7866 19.4341 37.1102C6.9832 38.8073 1.40357 63.7212 16.4593 69.4676C31.5151 75.214 42.4614 67.0256 47.4915 83.6677Z" fill="#3C28B4"/>
<path d="M66.465 74.6799V75.5167H52.2129C52.1567 75.5194 52.1006 75.5106 52.0479 75.4907C51.9952 75.4709 51.9471 75.4405 51.9064 75.4014C51.8657 75.3623 51.8333 75.3153 51.8111 75.2632C51.789 75.2111 51.7776 75.155 51.7776 75.0983C51.7776 75.0416 51.789 74.9856 51.8111 74.9335C51.8333 74.8814 51.8657 74.8343 51.9064 74.7952C51.9471 74.7561 51.9952 74.7257 52.0479 74.7059C52.1006 74.6861 52.1567 74.6772 52.2129 74.6799H66.465Z" fill="url(#paint4_radial)"/>
<path d="M98.3331 75.0976C98.3331 75.2085 98.2894 75.3149 98.2117 75.3934C98.1339 75.4719 98.0285 75.5161 97.9184 75.5164H66.4646V74.6797H97.9156C98.0259 74.6794 98.1318 74.7233 98.2101 74.8016C98.2884 74.88 98.3326 74.9864 98.3331 75.0976Z" fill="white"/>
<path d="M66.4676 76.4726C67.221 76.4726 67.8318 75.8572 67.8318 75.098C67.8318 74.3388 67.221 73.7234 66.4676 73.7234C65.7143 73.7234 65.1035 74.3388 65.1035 75.098C65.1035 75.8572 65.7143 76.4726 66.4676 76.4726Z" fill="url(#paint5_radial)"/>
<path d="M62.1832 26.1413L62.19 26.1482C62.267 26.2248 62.369 26.2706 62.4771 26.2773C62.5851 26.284 62.6919 26.2511 62.7777 26.1847C63.3179 25.7742 63.9761 25.5521 64.6526 25.5521C65.3292 25.5521 65.9874 25.7742 66.5276 26.1847C66.6135 26.2512 66.7205 26.2842 66.8288 26.2773C66.937 26.2705 67.039 26.2243 67.1161 26.1474L67.1229 26.1406C67.1678 26.0954 67.2027 26.0412 67.2252 25.9814C67.2477 25.9216 67.2573 25.8577 67.2533 25.7939C67.2494 25.7301 67.2321 25.6679 67.2024 25.6114C67.1727 25.5549 67.1315 25.5054 67.0814 25.4662C66.3828 24.932 65.53 24.6428 64.653 24.6428C63.7761 24.6428 62.9232 24.932 62.2247 25.4662C62.1743 25.5053 62.1329 25.5548 62.1031 25.6114C62.0733 25.668 62.0558 25.7303 62.0519 25.7943C62.0479 25.8582 62.0576 25.9223 62.0803 25.9821C62.1029 26.042 62.138 26.0963 62.1832 26.1413Z" fill="white"/>
<path d="M60.7022 24.6604L60.7098 24.668C60.7902 24.7458 60.8962 24.791 61.0075 24.7949C61.1189 24.7988 61.2278 24.7612 61.3134 24.6893C62.2482 23.8983 63.4298 23.4647 64.6505 23.4647C65.8712 23.4647 67.0528 23.8983 67.9877 24.6893C68.0728 24.7624 68.182 24.8007 68.2937 24.7967C68.4055 24.7926 68.5117 24.7464 68.5913 24.6672L68.5981 24.6604C68.6421 24.6161 68.6765 24.563 68.699 24.5045C68.7216 24.4461 68.7318 24.3835 68.729 24.3209C68.7262 24.2582 68.7105 24.1968 68.6829 24.1406C68.6553 24.0844 68.6164 24.0346 68.5686 23.9944C67.4707 23.0651 66.0828 22.5557 64.649 22.5557C63.2152 22.5557 61.8273 23.0651 60.7294 23.9944C60.6818 24.0348 60.6431 24.0847 60.6156 24.141C60.5882 24.1973 60.5728 24.2587 60.5702 24.3214C60.5676 24.384 60.5781 24.4465 60.6008 24.5049C60.6235 24.5633 60.6581 24.6162 60.7022 24.6604Z" fill="white"/>
<path d="M59.2416 23.2059L59.2484 23.2127C59.3286 23.2928 59.436 23.3392 59.5489 23.3426C59.6617 23.346 59.7717 23.3061 59.8565 23.231C61.1792 22.0529 62.8833 21.4022 64.6486 21.4011C66.414 21.4 68.1189 22.0485 69.4431 23.2249C69.5281 23.2999 69.6382 23.3397 69.7512 23.3362C69.8642 23.3327 69.9717 23.2861 70.052 23.2059L70.0588 23.199C70.1022 23.1557 70.1364 23.1038 70.1591 23.0467C70.1819 22.9895 70.1927 22.9282 70.191 22.8666C70.1893 22.805 70.1751 22.7445 70.1493 22.6887C70.1234 22.6328 70.0864 22.583 70.0407 22.5421C68.5511 21.2194 66.6335 20.4902 64.6481 20.4915C62.6627 20.4927 60.7461 21.2244 59.2582 22.549C59.2125 22.5899 59.1757 22.6399 59.1499 22.6957C59.1242 22.7516 59.1101 22.8122 59.1085 22.8738C59.107 22.9354 59.118 22.9966 59.1409 23.0537C59.1638 23.1109 59.198 23.1626 59.2416 23.2059Z" fill="white"/>
<path d="M75.2885 38.6082V38.6141C75.2885 38.6141 75.286 38.6124 75.2885 38.6082Z" fill="white"/>
<path d="M29.5543 79.7973C35.1651 79.7973 39.7135 75.2139 39.7135 69.56C39.7135 63.9061 35.1651 59.3228 29.5543 59.3228C23.9435 59.3228 19.395 63.9061 19.395 69.56C19.395 75.2139 23.9435 79.7973 29.5543 79.7973Z" fill="#7A83FF"/>
<path d="M32.4907 71.2648V67.2413C32.4907 67.2413 28.8396 64.9833 27.8173 63.7583C26.7949 62.5333 26.1619 64.4442 26.9405 65.5732C27.7192 66.7022 28.3509 66.9464 28.3509 66.9464C28.3509 66.9464 25.3818 66.698 23.823 67.3133C22.2643 67.9286 23.6284 69.2524 24.3104 69.2524C24.3104 69.2524 23.5317 70.3814 24.7978 70.7737C24.7978 70.7737 24.4561 72.0438 25.6731 72.3924C25.6731 72.3924 25.4784 73.2759 26.4042 73.4227C27.3299 73.5694 32.4893 73.0797 32.4893 73.0797L32.4907 71.2648Z" fill="white"/>
<path d="M35.2178 67.0452H32.491V73.767H35.2178V67.0452Z" fill="#FFBF00"/>
<path d="M108.397 11.6665C108.168 13.1323 107.51 14.4975 106.505 15.5895C105.5 16.6814 104.194 17.451 102.752 17.8009C101.31 18.1508 99.7971 18.0654 98.404 17.5554C97.0109 17.0454 95.8005 16.1337 94.9258 14.9356C94.0512 13.7376 93.5515 12.307 93.4901 10.8247C93.4287 9.34242 93.8083 7.87507 94.5809 6.60819C95.3534 5.34131 96.4842 4.33181 97.8303 3.70734C99.1764 3.08287 100.677 2.87148 102.143 3.09991C103.117 3.25157 104.051 3.59346 104.892 4.10605C105.733 4.61865 106.464 5.2919 107.045 6.08738C107.626 6.88286 108.044 7.78498 108.276 8.74224C108.508 9.6995 108.55 10.6931 108.397 11.6665Z" fill="#FCD472"/>
<path d="M92.2068 20.6468L95.8215 12.4292L101.888 16.2494L96.2472 23.2738L92.2068 20.6468Z" fill="#FCD472"/>
<path d="M93.4002 17.9341L92.2068 20.6468L96.2472 23.2738L98.2918 20.7304L93.4002 17.9341Z" fill="#C6D0CF"/>
<path d="M97.4033 21.1814C96.6637 20.9539 95.9524 20.643 95.2833 20.2545C94.5818 19.927 93.9197 19.5212 93.3095 19.0448C94.0219 19.3389 94.7134 19.6811 95.3792 20.0691C96.0779 20.3944 96.7541 20.766 97.4033 21.1814Z" fill="#595C63"/>
<path d="M96.8461 21.7413C96.1837 21.5423 95.5499 21.2584 94.9605 20.8967C94.3352 20.596 93.7506 20.2172 93.2209 19.7693C93.8626 20.0401 94.4823 20.3604 95.0743 20.7272C95.688 21.0233 96.2801 21.3622 96.8461 21.7413Z" fill="#595C63"/>
<path d="M96.428 22.414C95.7738 22.2088 95.1475 21.9238 94.563 21.5655C93.9469 21.2668 93.3709 20.8914 92.849 20.4483C93.4788 20.7094 94.0863 21.0213 94.6655 21.381C95.2803 21.6764 95.8698 22.0219 96.428 22.414Z" fill="#595C63"/>
<path opacity="0.29" d="M104.828 4.00594L97.3533 10.4181L93.6141 9.33177C93.6141 9.33177 96.1758 0.0564322 104.828 4.00594Z" fill="#F0E7CF"/>
<path d="M103.308 90H119.691C119.994 89.9999 120.294 90.0585 120.574 90.1725C120.855 90.2865 121.109 90.4537 121.324 90.6645C121.538 90.8752 121.708 91.1254 121.824 91.4009C121.94 91.6763 122 91.9715 122 92.2696V102.73C122 103.332 121.757 103.91 121.324 104.335C120.891 104.761 120.304 105 119.692 105H103.308C102.696 105 102.109 104.761 101.676 104.335C101.243 103.91 101 103.332 101 102.73V92.2696C101 91.9715 101.06 91.6763 101.175 91.4009C101.291 91.1255 101.461 90.8753 101.676 90.6645C101.89 90.4537 102.145 90.2866 102.425 90.1725C102.705 90.0585 103.005 89.9999 103.308 90Z" fill="url(#paint6_linear)"/>
<path d="M108.818 97.2251H106.801V101.153H108.818V97.2251Z" fill="white"/>
<path d="M112.602 95.7629H110.585V101.153H112.602V95.7629Z" fill="white"/>
<path d="M116.381 94.0786H114.364V101.153H116.381V94.0786Z" fill="white"/>
<defs>
<radialGradient id="paint0_radial" cx="0" cy="0" r="1" gradientUnits="userSpaceOnUse" gradientTransform="translate(-64.1421 28.0521) rotate(-7.51193) scale(241.865 243.83)">
<stop stop-color="#FF3198"/>
<stop offset="0.46" stop-color="#9E39FF"/>
<stop offset="1" stop-color="#310B7A"/>
</radialGradient>
<radialGradient id="paint1_radial" cx="0" cy="0" r="1" gradientUnits="userSpaceOnUse" gradientTransform="translate(72547.7 62171.6) scale(74544.1 103338)">
<stop stop-color="#FF3198"/>
<stop offset="0.46" stop-color="#9E39FF"/>
<stop offset="1" stop-color="#310B7A"/>
</radialGradient>
<radialGradient id="paint2_radial" cx="0" cy="0" r="1" gradientUnits="userSpaceOnUse" gradientTransform="translate(422.207 4339.74) rotate(-9.01892) scale(44517.4 64017.2)">
<stop stop-color="#FF3198"/>
<stop offset="0.46" stop-color="#9E39FF"/>
<stop offset="1" stop-color="#310B7A"/>
</radialGradient>
<radialGradient id="paint3_radial" cx="0" cy="0" r="1" gradientUnits="userSpaceOnUse" gradientTransform="translate(-113.454 -66.9817) rotate(-9.01892) scale(8005.54 2765.01)">
<stop stop-color="#FF3198"/>
<stop offset="0.46" stop-color="#9E39FF"/>
<stop offset="1" stop-color="#310B7A"/>
</radialGradient>
<radialGradient id="paint4_radial" cx="0" cy="0" r="1" gradientUnits="userSpaceOnUse" gradientTransform="translate(9508.57 833.109) scale(5695.05 324.833)">
<stop stop-color="#E20081"/>
<stop offset="0.55" stop-color="#FFB048"/>
<stop offset="1" stop-color="#FFFC9F"/>
</radialGradient>
<radialGradient id="paint5_radial" cx="0" cy="0" r="1" gradientUnits="userSpaceOnUse" gradientTransform="translate(1829.62 2503.58) scale(1043.11 1051.13)">
<stop stop-color="#E20081"/>
<stop offset="0.55" stop-color="#FFB048"/>
<stop offset="1" stop-color="#FFFC9F"/>
</radialGradient>
<linearGradient id="paint6_linear" x1="105.41" y1="83.1723" x2="121.608" y2="107.831" gradientUnits="userSpaceOnUse">
<stop stop-color="#61F5E8"/>
<stop offset="1" stop-color="#31ACFF"/>
</linearGradient>
</defs>
</svg>
