<svg width="48" height="35" viewBox="0 0 48 35" fill="none" xmlns="http://www.w3.org/2000/svg">
<path d="M39.8907 0H8.67214C4.32235 0 0.796143 3.5533 0.796143 7.93651V26.2476C0.796143 30.6309 4.32235 34.1842 8.67214 34.1842H39.8907C44.2405 34.1842 47.7667 30.6309 47.7667 26.2476V7.93651C47.7667 3.5533 44.2405 0 39.8907 0Z" fill="url(#paint0_radial)"/>
<path d="M19.0503 11.3537V22.6841C19.0505 22.8558 19.095 23.0246 19.1793 23.1738C19.2637 23.3231 19.385 23.4477 19.5315 23.5355C19.678 23.6234 19.8446 23.6714 20.015 23.6749C20.1854 23.6784 20.3538 23.6372 20.5037 23.5555L30.8605 17.8903C31.0162 17.8052 31.1462 17.6793 31.2368 17.5259C31.3274 17.3726 31.3752 17.1974 31.3752 17.0189C31.3752 16.8404 31.3274 16.6652 31.2368 16.5118C31.1462 16.3585 31.0162 16.2326 30.8605 16.1475L20.5037 10.4823C20.3538 10.4003 20.1854 10.3589 20.0148 10.3623C19.8443 10.3656 19.6776 10.4136 19.531 10.5015C19.3845 10.5893 19.2631 10.7141 19.1788 10.8635C19.0945 11.0129 19.0502 11.1818 19.0503 11.3537Z" fill="white"/>
<defs>
<radialGradient id="paint0_radial" cx="0" cy="0" r="1" gradientUnits="userSpaceOnUse" gradientTransform="translate(55.8463 39.468) scale(126.32 127.291)">
<stop stop-color="#E20081"/>
<stop offset="0.55" stop-color="#FFB048"/>
<stop offset="1" stop-color="#FFFC9F"/>
</radialGradient>
</defs>
</svg>
