<svg width="20" height="20" viewBox="0 0 20 20" fill="none" xmlns="http://www.w3.org/2000/svg">
<path d="M17.5 14.9998H5C4.77899 14.9998 4.56702 15.0876 4.41074 15.2439C4.25446 15.4002 4.16667 15.6122 4.16667 15.8332C4.16667 16.0542 4.25446 16.2661 4.41074 16.4224C4.56702 16.5787 4.77899 16.6665 5 16.6665H17.5V18.3332H5C4.33696 18.3332 3.70107 18.0698 3.23223 17.6009C2.76339 17.1321 2.5 16.4962 2.5 15.8332V3.33317C2.5 2.89114 2.67559 2.46722 2.98816 2.15466C3.30072 1.8421 3.72464 1.6665 4.16667 1.6665H17.5V14.9998ZM4.16667 13.3748C4.30167 13.3473 4.44083 13.3332 4.58333 13.3332H15.8333V3.33317H4.16667V13.3748ZM13.3333 7.49984H6.66667V5.83317H13.3333V7.49984Z" fill="white"/>
</svg>
