<svg width="30" height="30" viewBox="0 0 30 30" fill="none" xmlns="http://www.w3.org/2000/svg">
<path fill-rule="evenodd" clip-rule="evenodd" d="M23 16C23 20.6944 19.1944 24.5 14.5 24.5C9.80558 24.5 6 20.6944 6 16C6 11.3056 9.80558 7.5 14.5 7.5C19.1944 7.5 23 11.3056 23 16ZM11.8354 21.0304C13.1904 19.5713 15.5037 19.5579 16.8674 21.0089C17.2905 21.4591 17.4451 22.1289 16.9338 22.4757C16.4803 22.7832 15.6959 23.0685 14.3464 23.0685C12.9766 23.0685 12.1974 22.7746 11.756 22.4618C11.2688 22.1166 11.4291 21.468 11.8354 21.0304ZM20.6309 15.8978C21.2015 16.2717 21.4488 16.982 20.9162 18.328C20.3836 19.674 20.2505 20.0105 19.6798 20.1975C18.5386 20.2909 17.8729 19.5432 17.2071 18.2346C16.7316 16.926 17.8728 16.0848 18.6337 15.8978C18.6337 15.8978 19.9652 15.5239 20.6309 15.8978ZM8.08381 18.328C7.55123 16.982 7.7985 16.2717 8.36912 15.8978C9.03484 15.5239 10.3663 15.8978 10.3663 15.8978C11.1272 16.0848 12.2684 16.926 11.7929 18.2346C11.1272 19.5432 10.4614 20.2909 9.32018 20.1975C8.74955 20.0105 8.61639 19.674 8.08381 18.328ZM18.6601 13.8301C19.7166 14.1053 20.3835 14.279 20.4711 13.8748C20.7949 12.3824 17.7983 9.4684 14.5011 9.4684C11.2039 9.4684 8.19809 12.3842 8.531 13.8899C8.61817 14.2841 9.27746 14.1112 10.3227 13.8371C11.3831 13.559 12.8407 13.1768 14.5011 13.1768C16.1514 13.1768 17.6014 13.5544 18.6601 13.8301Z" fill="#7E809F"/>
</svg>
