<svg width="465" height="78" viewBox="0 0 465 78" fill="none" xmlns="http://www.w3.org/2000/svg">
<path d="M0.0553987 76H20.6194V54.8H30.7954C49.2394 54.8 62.7014 45.578 62.7014 28.088C62.7014 11.446 50.6174 1.79999 31.8554 1.79999H0.0553987V76ZM20.6194 38.688V19.078H30.2654C37.6854 19.078 42.1374 22.47 42.1374 28.83C42.1374 34.872 37.6854 38.688 30.3714 38.688H20.6194ZM71.3777 76H91.9417V53.528H100.952L115.898 76H139.642L121.94 50.136C131.162 46.214 137.204 38.688 137.204 27.346C137.204 19.82 134.978 14.096 130.632 9.75C125.65 4.76799 117.806 1.79999 106.464 1.79999H71.3777V76ZM91.9417 37.416V19.608H105.404C112.294 19.608 116.534 22.576 116.534 28.406C116.534 34.024 112.506 37.416 105.51 37.416H91.9417ZM184.877 77.484C207.773 77.484 224.945 60.206 224.945 38.9C224.945 17.382 207.985 0.315995 185.089 0.315995C162.193 0.315995 145.021 17.594 145.021 38.9C145.021 60.418 161.981 77.484 184.877 77.484ZM185.089 58.934C173.853 58.934 166.115 49.606 166.115 38.9C166.115 27.982 173.641 18.866 184.877 18.866C196.219 18.866 203.957 28.194 203.957 38.9C203.957 49.818 196.431 58.934 185.089 58.934ZM235.657 76H256.221V49.5H291.307V32.434H256.221V19.82H295.017V1.79999H235.657V76ZM304.815 76H325.485V1.79999H304.815V76ZM339.069 76H395.567V57.98H359.633V1.79999H339.069V76ZM404.387 76H464.595V58.51H424.739V46.744H460.355V30.526H424.739V19.29H464.065V1.79999H404.387V76Z" fill="white" fill-opacity="0.05"/>
</svg>
