<svg width="20" height="20" viewBox="0 0 20 20" fill="none" xmlns="http://www.w3.org/2000/svg">
<path d="M10.0832 3.01232L3.01232 10.0832L10.0832 17.154L17.154 10.0832L10.0832 3.01232ZM10.6723 1.24399L18.9223 9.49399C19.0785 9.65026 19.1663 9.86219 19.1663 10.0832C19.1663 10.3041 19.0785 10.516 18.9223 10.6723L10.6723 18.9223C10.516 19.0785 10.3041 19.1663 10.0832 19.1663C9.86218 19.1663 9.65026 19.0785 9.49399 18.9223L1.24399 10.6723C1.08776 10.516 1 10.3041 1 10.0832C1 9.86219 1.08776 9.65026 1.24399 9.49399L9.49399 1.24399C9.65026 1.08776 9.86218 1 10.0832 1C10.3041 1 10.516 1.08776 10.6723 1.24399ZM10.9165 8.41649V6.33316L13.8332 9.24982L10.9165 12.1665V10.0832H8.41649V12.5832H6.74982V9.24982C6.74982 9.02881 6.83762 8.81685 6.9939 8.66057C7.15018 8.50429 7.36214 8.41649 7.58316 8.41649H10.9165Z" fill="white"/>
</svg>
