<svg width="198" height="235" viewBox="0 0 198 235" fill="none" xmlns="http://www.w3.org/2000/svg">
<mask id="mask0" mask-type="alpha" maskUnits="userSpaceOnUse" x="0" y="0" width="198" height="235">
<rect width="198" height="235" rx="10" fill="#535969"/>
</mask>
<g mask="url(#mask0)">
<g opacity="0.6">
<path style="mix-blend-mode:screen" d="M127.334 110.712L125.402 115.753L112.706 106.404L119.616 99.5229L127.334 110.712Z" fill="url(#paint0_linear)"/>
</g>
<g opacity="0.6">
<path style="mix-blend-mode:screen" d="M133.661 104.759L138.702 102.826L129.353 90.1307L122.472 97.0406L133.661 104.759Z" fill="url(#paint1_linear)"/>
</g>
<path d="M147.578 110.432L147.448 110.561L142.382 105.495L142.512 105.366C142.573 105.305 142.9 105.533 143.242 105.874L147.069 109.702C147.412 110.044 147.639 110.371 147.578 110.432Z" fill="#FE5858"/>
<path d="M164.275 127.127L164.144 127.256L159.079 122.19L159.209 122.061C159.27 122 159.596 122.228 159.938 122.57L163.765 126.398C164.108 126.739 164.336 127.066 164.275 127.127Z" fill="#FE5858"/>
<path d="M132.955 124.992L133.085 124.863L128.019 119.797L127.889 119.926C127.828 119.987 128.056 120.314 128.398 120.655L132.224 124.483C132.567 124.825 132.894 125.053 132.955 124.992Z" fill="#FE5858"/>
<path d="M149.653 141.688L149.783 141.559L144.717 136.493L144.588 136.622C144.526 136.683 144.754 137.01 145.096 137.352L148.923 141.18C149.265 141.521 149.592 141.751 149.653 141.688Z" fill="#FE5858"/>
<path d="M162.127 139.572C167.456 134.265 167.379 130.42 165.693 128.734L141.491 104.534C139.153 102.194 135.548 101.999 133.442 104.097L126.635 110.872C124.529 112.969 124.716 116.567 127.055 118.906L151.257 143.106C152.944 144.795 156.798 144.878 162.127 139.572Z" fill="#0BCAD7"/>
<path d="M132.05 123.477L131.07 125.528C130.876 125.934 131.075 126.473 131.517 126.732C131.959 126.992 132.474 126.872 132.669 126.466L133.65 124.417C133.846 124.011 133.645 123.472 133.203 123.212C132.761 122.953 132.246 123.07 132.05 123.477Z" fill="#0BCAD7"/>
<path d="M148.117 108.55L146.066 109.526C145.659 109.72 145.539 110.234 145.796 110.675C146.053 111.117 146.598 111.32 147.003 111.124L149.057 110.149C149.464 109.956 149.584 109.441 149.327 109C149.069 108.558 148.525 108.357 148.117 108.55Z" fill="#0BCAD7"/>
<path d="M158.566 128.2C158.825 128.459 158.848 128.859 158.612 129.093L151.633 136.042C151.399 136.274 150.997 136.252 150.738 135.994L140.759 126.01C140.5 125.751 140.447 125.321 140.642 125.055C140.642 125.055 141.857 123.39 143.907 121.349C145.956 119.309 147.627 118.098 147.627 118.098C147.895 117.905 148.326 117.959 148.584 118.217L158.566 128.2Z" fill="#09DFED"/>
<path d="M154.012 122.791L158.32 127.098C158.579 127.357 159.075 127.618 159.423 127.677L163.404 128.356C163.752 128.416 163.825 128.253 163.566 127.994L156.192 120.621L154.012 122.791Z" fill="#1E2A2B"/>
<path d="M155.5 119.927L148.126 112.553C147.866 112.294 147.703 112.366 147.762 112.714L148.435 116.688C148.493 117.035 148.754 117.531 149.013 117.789L153.317 122.099L155.5 119.927Z" fill="#1E2A2B"/>
<path d="M143.149 133.609L150.521 140.983C150.78 141.242 150.945 141.169 150.886 140.822L150.213 136.848C150.12 136.436 149.921 136.056 149.635 135.746L145.327 131.438L143.149 133.609Z" fill="#1E2A2B"/>
<path d="M144.635 130.747L140.328 126.44C140.069 126.181 139.572 125.92 139.224 125.861L135.244 125.181C134.896 125.121 134.822 125.285 135.082 125.544L142.456 132.917L144.635 130.747Z" fill="#1E2A2B"/>
<path d="M133.666 123.428L139.167 124.795C139.502 124.93 139.945 124.831 140.154 124.576C140.154 124.576 141.743 122.63 143.467 120.911C145.192 119.193 147.15 117.611 147.15 117.611C147.406 117.404 147.506 116.961 147.371 116.628L146.012 111.135C145.879 110.803 145.491 110.566 145.152 110.612C145.152 110.612 142.343 111.292 138.088 115.528C133.834 119.765 133.146 122.567 133.146 122.567C133.097 122.906 133.333 123.293 133.666 123.428Z" fill="#1E2A2B"/>
<path d="M137.661 115.106C141.56 111.223 144.039 110.245 144.961 110L140.795 105.834C139.004 104.042 136.208 103.918 134.563 105.557L128.098 111.994C126.454 113.632 126.569 116.423 128.363 118.213L132.529 122.378C132.776 121.461 133.763 118.988 137.661 115.106Z" fill="#09DFED"/>
<path d="M155.695 133.14C157.42 131.422 159.098 129.563 159.098 129.563C159.321 129.319 159.678 129.138 159.899 129.162L163.271 129.491C163.492 129.512 163.577 129.748 163.46 130.015C163.46 130.015 162.729 131.684 158.474 135.918C154.219 140.153 152.542 140.882 152.542 140.882C152.275 140.999 152.038 140.913 152.017 140.693L151.695 137.328C151.675 137.11 151.857 136.749 152.101 136.528C152.104 136.527 153.97 134.857 155.695 133.14Z" fill="#1E2A2B"/>
<path d="M161.693 139.137C168.795 132.065 164.456 128.884 164.456 128.884C164.472 131.354 160.734 134.932 159.108 136.551C157.481 138.171 153.888 141.894 151.414 141.872C151.412 141.873 154.591 146.209 161.693 139.137Z" fill="#09DFED"/>
<path d="M138.989 102.963C137.028 102.297 134.884 102.657 133.44 104.094L133.012 104.521C133.567 104.482 134.755 103.655 136.481 103.355C137.539 103.174 138.387 103.071 138.989 102.963Z" fill="#FFF482"/>
<path d="M125.491 116.406C125.601 115.806 125.705 114.959 125.89 113.905C126.192 112.183 127.024 110.998 127.064 110.445L126.635 110.872C125.192 112.309 124.826 114.448 125.491 116.406Z" fill="#FFF482"/>
<path d="M139.066 112.691C139.066 112.691 138.814 112.322 138.461 111.756C138.288 111.471 138.079 111.142 137.868 110.783C137.656 110.425 137.433 110.039 137.212 109.653C136.992 109.267 136.778 108.877 136.58 108.507C136.382 108.136 136.205 107.793 136.051 107.496C135.748 106.902 135.562 106.497 135.562 106.497C135.562 106.497 135.814 106.866 136.167 107.432C136.34 107.717 136.549 108.045 136.761 108.405C136.972 108.765 137.195 109.149 137.416 109.535C137.636 109.92 137.85 110.311 138.048 110.681C138.245 111.051 138.422 111.396 138.576 111.691C138.88 112.286 139.066 112.691 139.066 112.691Z" fill="#1E2A2B"/>
<path d="M135.239 116.503C135.239 116.503 134.833 116.316 134.237 116.012C133.942 115.856 133.593 115.681 133.226 115.482C132.859 115.283 132.47 115.067 132.082 114.85C131.693 114.633 131.309 114.408 130.95 114.193C130.592 113.978 130.262 113.772 129.977 113.599C129.41 113.245 129.042 112.996 129.042 112.996C129.042 112.996 129.448 113.183 130.043 113.488C130.339 113.643 130.687 113.817 131.054 114.017C131.42 114.217 131.81 114.432 132.199 114.649C132.588 114.866 132.972 115.092 133.33 115.306C133.688 115.52 134.018 115.727 134.304 115.901C134.869 116.251 135.239 116.503 135.239 116.503Z" fill="#1E2A2B"/>
<path d="M166.676 130.859C166.528 131.437 166.366 132.227 166.116 133.198C165.685 134.88 164.762 135.991 164.681 136.536L164.79 136.442C166.363 134.175 166.847 132.288 166.676 130.859Z" fill="#FFF482"/>
<path d="M153.387 144.094C154.817 144.268 156.71 143.789 158.984 142.225L159.079 142.114C158.532 142.196 157.418 143.114 155.732 143.541C154.759 143.789 153.969 143.947 153.387 144.094Z" fill="#FFF482"/>
<path d="M169.77 97.863L205.793 61.9539L205.075 61.2344L169.052 97.1436L169.77 97.863Z" fill="white"/>
<path d="M149.892 77.9856L185.915 42.0764L185.197 41.357L149.174 77.2661L149.892 77.9856Z" fill="white"/>
<path d="M90.2588 18.3523L126.281 -17.5569L125.563 -18.2763L89.5408 17.6328L90.2588 18.3523Z" fill="white"/>
<path d="M130.014 58.1084L166.037 22.1992L165.319 21.4798L129.296 57.389L130.014 58.1084Z" fill="white"/>
<path d="M110.136 38.2297L146.159 2.32056L145.441 1.60113L109.418 37.5103L110.136 38.2297Z" fill="white"/>
<path d="M147.384 33.3315C150.09 32.3103 154.096 28.2159 155.734 25.9662C157.013 24.2108 158.597 20.1912 156.487 18.6871C155.823 17.375 154.718 15.8831 153.005 14.1639C151.293 12.4447 149.799 11.3408 148.488 10.6737C146.989 8.56276 142.963 10.1367 141.203 11.4106C138.948 13.0423 134.843 17.0364 133.815 19.738C127.156 25.2546 117.932 34.5626 117.866 34.6347C117.866 34.6347 112.344 39.1301 114.976 42.9986C115.979 44.4747 116.333 46.6713 118.359 48.7088C120.392 50.7373 122.589 51.0963 124.061 52.1012C127.925 54.7394 132.437 49.2325 132.437 49.2325C132.515 49.1703 141.851 39.9744 147.384 33.3315Z" fill="#F6A145"/>
<path d="M155.644 22.1433C155.418 21.0188 154.396 19.425 151.073 16.0969C147.751 12.7688 146.157 11.7448 145.036 11.5152C143.844 11.2725 141.482 13.0231 140.172 14.2404C141.85 14.509 144.903 15.4799 148.291 18.8746C151.68 22.2694 152.64 25.3199 152.905 27.0003C154.126 25.6932 155.885 23.3357 155.644 22.1433Z" fill="#F9B66D"/>
<path d="M145.082 29.9786C145.082 29.9786 143.728 28.0605 141.406 25.7347C139.085 23.4088 137.17 22.0513 137.17 22.0513C136.863 21.8338 136.351 21.9163 136.031 22.2353L132.037 26.2166C131.718 26.5356 131.634 27.0472 131.85 27.3538C131.85 27.3538 133.205 29.2719 135.526 31.5972C137.848 33.9224 139.764 35.281 139.764 35.281C140.07 35.498 140.582 35.4155 140.901 35.0971L144.895 31.1148C145.215 30.7967 145.299 30.2846 145.082 29.9786Z" fill="#F9B66D"/>
<path d="M131.496 48.3319L131.55 48.2831C131.683 48.1525 133.585 46.2792 136.133 43.6624L123.455 30.9613C120.843 33.4899 118.97 35.3788 118.823 35.5281L118.775 35.5809L118.7 35.6428C118.655 35.6779 114.136 39.4342 116.061 42.2651C116.486 42.8893 116.789 43.5695 117.109 44.2894C117.624 45.4494 118.158 46.6485 119.288 47.786C120.417 48.9234 121.621 49.4539 122.781 49.9721C123.501 50.2943 124.18 50.5982 124.804 51.0243C127.631 52.9543 131.401 48.4474 131.438 48.4015L131.496 48.3319Z" fill="#F9B66D"/>
<path d="M121.106 40.6419L121.914 43.4197L150.625 14.7949C149.948 14.1747 149.294 13.6271 148.687 13.1472L121.106 40.6419Z" fill="#233043"/>
<path d="M152.387 16.5412L123.666 45.1789L126.442 45.9924L154.049 18.4674C153.504 17.7797 152.946 17.1377 152.387 16.5412Z" fill="#233043"/>
<path d="M137.634 44.0596L139.411 44.8874C139.763 45.0513 140.238 44.8696 140.47 44.4807C140.703 44.0919 138.474 42.6498 138.474 42.6498C138.12 42.4849 137.646 42.6671 137.414 43.056C137.181 43.4448 137.279 43.8939 137.634 44.0596Z" fill="#F6A145"/>
<path d="M122.237 27.6822L123.062 29.4617C123.226 29.8148 123.674 29.913 124.064 29.6819C124.454 29.4508 124.637 28.9767 124.473 28.623C124.473 28.623 123.035 26.3913 122.646 26.6233C122.257 26.8553 122.074 27.3289 122.237 27.6822Z" fill="#F6A145"/>
<path d="M147.661 10.4773C147.472 10.3166 147.252 10.1968 147.015 10.1255C146.778 10.0542 146.528 10.0331 146.283 10.0633C145.712 10.1316 147.068 11.7853 147.682 11.3016C148.117 10.9586 147.912 10.6863 147.661 10.4773Z" fill="#FEF6B6"/>
<path d="M156.689 19.5207C156.85 19.7096 156.969 19.9297 157.04 20.167C157.11 20.4043 157.131 20.6535 157.1 20.8989C157.03 21.4688 155.379 20.1096 155.864 19.4972C156.207 19.0621 156.479 19.2678 156.689 19.5207Z" fill="#FEF6B6"/>
<path d="M138.605 35.8919C138.605 35.8919 136.527 34.2297 134.708 32.4074C132.89 30.5859 131.233 28.5069 131.233 28.5069C128.635 29.3511 126.343 30.3372 123.426 31.0087C123.426 31.0087 124.053 34.0678 128.537 38.5607C133.022 43.0536 136.081 43.687 136.081 43.687C136.766 40.7725 137.756 38.4867 138.605 35.8919Z" fill="#002E45"/>
<path d="M124.927 29.442C124.927 29.442 135.899 19.1582 136.784 18.9041C136.443 20.5156 135.252 21.9749 134.681 22.501C132.742 24.2851 130.806 26.6175 129.887 26.994C128.231 27.6741 124.086 30.3054 124.927 29.442Z" fill="#002E45"/>
<path d="M137.659 42.1974C137.659 42.1974 147.974 31.2555 148.231 30.373C146.618 30.7099 145.155 31.8965 144.627 32.4664C142.838 34.4 140.502 36.3271 140.12 37.2462C139.434 38.8971 136.791 43.0334 137.659 42.1974Z" fill="#002E45"/>
<path d="M147.919 19.2415C144.242 15.5581 141.285 15.6727 141.285 15.6727C141.448 16.9761 137.951 21.3517 137.951 21.3517C137.951 21.3517 140.437 23.2314 142.173 24.9708C143.908 26.7102 145.784 29.1978 145.784 29.1978C145.784 29.1978 150.17 25.7142 151.472 25.8824C151.474 25.8802 151.595 22.9244 147.919 19.2415Z" fill="#002E45"/>
<path d="M122.851 32.6874C122.882 32.8656 122.929 33.0407 122.99 33.2111C123.056 33.4076 123.133 33.6003 123.221 33.7882C123.319 34.0108 123.447 34.2466 123.587 34.5065L123.82 34.9026C123.868 34.9846 123.89 35.0791 123.883 35.1738C123.878 35.2631 123.861 35.3514 123.834 35.4365C123.713 35.7795 123.547 36.105 123.34 36.4045C122.905 37.0484 122.433 37.667 121.926 38.257C121.411 38.8581 120.876 39.4416 120.369 39.9822C119.862 40.5229 119.371 41.0109 118.949 41.428C118.106 42.2622 117.515 42.7885 117.515 42.7885C117.515 42.7885 118.055 42.2152 118.869 41.3493C119.27 40.9142 119.739 40.4069 120.241 39.8633C120.743 39.3196 121.266 38.7294 121.773 38.1267C122.281 37.548 122.756 36.9409 123.195 36.3083C123.394 36.0025 123.586 35.6996 123.696 35.3924C123.747 35.2376 123.778 35.0847 123.71 34.9675L123.488 34.558C123.362 34.317 123.251 34.0688 123.155 33.8146C123.078 33.6201 123.012 33.4216 122.958 33.2199C122.907 33.0457 122.871 32.8676 122.851 32.6874Z" fill="#F6A145"/>
<path d="M134.405 44.2629C134.225 44.2416 134.046 44.2049 133.872 44.1532C133.67 44.0983 133.472 44.032 133.277 43.9545C133.023 43.8578 132.775 43.7462 132.534 43.6203L132.125 43.3968C132.008 43.3288 131.852 43.3624 131.7 43.4103C131.392 43.5182 131.089 43.7103 130.782 43.9085C130.148 44.3456 129.54 44.8185 128.959 45.3246C128.355 45.8307 127.764 46.3541 127.217 46.8546C126.669 47.3552 126.162 47.8221 125.727 48.2215L124.284 49.5703C124.284 49.5703 124.813 48.9829 125.648 48.14C126.07 47.7229 126.554 47.2281 127.099 46.7248C127.644 46.2215 128.227 45.6864 128.829 45.1724C129.421 44.6683 130.041 44.1982 130.687 43.7644C130.987 43.559 131.314 43.3942 131.658 43.2743C131.819 43.2264 132.026 43.1865 132.193 43.2899L132.589 43.524C132.848 43.6646 133.086 43.7959 133.306 43.8912C133.494 43.9793 133.687 44.0568 133.884 44.1234C134.054 44.1844 134.228 44.231 134.405 44.2629Z" fill="#F6A145"/>
<path d="M145.265 10.7905C145.265 10.7905 145.491 10.8958 145.871 11.1089C146.251 11.322 146.792 11.6316 147.408 12.0545C148.025 12.4774 148.739 12.9805 149.471 13.5634C149.826 13.8673 150.213 14.1604 150.571 14.4975C150.935 14.8267 151.306 15.1619 151.658 15.5175L152.185 16.0476L152.689 16.5935C153.03 16.9478 153.331 17.328 153.63 17.688C153.93 18.0481 154.199 18.4116 154.449 18.7604L154.816 19.2663L155.134 19.7558C155.34 20.0711 155.523 20.3581 155.675 20.6201L156.049 21.3115L156.368 21.9163L155.982 21.3512L155.55 20.7005L154.949 19.8841L154.607 19.4176L154.217 18.9374C153.95 18.6072 153.67 18.2587 153.36 17.9146C153.049 17.5705 152.742 17.2053 152.405 16.8557L151.903 16.3212L151.376 15.8022C151.033 15.4477 150.669 15.1133 150.311 14.7843C149.954 14.4553 149.591 14.1431 149.246 13.8335C148.889 13.5395 148.552 13.2432 148.222 12.9767C147.891 12.7101 147.577 12.458 147.278 12.238C146.687 11.789 146.188 11.4208 145.827 11.1785C145.466 10.9362 145.265 10.7905 145.265 10.7905Z" fill="#F9B66D"/>
<path d="M146.744 10.065C146.833 10.2864 146.968 10.4864 147.14 10.6522C147.383 10.8948 147.655 11.0492 147.875 11.092C148.024 10.8463 147.858 10.6392 147.66 10.4744C147.399 10.2545 147.081 10.1126 146.744 10.065Z" fill="#EC6350"/>
<path d="M156.511 20.0425C156.677 20.2146 156.877 20.3499 157.099 20.4396C157.051 20.1021 156.909 19.7845 156.689 19.5236C156.525 19.325 156.321 19.1562 156.073 19.3076C156.115 19.5274 156.268 19.7994 156.511 20.0425Z" fill="#EC6350"/>
<path d="M140.486 15.9322C140.486 15.9322 140.279 16.0869 139.97 16.3199C139.815 16.4361 139.636 16.5715 139.444 16.7169C139.252 16.8623 139.047 17.0163 138.851 17.181C138.655 17.3457 138.446 17.4971 138.267 17.6558C138.087 17.8146 137.903 17.9473 137.765 18.077C137.477 18.3329 137.274 18.4964 137.274 18.4964C137.274 18.4964 137.431 18.2915 137.684 17.9947C137.806 17.8411 137.978 17.6914 138.151 17.5206C138.325 17.3499 138.53 17.1893 138.728 17.0228C139.101 16.7268 139.496 16.4594 139.909 16.2231C140.096 16.116 140.289 16.0189 140.486 15.9322Z" fill="#F9B66D"/>
<path d="M151.211 26.6825C151.123 26.8803 151.025 27.0732 150.916 27.2604C150.679 27.6729 150.41 28.0666 150.113 28.438C149.945 28.6361 149.787 28.8427 149.613 29.013C149.438 29.1833 149.289 29.3553 149.137 29.4789C148.84 29.7318 148.632 29.8862 148.632 29.8862C148.632 29.8862 148.794 29.6817 149.051 29.3993C149.183 29.2592 149.317 29.0772 149.476 28.8975C149.635 28.7178 149.791 28.5099 149.952 28.3137C150.113 28.1175 150.265 27.9085 150.419 27.7237C150.574 27.5388 150.701 27.3526 150.817 27.1991C151.055 26.8884 151.211 26.6825 151.211 26.6825Z" fill="#F9B66D"/>
<path d="M115.418 43.7588C115.666 43.2666 115.528 42.2646 115.028 41.2446C114.836 40.8482 114.596 40.4768 114.313 40.139C114.162 41.1418 114.4 42.1656 114.98 43C115.142 43.2435 115.288 43.4969 115.418 43.7588Z" fill="#FFF158"/>
<path d="M123.31 51.6633C123.571 51.7944 123.824 51.9414 124.067 52.1035C124.901 52.6851 125.925 52.9261 126.929 52.7772C126.592 52.4932 126.22 52.2521 125.824 52.0596C124.805 51.5573 123.802 51.4169 123.31 51.6633Z" fill="#FFF158"/>
<path d="M115.208 41.8248C115.227 41.8164 115.246 41.8059 115.263 41.7936C115.194 41.6064 115.116 41.4228 115.028 41.2437C114.875 40.9301 114.693 40.6316 114.483 40.3523C114.311 40.529 114.268 40.8795 114.4 41.2317C114.563 41.6653 114.925 41.9292 115.208 41.8248Z" fill="white"/>
<path d="M115.534 42.9987C115.505 42.6084 115.421 42.2239 115.285 41.8565C115.282 41.861 115.272 41.859 115.265 41.8608C115.062 41.9369 114.991 42.2509 115.108 42.5627C115.197 42.799 115.367 42.9649 115.534 42.9987Z" fill="white"/>
<path d="M126.716 52.6076C126.437 52.3971 126.138 52.2138 125.825 52.0602C125.646 51.9724 125.463 51.8936 125.277 51.8242C125.264 51.841 125.253 51.8593 125.244 51.8786C125.14 52.1598 125.402 52.5241 125.835 52.6875C126.189 52.8219 126.538 52.7788 126.716 52.6076Z" fill="white"/>
<path d="M125.207 51.8202C125.209 51.8137 125.21 51.8071 125.211 51.8004C124.844 51.6639 124.46 51.5794 124.07 51.5493C124.103 51.7167 124.268 51.8884 124.505 51.9771C124.816 52.0945 125.132 52.0218 125.207 51.8202Z" fill="white"/>
<path d="M115.493 42.594C115.402 42.1287 115.249 41.6776 115.037 41.253C115.004 41.1877 114.97 41.1261 114.937 41.0633C114.913 41.0674 114.891 41.0746 114.87 41.0847C114.618 41.2151 114.585 41.6513 114.795 42.0585C114.969 42.3948 115.256 42.6038 115.493 42.594Z" fill="#FFDD7F"/>
<path d="M124.474 51.6078C124.472 51.8407 124.679 52.1194 125.009 52.2915C125.416 52.5035 125.852 52.4709 125.98 52.2171C125.989 52.1983 125.996 52.1784 126 52.1578C125.943 52.1272 125.888 52.096 125.83 52.0675C125.401 51.8527 124.945 51.698 124.474 51.6078Z" fill="#FFDD7F"/>
<rect x="107.555" y="-40.1372" width="166.911" height="0.878481" transform="rotate(45 107.555 -40.1372)" fill="white"/>
<path d="M95.7874 75.9342L104.289 84.436L105.531 83.1928L97.0292 74.6909L95.7874 75.9342Z" fill="white"/>
<path d="M94.6285 73.5319L101.909 75.4828L96.5793 80.8127L94.6285 73.5319Z" fill="white"/>
</g>
<defs>
<linearGradient id="paint0_linear" x1="127.176" y1="113.983" x2="116.18" y2="102.942" gradientUnits="userSpaceOnUse">
<stop stop-color="#FFF268"/>
<stop offset="0.276042" stop-color="#B7AE4B"/>
<stop offset="0.885417" stop-color="#B7AF4B" stop-opacity="0"/>
</linearGradient>
<linearGradient id="paint1_linear" x1="136.932" y1="104.6" x2="125.891" y2="93.6046" gradientUnits="userSpaceOnUse">
<stop stop-color="#FFF268"/>
<stop offset="0.276042" stop-color="#B7AE4B"/>
<stop offset="0.885417" stop-color="#B7AF4B" stop-opacity="0"/>
</linearGradient>
</defs>
</svg>
