<svg width="176" height="108" viewBox="0 0 176 108" fill="none" xmlns="http://www.w3.org/2000/svg">
<g style="mix-blend-mode:screen" opacity="0.6">
<path style="mix-blend-mode:screen" d="M62.2766 79.3477L60.0624 85.1229L45.5176 74.4128L53.4342 66.5288L62.2766 79.3477Z" fill="url(#paint0_linear)"/>
</g>
<g style="mix-blend-mode:screen" opacity="0.6">
<path style="mix-blend-mode:screen" d="M69.5247 72.5273L75.2999 70.3132L64.5898 55.7684L56.7058 63.685L69.5247 72.5273Z" fill="url(#paint1_linear)"/>
</g>
<path d="M85.4694 79.0269L85.321 79.1746L79.5172 73.3713L79.6657 73.2235C79.7355 73.1536 80.1103 73.4142 80.5021 73.8056L84.8863 78.1913C85.2792 78.5832 85.5393 78.9569 85.4694 79.0269Z" fill="#FE5858"/>
<path d="M104.599 98.1548L104.45 98.3027L98.6457 92.4986L98.7949 92.3507C98.8648 92.2807 99.239 92.5424 99.6308 92.9338L104.015 97.3194C104.408 97.7106 104.669 98.0848 104.599 98.1548Z" fill="#FE5858"/>
<path d="M68.7168 95.7083L68.8652 95.5606L63.0613 89.7564L62.9129 89.9042C62.8422 89.9743 63.1033 90.3486 63.4951 90.74L67.8793 95.1257C68.2722 95.5176 68.6461 95.7785 68.7168 95.7083Z" fill="#FE5858"/>
<path d="M87.8468 114.837L87.996 114.689L82.192 108.885L82.0436 109.033C81.9729 109.103 82.234 109.477 82.6259 109.869L87.0101 114.254C87.4027 114.646 87.7774 114.909 87.8468 114.837Z" fill="#FE5858"/>
<path d="M102.138 112.412C108.243 106.332 108.156 101.926 106.224 99.9951L78.4963 72.2696C75.8167 69.5887 71.6874 69.365 69.2737 71.7683L61.475 79.5305C59.0622 81.9335 59.2768 86.0551 61.9572 88.7357L89.6845 116.461C91.6176 118.396 96.033 118.492 102.138 112.412Z" fill="#0BCAD7"/>
<path d="M67.6798 93.9727L66.5567 96.3221C66.334 96.7877 66.5626 97.4051 67.069 97.7023C67.5753 97.9994 68.1658 97.8625 68.3885 97.3968L69.5131 95.0496C69.7369 94.5845 69.5073 93.9665 69.0009 93.6694C68.4945 93.3722 67.904 93.5066 67.6798 93.9727Z" fill="#0BCAD7"/>
<path d="M86.0877 76.8707L83.737 77.9895C83.2711 78.2114 83.1335 78.8001 83.4283 79.306C83.723 79.8118 84.3474 80.0445 84.8107 79.8199L87.1645 78.7028C87.6306 78.4817 87.768 77.8921 87.4732 77.3863C87.1785 76.8804 86.5546 76.6494 86.0877 76.8707Z" fill="#0BCAD7"/>
<path d="M98.0582 99.3843C98.3549 99.6806 98.3814 100.139 98.1112 100.407L90.1151 108.368C89.8478 108.635 89.3865 108.61 89.0899 108.313L77.6574 96.8751C77.3607 96.5788 77.2993 96.086 77.5228 95.7811C77.5228 95.7811 78.9154 93.8737 81.2636 91.5355C83.6119 89.1972 85.5263 87.8107 85.5263 87.8107C85.8327 87.5893 86.3267 87.6506 86.6226 87.9471L98.0582 99.3843Z" fill="#09DFED"/>
<path d="M92.8415 93.1866L97.7763 98.1218C98.073 98.4181 98.6418 98.717 99.0399 98.7845L103.601 99.5632C104 99.6315 104.084 99.445 103.787 99.1479L95.3382 90.7007L92.8415 93.1866Z" fill="#1E2A2B"/>
<path d="M94.546 89.9058L86.0973 81.4578C85.8004 81.1607 85.6127 81.2437 85.6805 81.642L86.4515 86.1948C86.5182 86.5926 86.8171 87.1605 87.1137 87.4568L92.0449 92.394L94.546 89.9058Z" fill="#1E2A2B"/>
<path d="M80.3954 105.581L88.8418 114.03C89.1385 114.326 89.3269 114.243 89.2594 113.845L88.4884 109.292C88.3822 108.821 88.1537 108.385 87.8259 108.029L82.8911 103.094L80.3954 105.581Z" fill="#1E2A2B"/>
<path d="M82.0987 102.303L77.1638 97.3674C76.8672 97.0711 76.2976 96.7724 75.8993 96.7042L71.3385 95.9252C70.9402 95.857 70.8558 96.0445 71.1535 96.3413L79.6012 104.789L82.0987 102.303Z" fill="#1E2A2B"/>
<path d="M69.5315 93.9164L75.8338 95.4835C76.2172 95.6378 76.7249 95.5243 76.9642 95.2315C76.9642 95.2315 78.7844 93.0021 80.7604 91.0335C82.7365 89.065 84.9796 87.2522 84.9796 87.2522C85.2723 87.0146 85.3875 86.5074 85.2332 86.1261L83.6762 79.833C83.5231 79.453 83.0787 79.1809 82.6909 79.2335C82.6909 79.2335 79.4718 80.0123 74.5976 84.8662C69.7233 89.7201 68.9355 92.9307 68.9355 92.9307C68.8792 93.3193 69.1497 93.7617 69.5315 93.9164Z" fill="#1E2A2B"/>
<path d="M74.1078 84.3826C78.5747 79.9343 81.4148 78.8131 82.4711 78.5331L77.6981 73.7603C75.6462 71.7075 72.4429 71.565 70.5584 73.4422L63.1522 80.8172C61.2684 82.6942 61.4 85.8913 63.4559 87.9429L68.2284 92.7142C68.5117 91.6634 69.6416 88.8307 74.1078 84.3826Z" fill="#09DFED"/>
<path d="M94.7696 105.044C96.7459 103.076 98.6679 100.946 98.6679 100.946C98.9233 100.666 99.3327 100.459 99.586 100.486L103.449 100.863C103.702 100.887 103.8 101.158 103.666 101.464C103.666 101.464 102.828 103.375 97.9532 108.227C93.0782 113.079 91.157 113.914 91.157 113.914C90.8504 114.047 90.5792 113.949 90.5549 113.698L90.1861 109.842C90.1634 109.592 90.3722 109.178 90.6514 108.925C90.6556 108.925 92.7933 107.011 94.7696 105.044Z" fill="#1E2A2B"/>
<path d="M101.641 111.914C109.778 103.811 104.807 100.167 104.807 100.167C104.825 102.998 100.542 107.097 98.679 108.952C96.8158 110.807 92.6991 115.072 89.8651 115.047C89.862 115.048 93.5048 120.017 101.641 111.914Z" fill="#09DFED"/>
<path d="M75.6296 70.4712C73.3831 69.7076 70.9261 70.1199 69.2728 71.766L68.7814 72.2562C69.4179 72.211 70.7792 71.263 72.7559 70.9204C73.9678 70.7122 74.9405 70.5946 75.6296 70.4712Z" fill="#FFF482"/>
<path d="M60.1644 85.8725C60.2913 85.1844 60.4096 84.2147 60.6219 83.0064C60.9682 81.0342 61.9209 79.677 61.9669 79.0425L61.4753 79.532C59.8226 81.1778 59.4031 83.6296 60.1644 85.8725Z" fill="#FFF482"/>
<path d="M75.7183 81.6157C75.7183 81.6157 75.429 81.1929 75.025 80.5442C74.8262 80.218 74.5874 79.8409 74.3448 79.43C74.1022 79.0191 73.8465 78.5772 73.5941 78.135C73.3417 77.6929 73.0964 77.246 72.8693 76.8217C72.6423 76.3973 72.4403 76.0035 72.264 75.6642C71.9159 74.9833 71.7028 74.5186 71.7028 74.5186C71.7028 74.5186 71.992 74.9414 72.3961 75.5901C72.5949 75.9164 72.8345 76.2931 73.0765 76.7051C73.3185 77.1171 73.5746 77.5572 73.827 77.9993C74.0794 78.4414 74.3249 78.8891 74.551 79.3129C74.777 79.7368 74.9802 80.1318 75.1562 80.4704C75.5043 81.1512 75.7183 81.6157 75.7183 81.6157Z" fill="#1E2A2B"/>
<path d="M71.3328 85.9829C71.3328 85.9829 70.8679 85.7686 70.1858 85.4206C69.8471 85.242 69.4475 85.0414 69.0272 84.8131C68.6068 84.5848 68.1609 84.3381 67.716 84.0892C67.2712 83.8404 66.8303 83.5826 66.4199 83.3366C66.0094 83.0907 65.6311 82.8543 65.3042 82.6557C64.6547 82.2503 64.2336 81.9649 64.2336 81.9649C64.2336 81.9649 64.6985 82.1792 65.3801 82.5282C65.7192 82.7058 66.1186 82.9056 66.5384 83.1349C66.9583 83.3642 67.4047 83.61 67.8504 83.8586C68.296 84.1072 68.7355 84.3662 69.1457 84.6114C69.5559 84.8566 69.9344 85.0938 70.2616 85.2931C70.9098 85.6946 71.3328 85.9829 71.3328 85.9829Z" fill="#1E2A2B"/>
<path d="M107.35 102.431C107.181 103.093 106.995 103.998 106.709 105.111C106.214 107.037 105.157 108.31 105.064 108.934L105.19 108.827C106.992 106.23 107.546 104.067 107.35 102.431Z" fill="#FFF482"/>
<path d="M154.544 102.466L195.814 61.3257L194.992 60.5015L153.721 101.642L154.544 102.466Z" fill="white"/>
<path d="M86.2224 34.145L127.493 -6.99561L126.671 -7.81984L85.3998 33.3208L86.2224 34.145Z" fill="white"/>
<path d="M131.77 79.6929L173.04 38.5522L172.218 37.728L130.947 78.8686L131.77 79.6929Z" fill="white"/>
<path d="M63.4485 11.3721L104.719 -29.7686L103.897 -30.5928L62.6259 10.5478L63.4485 11.3721Z" fill="white"/>
<path d="M108.996 56.9185L150.266 15.7778L149.444 14.9536L108.173 56.0942L108.996 56.9185Z" fill="white"/>
<path d="M151.671 51.3061C154.771 50.1361 159.36 45.4452 161.237 42.8678C162.702 40.8567 164.517 36.2514 162.1 34.5282C161.338 33.025 160.072 31.3157 158.11 29.346C156.149 27.3763 154.437 26.1116 152.935 25.3473C151.217 22.9289 146.605 24.7322 144.588 26.1916C142.005 28.061 137.301 32.637 136.124 35.7322C128.495 42.0525 117.927 52.7166 117.852 52.7992C117.852 52.7992 111.525 57.9495 114.54 62.3815C115.69 64.0727 116.096 66.5893 118.416 68.9237C120.746 71.2477 123.263 71.659 124.949 72.8103C129.377 75.8328 134.546 69.5236 134.546 69.5236C134.635 69.4523 145.33 58.9168 151.671 51.3061Z" fill="#F6A145"/>
<path d="M161.134 38.488C160.875 37.1997 159.703 35.3737 155.897 31.5607C152.09 27.7478 150.264 26.5746 148.98 26.3116C147.614 26.0335 144.908 28.0392 143.408 29.4338C145.329 29.7415 148.827 30.8538 152.709 34.7432C156.591 38.6325 157.692 42.1274 157.996 44.0526C159.394 42.5551 161.409 39.8541 161.134 38.488Z" fill="#F9B66D"/>
<path d="M149.033 47.4649C149.033 47.4649 147.481 45.2673 144.822 42.6027C142.162 39.938 139.967 38.3827 139.967 38.3827C139.616 38.1335 139.029 38.228 138.663 38.5935L134.087 43.1548C133.721 43.5203 133.626 44.1064 133.873 44.4577C133.873 44.4577 135.425 46.6552 138.085 49.3192C140.744 51.9833 142.939 53.5397 142.939 53.5397C143.29 53.7884 143.877 53.6939 144.242 53.329L148.818 48.7665C149.184 48.4022 149.281 47.8155 149.033 47.4649Z" fill="#F9B66D"/>
<path d="M133.468 68.4916L133.529 68.4357C133.682 68.286 135.861 66.1398 138.78 63.1417L124.255 48.5903C121.262 51.4873 119.116 53.6513 118.948 53.8225L118.893 53.8829L118.807 53.9538C118.756 53.9941 113.578 58.2976 115.784 61.541C116.271 62.256 116.617 63.0354 116.985 63.8602C117.575 65.1891 118.186 66.5629 119.481 67.8661C120.775 69.1693 122.154 69.777 123.483 70.3708C124.308 70.7398 125.086 71.088 125.801 71.5762C129.04 73.7874 133.359 68.6239 133.401 68.5713L133.468 68.4916Z" fill="#F9B66D"/>
<path d="M121.564 59.6811L122.49 62.8636L155.383 30.0686C154.608 29.358 153.858 28.7306 153.163 28.1808L121.564 59.6811Z" fill="#233043"/>
<path d="M157.402 32.0693L124.496 64.879L127.677 65.8111L159.306 34.276C158.681 33.4882 158.043 32.7527 157.402 32.0693Z" fill="#233043"/>
<path d="M140.5 63.5971L142.535 64.5454C142.939 64.7333 143.483 64.525 143.749 64.0795C144.016 63.634 141.462 61.9818 141.462 61.9818C141.057 61.793 140.514 62.0017 140.247 62.4472C139.981 62.8927 140.094 63.4072 140.5 63.5971Z" fill="#F6A145"/>
<path d="M122.859 44.8339L123.805 46.8727C123.993 47.2773 124.506 47.3898 124.953 47.125C125.4 46.8603 125.609 46.3171 125.421 45.9119C125.421 45.9119 123.774 43.3551 123.328 43.6208C122.882 43.8866 122.672 44.4292 122.859 44.8339Z" fill="#F6A145"/>
<path d="M151.987 25.1222C151.771 24.9381 151.519 24.8009 151.247 24.7192C150.975 24.6376 150.69 24.6133 150.408 24.648C149.755 24.7262 151.308 26.6208 152.011 26.0666C152.509 25.6737 152.275 25.3618 151.987 25.1222Z" fill="#FEF6B6"/>
<path d="M162.331 35.483C162.515 35.6995 162.651 35.9516 162.732 36.2235C162.813 36.4953 162.837 36.7808 162.802 37.062C162.722 37.7149 160.83 36.1576 161.386 35.4561C161.779 34.9576 162.091 35.1933 162.331 35.483Z" fill="#FEF6B6"/>
<path d="M141.612 54.239C141.612 54.239 139.232 52.3347 137.148 50.2469C135.065 48.1601 133.166 45.7782 133.166 45.7782C130.19 46.7454 127.564 47.8752 124.221 48.6445C124.221 48.6445 124.94 52.1493 130.078 57.2967C135.215 62.4441 138.72 63.1698 138.72 63.1698C139.505 59.8307 140.639 57.2119 141.612 54.239Z" fill="#002E45"/>
<path d="M125.941 46.8498C125.941 46.8498 138.512 35.0677 139.526 34.7766C139.135 36.6229 137.77 38.2947 137.116 38.8976C134.895 40.9415 132.677 43.6137 131.624 44.0451C129.727 44.8243 124.977 47.839 125.941 46.8498Z" fill="#002E45"/>
<path d="M140.528 61.4637C140.528 61.4637 152.346 48.9277 152.641 47.9167C150.792 48.3026 149.116 49.662 148.512 50.315C146.462 52.5303 143.785 54.7381 143.347 55.7911C142.562 57.6826 139.534 62.4214 140.528 61.4637Z" fill="#002E45"/>
<path d="M152.283 35.1638C148.071 30.9438 144.682 31.0751 144.682 31.0751C144.869 32.5683 140.863 37.5814 140.863 37.5814C140.863 37.5814 143.711 39.7349 145.7 41.7278C147.688 43.7206 149.836 46.5706 149.836 46.5706C149.836 46.5706 154.862 42.5795 156.353 42.7722C156.355 42.7697 156.495 39.3833 152.283 35.1638Z" fill="#002E45"/>
<path d="M123.563 50.568C123.599 50.7721 123.653 50.9727 123.723 51.1679C123.798 51.3931 123.887 51.6139 123.987 51.8292C124.099 52.0842 124.246 52.3543 124.406 52.6521L124.673 53.1058C124.729 53.1998 124.754 53.3081 124.746 53.4165C124.74 53.5189 124.721 53.62 124.689 53.7176C124.55 54.1105 124.36 54.4834 124.124 54.8266C123.625 55.5643 123.084 56.273 122.504 56.949C121.913 57.6377 121.301 58.3061 120.72 58.9255C120.139 59.545 119.576 60.1041 119.093 60.5819C118.127 61.5377 117.45 62.1407 117.45 62.1407C117.45 62.1407 118.068 61.4839 119.001 60.4918C119.46 59.9933 119.997 59.4121 120.573 58.7892C121.148 58.1664 121.747 57.4902 122.329 56.7997C122.91 56.1367 123.454 55.4412 123.957 54.7164C124.186 54.366 124.405 54.019 124.531 53.667C124.59 53.4897 124.625 53.3145 124.548 53.1802L124.293 52.7111C124.149 52.435 124.021 52.1506 123.911 51.8594C123.823 51.6366 123.748 51.4091 123.685 51.178C123.627 50.9785 123.586 50.7744 123.563 50.568Z" fill="#F6A145"/>
<path d="M136.801 63.8303C136.594 63.8058 136.389 63.7638 136.19 63.7045C135.958 63.6417 135.731 63.5657 135.508 63.4769C135.217 63.3661 134.933 63.2383 134.657 63.094L134.188 62.8379C134.054 62.7601 133.875 62.7986 133.701 62.8534C133.348 62.977 133.001 63.1971 132.65 63.4242C131.923 63.925 131.226 64.4667 130.561 65.0467C129.868 65.6265 129.191 66.226 128.564 66.7995C127.937 67.373 127.356 67.908 126.858 68.3655L125.204 69.9109C125.204 69.9109 125.811 69.2379 126.768 68.2722C127.251 67.7943 127.805 67.2275 128.429 66.6508C129.054 66.0741 129.721 65.4611 130.412 64.8722C131.09 64.2946 131.801 63.7561 132.54 63.2591C132.885 63.0238 133.259 62.835 133.653 62.6976C133.838 62.6428 134.075 62.5971 134.266 62.7154L134.72 62.9837C135.017 63.1448 135.289 63.2952 135.541 63.4044C135.757 63.5053 135.978 63.5941 136.203 63.6704C136.397 63.7403 136.597 63.7937 136.801 63.8303Z" fill="#F6A145"/>
<path d="M149.243 25.4809C149.243 25.4809 149.501 25.6015 149.937 25.8457C150.372 26.0899 150.992 26.4445 151.698 26.929C152.404 27.4136 153.223 27.9899 154.062 28.6577C154.468 29.0059 154.911 29.3418 155.321 29.728C155.739 30.1052 156.163 30.4892 156.566 30.8965L157.171 31.5038L157.748 32.1294C158.139 32.5352 158.484 32.9708 158.826 33.3833C159.169 33.7958 159.478 34.2123 159.765 34.6119L160.184 35.1915L160.549 35.7523C160.785 36.1136 160.994 36.4424 161.169 36.7425L161.598 37.5347L161.963 38.2275L161.521 37.5801L161.025 36.8347L160.337 35.8993L159.946 35.3649L159.499 34.8147C159.192 34.4364 158.871 34.0371 158.516 33.6429C158.161 33.2487 157.809 32.8302 157.422 32.4297L156.847 31.8173L156.244 31.2227C155.85 30.8166 155.434 30.4334 155.024 30.0565C154.614 29.6796 154.199 29.322 153.804 28.9672C153.395 28.6304 153.008 28.2909 152.63 27.9856C152.251 27.6802 151.891 27.3913 151.549 27.1393C150.871 26.6249 150.3 26.203 149.886 25.9254C149.473 25.6479 149.243 25.4809 149.243 25.4809Z" fill="#F9B66D"/>
<path d="M150.936 24.6501C151.039 24.9037 151.194 25.1329 151.391 25.3229C151.669 25.6007 151.98 25.7776 152.233 25.8267C152.404 25.5452 152.213 25.3079 151.986 25.1192C151.687 24.8672 151.323 24.7046 150.936 24.6501Z" fill="#EC6350"/>
<path d="M162.127 36.081C162.317 36.2782 162.547 36.4332 162.801 36.536C162.746 36.1492 162.583 35.7854 162.331 35.4865C162.143 35.259 161.909 35.0656 161.625 35.239C161.673 35.4908 161.849 35.8025 162.127 36.081Z" fill="#EC6350"/>
<path d="M143.767 31.3717C143.767 31.3717 143.53 31.5489 143.175 31.8159C142.999 31.949 142.793 32.1041 142.574 32.2707C142.354 32.4373 142.119 32.6137 141.894 32.8024C141.669 32.9911 141.43 33.1646 141.224 33.3464C141.019 33.5283 140.808 33.6804 140.65 33.8289C140.32 34.1222 140.087 34.3095 140.087 34.3095C140.087 34.3095 140.267 34.0747 140.557 33.7347C140.697 33.5587 140.893 33.3872 141.092 33.1916C141.291 32.9959 141.526 32.8119 141.753 32.6212C142.181 32.282 142.633 31.9758 143.107 31.705C143.321 31.5823 143.541 31.471 143.767 31.3717Z" fill="#F9B66D"/>
<path d="M156.055 43.6888C155.954 43.9153 155.841 44.1363 155.717 44.3508C155.445 44.8234 155.137 45.2744 154.797 45.7C154.604 45.9269 154.423 46.1636 154.223 46.3587C154.024 46.5539 153.853 46.7509 153.679 46.8925C153.339 47.1823 153.1 47.3592 153.1 47.3592C153.1 47.3592 153.286 47.1249 153.58 46.8014C153.731 46.6409 153.885 46.4324 154.067 46.2264C154.249 46.0205 154.427 45.7824 154.612 45.5576C154.796 45.3327 154.97 45.0934 155.148 44.8816C155.325 44.6698 155.47 44.4565 155.603 44.2806C155.876 43.9246 156.055 43.6888 156.055 43.6888Z" fill="#F9B66D"/>
<path d="M115.047 63.2524C115.331 62.6885 115.173 61.5406 114.601 60.372C114.38 59.9178 114.105 59.4923 113.781 59.1053C113.607 60.2542 113.881 61.4271 114.545 62.3831C114.73 62.662 114.898 62.9524 115.047 63.2524Z" fill="#FFF158"/>
<path d="M124.088 72.3088C124.387 72.4591 124.677 72.6275 124.956 72.8132C125.911 73.4795 127.084 73.7556 128.235 73.585C127.848 73.2596 127.423 72.9835 126.969 72.7629C125.801 72.1875 124.653 72.0266 124.088 72.3088Z" fill="#FFF158"/>
<path d="M114.807 61.0372C114.829 61.0276 114.85 61.0157 114.869 61.0015C114.791 60.787 114.701 60.5767 114.601 60.3716C114.425 60.0122 114.216 59.6703 113.976 59.3503C113.779 59.5527 113.73 59.9542 113.881 60.3578C114.067 60.8546 114.483 61.1569 114.807 61.0372Z" fill="white"/>
<path d="M115.18 62.3817C115.146 61.9345 115.05 61.494 114.895 61.073C114.891 61.0782 114.88 61.0759 114.872 61.078C114.639 61.1652 114.558 61.5249 114.691 61.8821C114.793 62.1528 114.989 62.343 115.18 62.3817Z" fill="white"/>
<path d="M127.991 73.3902C127.671 73.149 127.329 72.939 126.97 72.7631C126.765 72.6625 126.556 72.5722 126.342 72.4926C126.327 72.5119 126.315 72.5328 126.305 72.555C126.185 72.8772 126.486 73.2945 126.982 73.4817C127.387 73.6357 127.787 73.5864 127.991 73.3902Z" fill="white"/>
<path d="M126.262 72.4884C126.265 72.481 126.266 72.4734 126.267 72.4657C125.846 72.3093 125.406 72.2125 124.96 72.178C124.998 72.3698 125.187 72.5665 125.458 72.6682C125.815 72.8026 126.176 72.7194 126.262 72.4884Z" fill="white"/>
<path d="M115.133 61.9186C115.029 61.3855 114.853 60.8687 114.611 60.3822C114.573 60.3074 114.534 60.2367 114.496 60.1648C114.469 60.1695 114.443 60.1778 114.419 60.1894C114.13 60.3388 114.092 60.8384 114.334 61.305C114.533 61.6903 114.862 61.9298 115.133 61.9186Z" fill="#FFDD7F"/>
<path d="M125.423 72.2448C125.42 72.5117 125.657 72.831 126.035 73.0282C126.502 73.2711 127.002 73.2338 127.148 72.9429C127.158 72.9214 127.166 72.8986 127.171 72.875C127.106 72.84 127.042 72.8042 126.976 72.7716C126.485 72.5254 125.962 72.3482 125.423 72.2448Z" fill="#FFDD7F"/>
<rect x="106.039" y="-32.8662" width="191.228" height="1.00646" transform="rotate(45 106.039 -32.8662)" fill="white"/>
<path d="M31.3713 44.9202L41.1118 54.6606L42.5345 53.2363L32.794 43.4958L31.3713 44.9202Z" fill="white"/>
<path d="M30.0433 42.1674L38.3848 44.4024L32.2784 50.5088L30.0433 42.1674Z" fill="white"/>
<defs>
<linearGradient id="paint0_linear" x1="62.0948" y1="83.0952" x2="49.4977" y2="70.4455" gradientUnits="userSpaceOnUse">
<stop stop-color="#FFF268"/>
<stop offset="0.276042" stop-color="#B7AE4B"/>
<stop offset="0.885417" stop-color="#B7AF4B" stop-opacity="0"/>
</linearGradient>
<linearGradient id="paint1_linear" x1="73.2722" y1="72.3455" x2="60.6225" y2="59.7484" gradientUnits="userSpaceOnUse">
<stop stop-color="#FFF268"/>
<stop offset="0.276042" stop-color="#B7AE4B"/>
<stop offset="0.885417" stop-color="#B7AF4B" stop-opacity="0"/>
</linearGradient>
</defs>
</svg>
