<svg width="93" height="93" viewBox="0 0 93 93" fill="none" xmlns="http://www.w3.org/2000/svg">
<g opacity="0.05">
<path fill-rule="evenodd" clip-rule="evenodd" d="M92.9534 46.4999C92.9534 72.1554 72.1554 92.9534 46.4999 92.9534C46.1698 92.9534 45.8404 92.9499 45.5119 92.943L45.5219 92.9534H0.0463867V46.0109L0.0488937 46.0135C0.309801 20.582 21.0067 0.0463867 46.4999 0.0463867C72.1554 0.0463867 92.9534 20.8443 92.9534 46.4999ZM88.9999 46.4999C88.9999 69.972 69.972 88.9999 46.4999 88.9999C46.1979 88.9999 45.8965 88.9967 45.596 88.9904L45.6051 88.9999H3.99987V46.0525L4.00217 46.0549C4.24087 22.7878 23.1763 3.9999 46.4999 3.9999C69.972 3.9999 88.9999 23.0278 88.9999 46.4999Z" fill="white"/>
<path fill-rule="evenodd" clip-rule="evenodd" d="M67.9737 46.0528C67.9737 57.9124 58.3596 67.5265 46.5 67.5265C34.6405 67.5265 25.0264 57.9124 25.0264 46.0528C25.0264 34.1932 34.6405 24.5791 46.5 24.5791C58.3596 24.5791 67.9737 34.1932 67.9737 46.0528ZM39.7695 58.7611C43.1926 55.0747 49.0367 55.0408 52.4819 58.7066C53.5508 59.844 53.9414 61.5361 52.6496 62.4122C51.504 63.1891 49.5224 63.9099 46.113 63.9099C42.6525 63.9099 40.684 63.1673 39.569 62.3772C38.3381 61.505 38.7429 59.8666 39.7695 58.7611ZM61.9884 45.7945C63.43 46.739 64.0547 48.5336 62.7092 51.934C61.3638 55.3344 61.0274 56.1846 59.5858 56.6568C56.7026 56.893 55.0208 55.0039 53.3389 51.6979C52.1376 48.392 55.0208 46.2668 56.9429 45.7945C56.9429 45.7945 60.3066 44.8499 61.9884 45.7945ZM30.291 51.934C28.9455 48.5336 29.5702 46.739 31.0117 45.7945C32.6936 44.8499 36.0573 45.7945 36.0573 45.7945C37.9794 46.2668 40.8626 48.392 39.6613 51.6979C37.9794 55.0039 36.2976 56.893 33.4144 56.6568C31.9728 56.1846 31.6364 55.3344 30.291 51.934ZM57.0088 40.5711C59.6777 41.2662 61.3625 41.705 61.584 40.6838C62.402 36.9137 54.8315 29.552 46.5018 29.552C38.172 29.552 30.5784 36.9181 31.4195 40.7221C31.6397 41.7181 33.3053 41.2812 35.9459 40.5887C38.6247 39.8862 42.307 38.9204 46.5018 38.9204C50.6711 38.9204 54.3342 39.8745 57.0088 40.5711Z" fill="white"/>
</g>
</svg>
