<svg width="107" height="107" viewBox="0 0 107 107" fill="none" xmlns="http://www.w3.org/2000/svg">
<g opacity="0.05">
<path fill-rule="evenodd" clip-rule="evenodd" d="M87.9958 35.1655C98.0297 54.3087 90.6452 77.9615 71.502 87.9955C71.2557 88.1246 71.0086 88.2508 70.7608 88.3742L70.7723 88.378L36.8401 106.164L18.4808 71.1369L18.4836 71.1378C8.73199 52.0597 16.1437 28.6422 35.1658 18.6717C54.309 8.63777 77.9618 16.0223 87.9958 35.1655ZM85.0458 36.7117C94.2258 54.2257 87.4698 75.8655 69.9558 85.0455C69.7304 85.1637 69.5044 85.2791 69.2777 85.392L69.2882 85.3955L38.2439 101.667L21.447 69.6217L21.4496 69.6225C12.5279 52.1681 19.3088 30.7436 36.712 21.6217C54.226 12.4417 75.8658 19.1977 85.0458 36.7117Z" fill="white"/>
<path fill-rule="evenodd" clip-rule="evenodd" d="M69.1817 44.6015C73.82 53.4507 70.4064 64.3845 61.5573 69.0228C52.7081 73.6611 41.7743 70.2475 37.136 61.3984C32.4977 52.5492 35.9112 41.6154 44.7604 36.9771C53.6096 32.3387 64.5434 35.7523 69.1817 44.6015ZM53.107 65.1147C54.2195 61.0253 58.5669 58.7144 62.5712 60.1022C63.8136 60.5329 64.7668 61.6427 64.1456 62.8016C63.5946 63.8293 62.398 65.1422 59.854 66.4756C57.2719 67.8291 55.5127 68.0448 54.3717 67.8914C53.1121 67.7219 52.7733 66.3411 53.107 65.1147ZM64.6147 46.7496C66.0597 46.8906 67.2277 47.9854 67.5537 51.0488C67.8796 54.1123 67.9611 54.8782 67.0702 55.7944C65.0112 57.0982 63.0175 56.3464 60.4696 54.5374C58.2802 52.5405 59.6004 49.8271 60.8499 48.723C60.8499 48.723 62.9903 46.7026 64.6147 46.7496ZM43.3644 63.7277C41.0305 61.7167 40.7948 60.1333 41.501 58.8647C42.3865 57.5022 45.2658 56.8914 45.2658 56.8914C46.8848 56.4921 49.8672 56.9502 50.2638 59.8868C50.3018 63.0113 49.7858 65.0787 47.5421 66.0301C46.2817 66.2415 45.6982 65.7387 43.3644 63.7277ZM58.8562 44.7997C61.1195 44.2746 62.5482 43.9431 62.3141 43.0944C61.4499 39.9614 52.9219 37.4292 46.7066 40.687C40.4912 43.9447 37.7061 52.4109 39.8214 54.9204C40.3752 55.5775 41.4472 54.6001 43.1467 53.0506C44.8707 51.4787 47.2406 49.3179 50.3706 47.6774C53.4816 46.0467 56.588 45.326 58.8562 44.7997Z" fill="white"/>
</g>
</svg>
