<svg width="40" height="40" viewBox="0 0 40 40" fill="none" xmlns="http://www.w3.org/2000/svg">
<path d="M20 40C31.0457 40 40 31.0457 40 20C40 8.95431 31.0457 0 20 0C8.95431 0 0 8.95431 0 20C0 31.0457 8.95431 40 20 40Z" fill="url(#paint0_linear_65_21)"/>
<path d="M29.9825 11.7269C30.1605 10.5762 29.0665 9.66793 28.0434 10.1171L7.6657 19.064C6.932 19.3861 6.98567 20.4976 7.74663 20.7399L11.949 22.0781C12.7511 22.3336 13.6195 22.2014 14.32 21.7176L23.7945 15.1719C24.0802 14.9744 24.3917 15.3807 24.1475 15.6323L17.3275 22.6637C16.666 23.3459 16.7972 24.5017 17.5931 25.0007L25.2288 29.789C26.0852 30.326 27.187 29.7866 27.3471 28.7516L29.9825 11.7269Z" fill="white"/>
<defs>
<linearGradient id="paint0_linear_65_21" x1="20" y1="0" x2="20" y2="40" gradientUnits="userSpaceOnUse">
<stop stop-color="#37BBFE"/>
<stop offset="1" stop-color="#007DBB"/>
</linearGradient>
</defs>
</svg>
