<svg width="40" height="40" viewBox="0 0 40 40" fill="none" xmlns="http://www.w3.org/2000/svg">
<path fill-rule="evenodd" clip-rule="evenodd" d="M20 -7.15256e-07C31.0457 -7.15256e-07 40 8.95431 40 20C40 31.0457 31.0457 40 20 40C8.95431 40 0 31.0457 0 20C0 8.95431 8.95431 -7.15256e-07 20 -7.15256e-07ZM21.1978 8.14678C22.5578 8.31651 23.6567 8.64409 24.8625 9.23222C26.0484 9.8125 26.8074 10.3611 27.8116 11.3598C28.7524 12.3032 29.2743 13.0177 29.8277 14.1268C30.5986 15.6742 31.0374 17.5136 31.1125 19.5385C31.1402 20.2292 31.1204 20.3832 30.9622 20.5805C30.6618 20.9635 30.0016 20.9002 29.7763 20.47C29.7051 20.3279 29.6853 20.2056 29.6616 19.6529C29.6221 18.8043 29.5629 18.2556 29.4443 17.6004C28.9778 15.0308 27.7443 12.9782 25.7756 11.5058C24.135 10.2743 22.4391 9.67431 20.2175 9.54407C19.4663 9.50065 19.3359 9.47307 19.1659 9.34279C18.8496 9.09411 18.8338 8.50994 19.1382 8.23759C19.324 8.06782 19.4544 8.04413 20.0988 8.06387C20.4349 8.07571 20.929 8.1152 21.1978 8.14678ZM12.1608 8.57309C12.2992 8.62044 12.5127 8.73095 12.6352 8.80991C13.3863 9.30728 15.4775 11.9795 16.1615 13.3137C16.5528 14.0755 16.6833 14.6399 16.5608 15.0584C16.4342 15.5083 16.2247 15.7452 15.2878 16.4991C14.9122 16.803 14.5604 17.1149 14.5051 17.1978C14.3627 17.4031 14.248 17.8056 14.248 18.0898C14.2521 18.749 14.679 19.9451 15.2404 20.8648C15.6752 21.5792 16.4539 22.4949 17.2248 23.1976C18.1301 24.0265 18.9287 24.5909 19.83 25.037C20.9883 25.6133 21.6959 25.7593 22.2138 25.5186C22.3443 25.4593 22.4826 25.3804 22.5262 25.3449C22.5656 25.3093 22.8701 24.9383 23.2021 24.5278C23.8425 23.7225 23.9888 23.5923 24.4276 23.4423C24.9851 23.2529 25.5543 23.3041 26.1275 23.5962C26.5624 23.8213 27.5111 24.4094 28.1239 24.8357C28.9303 25.4001 30.6539 26.8054 30.8872 27.0857C31.2983 27.5909 31.3695 28.2382 31.0927 28.9527C30.8002 29.7065 29.6617 31.1197 28.867 31.7236C28.1476 32.2684 27.6376 32.4775 26.9656 32.5091C26.4121 32.5367 26.1829 32.4894 25.4752 32.1973C19.9249 29.9118 15.4934 26.5014 11.975 21.816C10.1368 19.3688 8.73729 16.8307 7.78057 14.1979C7.22321 12.6624 7.19558 11.9953 7.65409 11.2098C7.85179 10.8783 8.69381 10.0572 9.30655 9.59937C10.3265 8.84148 10.7969 8.56121 11.1725 8.48229C11.4294 8.42702 11.8761 8.47045 12.1608 8.57309ZM21.4706 11.0085C23.8702 11.3598 25.7282 12.4729 26.9458 14.2808C27.6297 15.2992 28.0567 16.4952 28.2029 17.778C28.2543 18.2477 28.2543 19.1043 28.199 19.2464C28.1476 19.3806 27.9816 19.5622 27.8392 19.6371C27.6851 19.7161 27.357 19.7082 27.1751 19.6135C26.8707 19.4595 26.7798 19.2148 26.7798 18.5517C26.7798 17.5294 26.5149 16.4517 26.0564 15.6149C25.5345 14.6597 24.7755 13.8703 23.8505 13.3216C23.0559 12.8479 21.8818 12.4966 20.8105 12.4098C20.423 12.3782 20.2095 12.2992 20.0632 12.1295C19.838 11.8729 19.8142 11.5256 20.0039 11.2375C20.2095 10.9177 20.5257 10.8664 21.4706 11.0085ZM22.3126 13.9886C23.0914 14.1544 23.6884 14.4505 24.1983 14.9281C24.8545 15.5478 25.2143 16.2978 25.3724 17.3754C25.4791 18.078 25.4357 18.3543 25.1866 18.5832C24.9534 18.7964 24.5225 18.8043 24.2616 18.603C24.0718 18.4608 24.0125 18.3109 23.969 17.9043C23.9177 17.3635 23.8228 16.9846 23.6607 16.6333C23.3128 15.8873 22.7001 15.5005 21.6643 15.3741C21.178 15.3149 21.0318 15.2597 20.8737 15.0742C20.5851 14.7308 20.6957 14.1742 21.095 13.9689C21.2453 13.8939 21.3086 13.886 21.6406 13.9058C21.8462 13.9176 22.1506 13.9531 22.3126 13.9886Z" fill="#7F4DA0"/>
</svg>
